G04 #@! TF.GenerationSoftware,KiCad,Pcbnew,6.99.0-unknown-1140fd0fb0~148~ubuntu20.04.1*
G04 #@! TF.CreationDate,2022-07-29T19:56:23-04:00*
G04 #@! TF.ProjectId,bug-o-matic,6275672d-6f2d-46d6-9174-69632e6b6963,rev?*
G04 #@! TF.SameCoordinates,Original*
G04 #@! TF.FileFunction,Paste,Top*
G04 #@! TF.FilePolarity,Positive*
%FSLAX46Y46*%
G04 Gerber Fmt 4.6, Leading zero omitted, Abs format (unit mm)*
G04 Created by KiCad (PCBNEW 6.99.0-unknown-1140fd0fb0~148~ubuntu20.04.1) date 2022-07-29 19:56:23*
%MOMM*%
%LPD*%
G01*
G04 APERTURE LIST*
G04 Aperture macros list*
%AMRoundRect*
0 Rectangle with rounded corners*
0 $1 Rounding radius*
0 $2 $3 $4 $5 $6 $7 $8 $9 X,Y pos of 4 corners*
0 Add a 4 corners polygon primitive as box body*
4,1,4,$2,$3,$4,$5,$6,$7,$8,$9,$2,$3,0*
0 Add four circle primitives for the rounded corners*
1,1,$1+$1,$2,$3*
1,1,$1+$1,$4,$5*
1,1,$1+$1,$6,$7*
1,1,$1+$1,$8,$9*
0 Add four rect primitives between the rounded corners*
20,1,$1+$1,$2,$3,$4,$5,0*
20,1,$1+$1,$4,$5,$6,$7,0*
20,1,$1+$1,$6,$7,$8,$9,0*
20,1,$1+$1,$8,$9,$2,$3,0*%
G04 Aperture macros list end*
%ADD10RoundRect,0.225000X-0.225000X-0.250000X0.225000X-0.250000X0.225000X0.250000X-0.225000X0.250000X0*%
%ADD11RoundRect,0.150000X0.587500X0.150000X-0.587500X0.150000X-0.587500X-0.150000X0.587500X-0.150000X0*%
%ADD12RoundRect,0.218750X-0.256250X0.218750X-0.256250X-0.218750X0.256250X-0.218750X0.256250X0.218750X0*%
%ADD13RoundRect,0.225000X0.250000X-0.225000X0.250000X0.225000X-0.250000X0.225000X-0.250000X-0.225000X0*%
%ADD14RoundRect,0.200000X-0.275000X0.200000X-0.275000X-0.200000X0.275000X-0.200000X0.275000X0.200000X0*%
%ADD15RoundRect,0.225000X-0.250000X0.225000X-0.250000X-0.225000X0.250000X-0.225000X0.250000X0.225000X0*%
%ADD16R,1.300000X1.700000*%
%ADD17RoundRect,0.200000X0.275000X-0.200000X0.275000X0.200000X-0.275000X0.200000X-0.275000X-0.200000X0*%
%ADD18RoundRect,0.150000X-0.825000X-0.150000X0.825000X-0.150000X0.825000X0.150000X-0.825000X0.150000X0*%
%ADD19RoundRect,0.225000X0.225000X0.250000X-0.225000X0.250000X-0.225000X-0.250000X0.225000X-0.250000X0*%
%ADD20RoundRect,0.250000X0.425000X-0.450000X0.425000X0.450000X-0.425000X0.450000X-0.425000X-0.450000X0*%
%ADD21RoundRect,0.218750X0.381250X-0.218750X0.381250X0.218750X-0.381250X0.218750X-0.381250X-0.218750X0*%
%ADD22RoundRect,0.150000X-0.150000X0.587500X-0.150000X-0.587500X0.150000X-0.587500X0.150000X0.587500X0*%
%ADD23RoundRect,0.150000X0.150000X-0.587500X0.150000X0.587500X-0.150000X0.587500X-0.150000X-0.587500X0*%
%ADD24R,1.700000X1.300000*%
%ADD25R,2.500000X0.500000*%
%ADD26R,2.500000X2.000000*%
%ADD27RoundRect,0.200000X0.200000X0.275000X-0.200000X0.275000X-0.200000X-0.275000X0.200000X-0.275000X0*%
%ADD28RoundRect,0.075000X-0.662500X-0.075000X0.662500X-0.075000X0.662500X0.075000X-0.662500X0.075000X0*%
%ADD29RoundRect,0.075000X-0.075000X-0.662500X0.075000X-0.662500X0.075000X0.662500X-0.075000X0.662500X0*%
%ADD30RoundRect,0.200000X-0.200000X-0.275000X0.200000X-0.275000X0.200000X0.275000X-0.200000X0.275000X0*%
%ADD31RoundRect,0.250000X0.450000X0.425000X-0.450000X0.425000X-0.450000X-0.425000X0.450000X-0.425000X0*%
%ADD32R,1.500000X1.500000*%
G04 APERTURE END LIST*
D10*
X190475000Y-80000000D03*
X192025000Y-80000000D03*
X185975000Y-87000000D03*
X187525000Y-87000000D03*
D11*
X162937500Y-88950000D03*
X162937500Y-87050000D03*
X161062500Y-88000000D03*
D12*
X165000000Y-94962500D03*
X165000000Y-96537500D03*
D13*
X146250000Y-70275000D03*
X146250000Y-68725000D03*
D14*
X160250000Y-75425000D03*
X160250000Y-77075000D03*
D15*
X165500000Y-80975000D03*
X165500000Y-82525000D03*
D14*
X155000000Y-75425000D03*
X155000000Y-77075000D03*
X153250000Y-75425000D03*
X153250000Y-77075000D03*
D16*
X186999999Y-91249999D03*
X190499999Y-91249999D03*
D17*
X153750000Y-84825000D03*
X153750000Y-83175000D03*
D11*
X154437500Y-88950000D03*
X154437500Y-87050000D03*
X152562500Y-88000000D03*
D14*
X158500000Y-75425000D03*
X158500000Y-77075000D03*
D17*
X159250000Y-84825000D03*
X159250000Y-83175000D03*
D18*
X135775000Y-84305000D03*
X135775000Y-85575000D03*
X135775000Y-86845000D03*
X135775000Y-88115000D03*
X135775000Y-89385000D03*
X135775000Y-90655000D03*
X135775000Y-91925000D03*
X135775000Y-93195000D03*
X140725000Y-93195000D03*
X140725000Y-91925000D03*
X140725000Y-90655000D03*
X140725000Y-89385000D03*
X140725000Y-88115000D03*
X140725000Y-86845000D03*
X140725000Y-85575000D03*
X140725000Y-84305000D03*
D14*
X148250000Y-68675000D03*
X148250000Y-70325000D03*
D13*
X165500000Y-79275000D03*
X165500000Y-77725000D03*
D19*
X139275000Y-81250000D03*
X137725000Y-81250000D03*
X177025000Y-76250000D03*
X175475000Y-76250000D03*
D17*
X149250000Y-93075000D03*
X149250000Y-91425000D03*
D20*
X186750000Y-70350000D03*
X186750000Y-67650000D03*
D21*
X190750000Y-88562500D03*
X190750000Y-86437500D03*
D22*
X157450000Y-79312500D03*
X155550000Y-79312500D03*
X156500000Y-81187500D03*
D13*
X132000000Y-93275000D03*
X132000000Y-91725000D03*
D12*
X149250000Y-94962500D03*
X149250000Y-96537500D03*
D17*
X155500000Y-84825000D03*
X155500000Y-83175000D03*
D23*
X191300000Y-77437500D03*
X193200000Y-77437500D03*
X192250000Y-75562500D03*
D13*
X178500000Y-69525000D03*
X178500000Y-67975000D03*
D24*
X192749999Y-88499999D03*
X192749999Y-84999999D03*
D17*
X157000000Y-89075000D03*
X157000000Y-87425000D03*
X165000000Y-93075000D03*
X165000000Y-91425000D03*
D25*
X195874999Y-83599999D03*
X195874999Y-82799999D03*
X195874999Y-81999999D03*
X195874999Y-81199999D03*
D26*
X195874999Y-86399999D03*
X201374999Y-86399999D03*
D25*
X195874999Y-80399999D03*
D26*
X195874999Y-77599999D03*
X201374999Y-77599999D03*
D27*
X190825000Y-67500000D03*
X189175000Y-67500000D03*
D15*
X132000000Y-87975000D03*
X132000000Y-89525000D03*
X144250000Y-84225000D03*
X144250000Y-85775000D03*
D13*
X173500000Y-84525000D03*
X173500000Y-82975000D03*
D28*
X177087500Y-79500000D03*
X177087500Y-80000000D03*
X177087500Y-80500000D03*
X177087500Y-81000000D03*
X177087500Y-81500000D03*
X177087500Y-82000000D03*
X177087500Y-82500000D03*
X177087500Y-83000000D03*
X177087500Y-83500000D03*
X177087500Y-84000000D03*
X177087500Y-84500000D03*
X177087500Y-85000000D03*
D29*
X178500000Y-86412500D03*
X179000000Y-86412500D03*
X179500000Y-86412500D03*
X180000000Y-86412500D03*
X180500000Y-86412500D03*
X181000000Y-86412500D03*
X181500000Y-86412500D03*
X182000000Y-86412500D03*
X182500000Y-86412500D03*
X183000000Y-86412500D03*
X183500000Y-86412500D03*
X184000000Y-86412500D03*
D28*
X185412500Y-85000000D03*
X185412500Y-84500000D03*
X185412500Y-84000000D03*
X185412500Y-83500000D03*
X185412500Y-83000000D03*
X185412500Y-82500000D03*
X185412500Y-82000000D03*
X185412500Y-81500000D03*
X185412500Y-81000000D03*
X185412500Y-80500000D03*
X185412500Y-80000000D03*
X185412500Y-79500000D03*
D29*
X184000000Y-78087500D03*
X183500000Y-78087500D03*
X183000000Y-78087500D03*
X182500000Y-78087500D03*
X182000000Y-78087500D03*
X181500000Y-78087500D03*
X181000000Y-78087500D03*
X180500000Y-78087500D03*
X180000000Y-78087500D03*
X179500000Y-78087500D03*
X179000000Y-78087500D03*
X178500000Y-78087500D03*
D30*
X189175000Y-71500000D03*
X190825000Y-71500000D03*
X190425000Y-83000000D03*
X192075000Y-83000000D03*
D31*
X189850000Y-96000000D03*
X187150000Y-96000000D03*
D17*
X157500000Y-84825000D03*
X157500000Y-83175000D03*
D14*
X162000000Y-75425000D03*
X162000000Y-77075000D03*
D17*
X165500000Y-88825000D03*
X165500000Y-87175000D03*
X151750000Y-84825000D03*
X151750000Y-83175000D03*
D10*
X185975000Y-77500000D03*
X187525000Y-77500000D03*
D17*
X161250000Y-84825000D03*
X161250000Y-83175000D03*
D30*
X190425000Y-81500000D03*
X192075000Y-81500000D03*
D13*
X132000000Y-85775000D03*
X132000000Y-84225000D03*
D27*
X180075000Y-89250000D03*
X178425000Y-89250000D03*
X190825000Y-69500000D03*
X189175000Y-69500000D03*
D14*
X156750000Y-75425000D03*
X156750000Y-77075000D03*
D30*
X183425000Y-96250000D03*
X185075000Y-96250000D03*
D19*
X175025000Y-78250000D03*
X173475000Y-78250000D03*
D14*
X158500000Y-87425000D03*
X158500000Y-89075000D03*
D22*
X161200000Y-79312500D03*
X159300000Y-79312500D03*
X160250000Y-81187500D03*
D17*
X167000000Y-88825000D03*
X167000000Y-87175000D03*
D22*
X153700000Y-79312500D03*
X151800000Y-79312500D03*
X152750000Y-81187500D03*
D10*
X183475000Y-94250000D03*
X185025000Y-94250000D03*
D12*
X192500000Y-68212500D03*
X192500000Y-69787500D03*
D32*
X143899999Y-70249999D03*
X136099999Y-70249999D03*
M02*
