M48
; DRILL file {KiCad 6.99.0-unknown-1140fd0fb0~148~ubuntu20.04.1} date Fri 29 Jul 2022 07:56:28 PM
; FORMAT={-:-/ absolute / inch / decimal}
; #@! TF.CreationDate,2022-07-29T19:56:28-04:00
; #@! TF.GenerationSoftware,Kicad,Pcbnew,6.99.0-unknown-1140fd0fb0~148~ubuntu20.04.1
; #@! TF.FileFunction,Plated,1,4,PTH
FMAT,2
INCH
; #@! TA.AperFunction,Plated,PTH,ViaDrill
T1C0.0157
; #@! TA.AperFunction,Plated,PTH,ComponentDrill
T2C0.0295
; #@! TA.AperFunction,Plated,PTH,ComponentDrill
T3C0.0315
; #@! TA.AperFunction,Plated,PTH,ComponentDrill
T4C0.0394
; #@! TA.AperFunction,Plated,PTH,ComponentDrill
T5C0.1260
%
G90
G05
T1
X5.1584Y-3.6689
X5.2871Y-3.662
X5.2899Y-3.5994
X5.4076Y-2.7744
X5.4443Y-3.3628
X5.4812Y-3.4559
X5.4833Y-3.159
X5.5988Y-3.6759
X5.599Y-3.5691
X5.5991Y-3.6272
X5.5995Y-3.5191
X5.6156Y-2.7864
X5.6388Y-3.3596
X5.6791Y-3.2782
X5.717Y-2.7147
X5.7993Y-3.2052
X5.8674Y-2.7345
X5.9149Y-3.8057
X5.9249Y-3.3129
X5.9885Y-3.4287
X6.0138Y-3.2454
X6.0531Y-3.2023
X6.0634Y-3.0634
X6.1319Y-2.94
X6.1525Y-3.303
X6.1614Y-3.2452
X6.2008Y-2.94
X6.2102Y-3.536
X6.2118Y-3.4058
X6.2306Y-3.3044
X6.2402Y-3.3797
X6.3009Y-3.302
X6.3091Y-3.2452
X6.3387Y-2.9398
X6.3486Y-3.5204
X6.381Y-3.3035
X6.4057Y-3.0042
X6.4173Y-2.9539
X6.4293Y-3.3035
X6.4822Y-3.2175
X6.5251Y-3.6285
X6.5255Y-3.8301
X6.6075Y-3.5298
X6.7346Y-3.2293
X6.7972Y-3.5299
X6.8082Y-3.4121
X6.8518Y-3.2204
X6.8735Y-3.4928
X6.884Y-3.388
X6.8873Y-3.2206
X6.8945Y-2.9633
X6.9231Y-3.2291
X6.9243Y-3.3742
X6.9524Y-3.102
X6.9915Y-3.4021
X6.9955Y-3.1035
X7.0214Y-3.2283
X7.0428Y-3.1232
X7.0592Y-3.5412
X7.0614Y-3.3171
X7.0677Y-3.2071
X7.0698Y-2.7314
X7.1063Y-3.353
X7.1113Y-3.1243
X7.1249Y-3.4509
X7.1326Y-3.4867
X7.1421Y-3.0249
X7.1489Y-3.1243
X7.1556Y-3.2057
X7.1604Y-3.3038
X7.1832Y-3.0255
X7.185Y-3.5097
X7.1923Y-3.2719
X7.1983Y-3.1242
X7.2047Y-3.4513
X7.2206Y-3.0236
X7.2229Y-3.3524
X7.2234Y-3.75
X7.2291Y-3.1657
X7.2501Y-3.2283
X7.2506Y-3.2638
X7.2757Y-3.102
X7.2904Y-3.6708
X7.3091Y-2.6985
X7.3195Y-3.5225
X7.3486Y-3.302
X7.3509Y-3.3932
X7.3675Y-3.1412
X7.4069Y-3.3182
X7.4093Y-3.5838
X7.4181Y-2.766
X7.4581Y-3.5429
X7.4614Y-3.1494
X7.4866Y-3.3361
X7.5113Y-3.4487
X7.5128Y-2.8535
X7.6063Y-3.0982
X7.6146Y-3.2598
T2
X7.1449Y-2.7307
X7.1949Y-2.7307
X7.2449Y-2.7307
T3
X6.6634Y-3.0638
X6.6634Y-3.2559
T4
X4.791Y-3.073
X4.791Y-3.1821
X4.791Y-3.2911
X4.791Y-3.4002
X4.9028Y-3.0185
X4.9028Y-3.1276
X4.9028Y-3.2366
X4.9028Y-3.3457
X4.9028Y-3.4547
X5.1831Y-3.0118
X5.2831Y-3.0118
X5.3831Y-3.0118
X5.4831Y-3.0118
X5.5831Y-3.0118
X5.6831Y-3.0118
X5.978Y-3.6161
X5.978Y-3.7161
X5.997Y-2.7504
X5.997Y-2.8504
X6.078Y-3.6161
X6.078Y-3.7161
X6.097Y-2.7504
X6.097Y-2.8504
X6.178Y-3.6161
X6.178Y-3.7161
X6.197Y-2.7504
X6.197Y-2.8504
X6.278Y-3.6161
X6.278Y-3.7161
X6.297Y-2.7504
X6.297Y-2.8504
X6.378Y-3.6161
X6.378Y-3.7161
X6.397Y-2.7504
X6.397Y-2.8504
X6.497Y-2.7504
X6.497Y-2.8504
X6.597Y-2.7504
X6.597Y-2.8504
X6.6004Y-3.6161
X6.6004Y-3.7161
X6.697Y-2.7504
X6.697Y-2.8504
X6.7004Y-3.6161
X6.7004Y-3.7161
X6.797Y-2.7504
X6.797Y-2.8504
X6.8004Y-3.6161
X6.8004Y-3.7161
X6.897Y-2.7504
X6.897Y-2.8504
X6.9004Y-3.6161
X6.9004Y-3.7161
X7.0004Y-3.6161
X7.0004Y-3.7161
X7.1004Y-3.6161
X7.1004Y-3.7161
X7.5827Y-3.6014
X7.5827Y-3.7014
X7.5827Y-3.8014
X7.6821Y-2.6663
X7.6821Y-2.7663
X7.6821Y-2.8663
X7.6827Y-3.6014
X7.6827Y-3.7014
X7.6827Y-3.8014
T5
X4.8469Y-2.7445
X4.8469Y-3.7287
T0
M30
