G04 #@! TF.GenerationSoftware,KiCad,Pcbnew,6.99.0-unknown-1140fd0fb0~148~ubuntu20.04.1*
G04 #@! TF.CreationDate,2022-07-29T19:56:23-04:00*
G04 #@! TF.ProjectId,bug-o-matic,6275672d-6f2d-46d6-9174-69632e6b6963,rev?*
G04 #@! TF.SameCoordinates,Original*
G04 #@! TF.FileFunction,Legend,Bot*
G04 #@! TF.FilePolarity,Positive*
%FSLAX46Y46*%
G04 Gerber Fmt 4.6, Leading zero omitted, Abs format (unit mm)*
G04 Created by KiCad (PCBNEW 6.99.0-unknown-1140fd0fb0~148~ubuntu20.04.1) date 2022-07-29 19:56:23*
%MOMM*%
%LPD*%
G01*
G04 APERTURE LIST*
%ADD10C,0.175000*%
%ADD11C,0.125000*%
%ADD12C,0.250000*%
%ADD13C,0.076200*%
%ADD14C,0.010000*%
G04 APERTURE END LIST*
D10*
X199483332Y-91057166D02*
X199249999Y-91757166D01*
X199249999Y-91757166D02*
X199016665Y-91057166D01*
X198649999Y-91057166D02*
X198516665Y-91057166D01*
X198516665Y-91057166D02*
X198449999Y-91090500D01*
X198449999Y-91090500D02*
X198383332Y-91157166D01*
X198383332Y-91157166D02*
X198349999Y-91290500D01*
X198349999Y-91290500D02*
X198349999Y-91523833D01*
X198349999Y-91523833D02*
X198383332Y-91657166D01*
X198383332Y-91657166D02*
X198449999Y-91723833D01*
X198449999Y-91723833D02*
X198516665Y-91757166D01*
X198516665Y-91757166D02*
X198649999Y-91757166D01*
X198649999Y-91757166D02*
X198716665Y-91723833D01*
X198716665Y-91723833D02*
X198783332Y-91657166D01*
X198783332Y-91657166D02*
X198816665Y-91523833D01*
X198816665Y-91523833D02*
X198816665Y-91290500D01*
X198816665Y-91290500D02*
X198783332Y-91157166D01*
X198783332Y-91157166D02*
X198716665Y-91090500D01*
X198716665Y-91090500D02*
X198649999Y-91057166D01*
X198049999Y-91057166D02*
X198049999Y-91623833D01*
X198049999Y-91623833D02*
X198016666Y-91690500D01*
X198016666Y-91690500D02*
X197983332Y-91723833D01*
X197983332Y-91723833D02*
X197916666Y-91757166D01*
X197916666Y-91757166D02*
X197783332Y-91757166D01*
X197783332Y-91757166D02*
X197716666Y-91723833D01*
X197716666Y-91723833D02*
X197683332Y-91690500D01*
X197683332Y-91690500D02*
X197649999Y-91623833D01*
X197649999Y-91623833D02*
X197649999Y-91057166D01*
X197416666Y-91057166D02*
X197016666Y-91057166D01*
X197216666Y-91757166D02*
X197216666Y-91057166D01*
X200399999Y-96307166D02*
X200166666Y-97007166D01*
X200166666Y-97007166D02*
X199933332Y-96307166D01*
X199733332Y-96973833D02*
X199633332Y-97007166D01*
X199633332Y-97007166D02*
X199466666Y-97007166D01*
X199466666Y-97007166D02*
X199399999Y-96973833D01*
X199399999Y-96973833D02*
X199366666Y-96940500D01*
X199366666Y-96940500D02*
X199333332Y-96873833D01*
X199333332Y-96873833D02*
X199333332Y-96807166D01*
X199333332Y-96807166D02*
X199366666Y-96740500D01*
X199366666Y-96740500D02*
X199399999Y-96707166D01*
X199399999Y-96707166D02*
X199466666Y-96673833D01*
X199466666Y-96673833D02*
X199599999Y-96640500D01*
X199599999Y-96640500D02*
X199666666Y-96607166D01*
X199666666Y-96607166D02*
X199699999Y-96573833D01*
X199699999Y-96573833D02*
X199733332Y-96507166D01*
X199733332Y-96507166D02*
X199733332Y-96440500D01*
X199733332Y-96440500D02*
X199699999Y-96373833D01*
X199699999Y-96373833D02*
X199666666Y-96340500D01*
X199666666Y-96340500D02*
X199599999Y-96307166D01*
X199599999Y-96307166D02*
X199433332Y-96307166D01*
X199433332Y-96307166D02*
X199333332Y-96340500D01*
X199033332Y-96640500D02*
X198799999Y-96640500D01*
X198699999Y-97007166D02*
X199033332Y-97007166D01*
X199033332Y-97007166D02*
X199033332Y-96307166D01*
X199033332Y-96307166D02*
X198699999Y-96307166D01*
X198399999Y-97007166D02*
X198399999Y-96307166D01*
X198399999Y-96307166D02*
X197999999Y-97007166D01*
X197999999Y-97007166D02*
X197999999Y-96307166D01*
X197699999Y-96973833D02*
X197599999Y-97007166D01*
X197599999Y-97007166D02*
X197433333Y-97007166D01*
X197433333Y-97007166D02*
X197366666Y-96973833D01*
X197366666Y-96973833D02*
X197333333Y-96940500D01*
X197333333Y-96940500D02*
X197299999Y-96873833D01*
X197299999Y-96873833D02*
X197299999Y-96807166D01*
X197299999Y-96807166D02*
X197333333Y-96740500D01*
X197333333Y-96740500D02*
X197366666Y-96707166D01*
X197366666Y-96707166D02*
X197433333Y-96673833D01*
X197433333Y-96673833D02*
X197566666Y-96640500D01*
X197566666Y-96640500D02*
X197633333Y-96607166D01*
X197633333Y-96607166D02*
X197666666Y-96573833D01*
X197666666Y-96573833D02*
X197699999Y-96507166D01*
X197699999Y-96507166D02*
X197699999Y-96440500D01*
X197699999Y-96440500D02*
X197666666Y-96373833D01*
X197666666Y-96373833D02*
X197633333Y-96340500D01*
X197633333Y-96340500D02*
X197566666Y-96307166D01*
X197566666Y-96307166D02*
X197399999Y-96307166D01*
X197399999Y-96307166D02*
X197299999Y-96340500D01*
X196999999Y-96640500D02*
X196766666Y-96640500D01*
X196666666Y-97007166D02*
X196999999Y-97007166D01*
X196999999Y-97007166D02*
X196999999Y-96307166D01*
X196999999Y-96307166D02*
X196666666Y-96307166D01*
D11*
X175630952Y-67957500D02*
X175678571Y-67933690D01*
X175678571Y-67933690D02*
X175750000Y-67933690D01*
X175750000Y-67933690D02*
X175821428Y-67957500D01*
X175821428Y-67957500D02*
X175869047Y-68005119D01*
X175869047Y-68005119D02*
X175892857Y-68052738D01*
X175892857Y-68052738D02*
X175916666Y-68147976D01*
X175916666Y-68147976D02*
X175916666Y-68219404D01*
X175916666Y-68219404D02*
X175892857Y-68314642D01*
X175892857Y-68314642D02*
X175869047Y-68362261D01*
X175869047Y-68362261D02*
X175821428Y-68409880D01*
X175821428Y-68409880D02*
X175750000Y-68433690D01*
X175750000Y-68433690D02*
X175702381Y-68433690D01*
X175702381Y-68433690D02*
X175630952Y-68409880D01*
X175630952Y-68409880D02*
X175607143Y-68386071D01*
X175607143Y-68386071D02*
X175607143Y-68219404D01*
X175607143Y-68219404D02*
X175702381Y-68219404D01*
X175392857Y-68433690D02*
X175392857Y-67933690D01*
X175392857Y-67933690D02*
X175107143Y-68433690D01*
X175107143Y-68433690D02*
X175107143Y-67933690D01*
X174869047Y-68433690D02*
X174869047Y-67933690D01*
X174869047Y-67933690D02*
X174749999Y-67933690D01*
X174749999Y-67933690D02*
X174678571Y-67957500D01*
X174678571Y-67957500D02*
X174630952Y-68005119D01*
X174630952Y-68005119D02*
X174607142Y-68052738D01*
X174607142Y-68052738D02*
X174583333Y-68147976D01*
X174583333Y-68147976D02*
X174583333Y-68219404D01*
X174583333Y-68219404D02*
X174607142Y-68314642D01*
X174607142Y-68314642D02*
X174630952Y-68362261D01*
X174630952Y-68362261D02*
X174678571Y-68409880D01*
X174678571Y-68409880D02*
X174749999Y-68433690D01*
X174749999Y-68433690D02*
X174869047Y-68433690D01*
X173130952Y-67957500D02*
X173178571Y-67933690D01*
X173178571Y-67933690D02*
X173250000Y-67933690D01*
X173250000Y-67933690D02*
X173321428Y-67957500D01*
X173321428Y-67957500D02*
X173369047Y-68005119D01*
X173369047Y-68005119D02*
X173392857Y-68052738D01*
X173392857Y-68052738D02*
X173416666Y-68147976D01*
X173416666Y-68147976D02*
X173416666Y-68219404D01*
X173416666Y-68219404D02*
X173392857Y-68314642D01*
X173392857Y-68314642D02*
X173369047Y-68362261D01*
X173369047Y-68362261D02*
X173321428Y-68409880D01*
X173321428Y-68409880D02*
X173250000Y-68433690D01*
X173250000Y-68433690D02*
X173202381Y-68433690D01*
X173202381Y-68433690D02*
X173130952Y-68409880D01*
X173130952Y-68409880D02*
X173107143Y-68386071D01*
X173107143Y-68386071D02*
X173107143Y-68219404D01*
X173107143Y-68219404D02*
X173202381Y-68219404D01*
X172892857Y-68433690D02*
X172892857Y-67933690D01*
X172892857Y-67933690D02*
X172607143Y-68433690D01*
X172607143Y-68433690D02*
X172607143Y-67933690D01*
X172369047Y-68433690D02*
X172369047Y-67933690D01*
X172369047Y-67933690D02*
X172249999Y-67933690D01*
X172249999Y-67933690D02*
X172178571Y-67957500D01*
X172178571Y-67957500D02*
X172130952Y-68005119D01*
X172130952Y-68005119D02*
X172107142Y-68052738D01*
X172107142Y-68052738D02*
X172083333Y-68147976D01*
X172083333Y-68147976D02*
X172083333Y-68219404D01*
X172083333Y-68219404D02*
X172107142Y-68314642D01*
X172107142Y-68314642D02*
X172130952Y-68362261D01*
X172130952Y-68362261D02*
X172178571Y-68409880D01*
X172178571Y-68409880D02*
X172249999Y-68433690D01*
X172249999Y-68433690D02*
X172369047Y-68433690D01*
X170380952Y-67957500D02*
X170428571Y-67933690D01*
X170428571Y-67933690D02*
X170500000Y-67933690D01*
X170500000Y-67933690D02*
X170571428Y-67957500D01*
X170571428Y-67957500D02*
X170619047Y-68005119D01*
X170619047Y-68005119D02*
X170642857Y-68052738D01*
X170642857Y-68052738D02*
X170666666Y-68147976D01*
X170666666Y-68147976D02*
X170666666Y-68219404D01*
X170666666Y-68219404D02*
X170642857Y-68314642D01*
X170642857Y-68314642D02*
X170619047Y-68362261D01*
X170619047Y-68362261D02*
X170571428Y-68409880D01*
X170571428Y-68409880D02*
X170500000Y-68433690D01*
X170500000Y-68433690D02*
X170452381Y-68433690D01*
X170452381Y-68433690D02*
X170380952Y-68409880D01*
X170380952Y-68409880D02*
X170357143Y-68386071D01*
X170357143Y-68386071D02*
X170357143Y-68219404D01*
X170357143Y-68219404D02*
X170452381Y-68219404D01*
X170142857Y-68433690D02*
X170142857Y-67933690D01*
X170142857Y-67933690D02*
X169857143Y-68433690D01*
X169857143Y-68433690D02*
X169857143Y-67933690D01*
X169619047Y-68433690D02*
X169619047Y-67933690D01*
X169619047Y-67933690D02*
X169499999Y-67933690D01*
X169499999Y-67933690D02*
X169428571Y-67957500D01*
X169428571Y-67957500D02*
X169380952Y-68005119D01*
X169380952Y-68005119D02*
X169357142Y-68052738D01*
X169357142Y-68052738D02*
X169333333Y-68147976D01*
X169333333Y-68147976D02*
X169333333Y-68219404D01*
X169333333Y-68219404D02*
X169357142Y-68314642D01*
X169357142Y-68314642D02*
X169380952Y-68362261D01*
X169380952Y-68362261D02*
X169428571Y-68409880D01*
X169428571Y-68409880D02*
X169499999Y-68433690D01*
X169499999Y-68433690D02*
X169619047Y-68433690D01*
X167880952Y-67957500D02*
X167928571Y-67933690D01*
X167928571Y-67933690D02*
X168000000Y-67933690D01*
X168000000Y-67933690D02*
X168071428Y-67957500D01*
X168071428Y-67957500D02*
X168119047Y-68005119D01*
X168119047Y-68005119D02*
X168142857Y-68052738D01*
X168142857Y-68052738D02*
X168166666Y-68147976D01*
X168166666Y-68147976D02*
X168166666Y-68219404D01*
X168166666Y-68219404D02*
X168142857Y-68314642D01*
X168142857Y-68314642D02*
X168119047Y-68362261D01*
X168119047Y-68362261D02*
X168071428Y-68409880D01*
X168071428Y-68409880D02*
X168000000Y-68433690D01*
X168000000Y-68433690D02*
X167952381Y-68433690D01*
X167952381Y-68433690D02*
X167880952Y-68409880D01*
X167880952Y-68409880D02*
X167857143Y-68386071D01*
X167857143Y-68386071D02*
X167857143Y-68219404D01*
X167857143Y-68219404D02*
X167952381Y-68219404D01*
X167642857Y-68433690D02*
X167642857Y-67933690D01*
X167642857Y-67933690D02*
X167357143Y-68433690D01*
X167357143Y-68433690D02*
X167357143Y-67933690D01*
X167119047Y-68433690D02*
X167119047Y-67933690D01*
X167119047Y-67933690D02*
X166999999Y-67933690D01*
X166999999Y-67933690D02*
X166928571Y-67957500D01*
X166928571Y-67957500D02*
X166880952Y-68005119D01*
X166880952Y-68005119D02*
X166857142Y-68052738D01*
X166857142Y-68052738D02*
X166833333Y-68147976D01*
X166833333Y-68147976D02*
X166833333Y-68219404D01*
X166833333Y-68219404D02*
X166857142Y-68314642D01*
X166857142Y-68314642D02*
X166880952Y-68362261D01*
X166880952Y-68362261D02*
X166928571Y-68409880D01*
X166928571Y-68409880D02*
X166999999Y-68433690D01*
X166999999Y-68433690D02*
X167119047Y-68433690D01*
X165380952Y-67957500D02*
X165428571Y-67933690D01*
X165428571Y-67933690D02*
X165500000Y-67933690D01*
X165500000Y-67933690D02*
X165571428Y-67957500D01*
X165571428Y-67957500D02*
X165619047Y-68005119D01*
X165619047Y-68005119D02*
X165642857Y-68052738D01*
X165642857Y-68052738D02*
X165666666Y-68147976D01*
X165666666Y-68147976D02*
X165666666Y-68219404D01*
X165666666Y-68219404D02*
X165642857Y-68314642D01*
X165642857Y-68314642D02*
X165619047Y-68362261D01*
X165619047Y-68362261D02*
X165571428Y-68409880D01*
X165571428Y-68409880D02*
X165500000Y-68433690D01*
X165500000Y-68433690D02*
X165452381Y-68433690D01*
X165452381Y-68433690D02*
X165380952Y-68409880D01*
X165380952Y-68409880D02*
X165357143Y-68386071D01*
X165357143Y-68386071D02*
X165357143Y-68219404D01*
X165357143Y-68219404D02*
X165452381Y-68219404D01*
X165142857Y-68433690D02*
X165142857Y-67933690D01*
X165142857Y-67933690D02*
X164857143Y-68433690D01*
X164857143Y-68433690D02*
X164857143Y-67933690D01*
X164619047Y-68433690D02*
X164619047Y-67933690D01*
X164619047Y-67933690D02*
X164499999Y-67933690D01*
X164499999Y-67933690D02*
X164428571Y-67957500D01*
X164428571Y-67957500D02*
X164380952Y-68005119D01*
X164380952Y-68005119D02*
X164357142Y-68052738D01*
X164357142Y-68052738D02*
X164333333Y-68147976D01*
X164333333Y-68147976D02*
X164333333Y-68219404D01*
X164333333Y-68219404D02*
X164357142Y-68314642D01*
X164357142Y-68314642D02*
X164380952Y-68362261D01*
X164380952Y-68362261D02*
X164428571Y-68409880D01*
X164428571Y-68409880D02*
X164499999Y-68433690D01*
X164499999Y-68433690D02*
X164619047Y-68433690D01*
X162880952Y-67957500D02*
X162928571Y-67933690D01*
X162928571Y-67933690D02*
X163000000Y-67933690D01*
X163000000Y-67933690D02*
X163071428Y-67957500D01*
X163071428Y-67957500D02*
X163119047Y-68005119D01*
X163119047Y-68005119D02*
X163142857Y-68052738D01*
X163142857Y-68052738D02*
X163166666Y-68147976D01*
X163166666Y-68147976D02*
X163166666Y-68219404D01*
X163166666Y-68219404D02*
X163142857Y-68314642D01*
X163142857Y-68314642D02*
X163119047Y-68362261D01*
X163119047Y-68362261D02*
X163071428Y-68409880D01*
X163071428Y-68409880D02*
X163000000Y-68433690D01*
X163000000Y-68433690D02*
X162952381Y-68433690D01*
X162952381Y-68433690D02*
X162880952Y-68409880D01*
X162880952Y-68409880D02*
X162857143Y-68386071D01*
X162857143Y-68386071D02*
X162857143Y-68219404D01*
X162857143Y-68219404D02*
X162952381Y-68219404D01*
X162642857Y-68433690D02*
X162642857Y-67933690D01*
X162642857Y-67933690D02*
X162357143Y-68433690D01*
X162357143Y-68433690D02*
X162357143Y-67933690D01*
X162119047Y-68433690D02*
X162119047Y-67933690D01*
X162119047Y-67933690D02*
X161999999Y-67933690D01*
X161999999Y-67933690D02*
X161928571Y-67957500D01*
X161928571Y-67957500D02*
X161880952Y-68005119D01*
X161880952Y-68005119D02*
X161857142Y-68052738D01*
X161857142Y-68052738D02*
X161833333Y-68147976D01*
X161833333Y-68147976D02*
X161833333Y-68219404D01*
X161833333Y-68219404D02*
X161857142Y-68314642D01*
X161857142Y-68314642D02*
X161880952Y-68362261D01*
X161880952Y-68362261D02*
X161928571Y-68409880D01*
X161928571Y-68409880D02*
X161999999Y-68433690D01*
X161999999Y-68433690D02*
X162119047Y-68433690D01*
X160380952Y-67957500D02*
X160428571Y-67933690D01*
X160428571Y-67933690D02*
X160500000Y-67933690D01*
X160500000Y-67933690D02*
X160571428Y-67957500D01*
X160571428Y-67957500D02*
X160619047Y-68005119D01*
X160619047Y-68005119D02*
X160642857Y-68052738D01*
X160642857Y-68052738D02*
X160666666Y-68147976D01*
X160666666Y-68147976D02*
X160666666Y-68219404D01*
X160666666Y-68219404D02*
X160642857Y-68314642D01*
X160642857Y-68314642D02*
X160619047Y-68362261D01*
X160619047Y-68362261D02*
X160571428Y-68409880D01*
X160571428Y-68409880D02*
X160500000Y-68433690D01*
X160500000Y-68433690D02*
X160452381Y-68433690D01*
X160452381Y-68433690D02*
X160380952Y-68409880D01*
X160380952Y-68409880D02*
X160357143Y-68386071D01*
X160357143Y-68386071D02*
X160357143Y-68219404D01*
X160357143Y-68219404D02*
X160452381Y-68219404D01*
X160142857Y-68433690D02*
X160142857Y-67933690D01*
X160142857Y-67933690D02*
X159857143Y-68433690D01*
X159857143Y-68433690D02*
X159857143Y-67933690D01*
X159619047Y-68433690D02*
X159619047Y-67933690D01*
X159619047Y-67933690D02*
X159499999Y-67933690D01*
X159499999Y-67933690D02*
X159428571Y-67957500D01*
X159428571Y-67957500D02*
X159380952Y-68005119D01*
X159380952Y-68005119D02*
X159357142Y-68052738D01*
X159357142Y-68052738D02*
X159333333Y-68147976D01*
X159333333Y-68147976D02*
X159333333Y-68219404D01*
X159333333Y-68219404D02*
X159357142Y-68314642D01*
X159357142Y-68314642D02*
X159380952Y-68362261D01*
X159380952Y-68362261D02*
X159428571Y-68409880D01*
X159428571Y-68409880D02*
X159499999Y-68433690D01*
X159499999Y-68433690D02*
X159619047Y-68433690D01*
X157880952Y-67957500D02*
X157928571Y-67933690D01*
X157928571Y-67933690D02*
X158000000Y-67933690D01*
X158000000Y-67933690D02*
X158071428Y-67957500D01*
X158071428Y-67957500D02*
X158119047Y-68005119D01*
X158119047Y-68005119D02*
X158142857Y-68052738D01*
X158142857Y-68052738D02*
X158166666Y-68147976D01*
X158166666Y-68147976D02*
X158166666Y-68219404D01*
X158166666Y-68219404D02*
X158142857Y-68314642D01*
X158142857Y-68314642D02*
X158119047Y-68362261D01*
X158119047Y-68362261D02*
X158071428Y-68409880D01*
X158071428Y-68409880D02*
X158000000Y-68433690D01*
X158000000Y-68433690D02*
X157952381Y-68433690D01*
X157952381Y-68433690D02*
X157880952Y-68409880D01*
X157880952Y-68409880D02*
X157857143Y-68386071D01*
X157857143Y-68386071D02*
X157857143Y-68219404D01*
X157857143Y-68219404D02*
X157952381Y-68219404D01*
X157642857Y-68433690D02*
X157642857Y-67933690D01*
X157642857Y-67933690D02*
X157357143Y-68433690D01*
X157357143Y-68433690D02*
X157357143Y-67933690D01*
X157119047Y-68433690D02*
X157119047Y-67933690D01*
X157119047Y-67933690D02*
X156999999Y-67933690D01*
X156999999Y-67933690D02*
X156928571Y-67957500D01*
X156928571Y-67957500D02*
X156880952Y-68005119D01*
X156880952Y-68005119D02*
X156857142Y-68052738D01*
X156857142Y-68052738D02*
X156833333Y-68147976D01*
X156833333Y-68147976D02*
X156833333Y-68219404D01*
X156833333Y-68219404D02*
X156857142Y-68314642D01*
X156857142Y-68314642D02*
X156880952Y-68362261D01*
X156880952Y-68362261D02*
X156928571Y-68409880D01*
X156928571Y-68409880D02*
X156999999Y-68433690D01*
X156999999Y-68433690D02*
X157119047Y-68433690D01*
X155380952Y-67957500D02*
X155428571Y-67933690D01*
X155428571Y-67933690D02*
X155500000Y-67933690D01*
X155500000Y-67933690D02*
X155571428Y-67957500D01*
X155571428Y-67957500D02*
X155619047Y-68005119D01*
X155619047Y-68005119D02*
X155642857Y-68052738D01*
X155642857Y-68052738D02*
X155666666Y-68147976D01*
X155666666Y-68147976D02*
X155666666Y-68219404D01*
X155666666Y-68219404D02*
X155642857Y-68314642D01*
X155642857Y-68314642D02*
X155619047Y-68362261D01*
X155619047Y-68362261D02*
X155571428Y-68409880D01*
X155571428Y-68409880D02*
X155500000Y-68433690D01*
X155500000Y-68433690D02*
X155452381Y-68433690D01*
X155452381Y-68433690D02*
X155380952Y-68409880D01*
X155380952Y-68409880D02*
X155357143Y-68386071D01*
X155357143Y-68386071D02*
X155357143Y-68219404D01*
X155357143Y-68219404D02*
X155452381Y-68219404D01*
X155142857Y-68433690D02*
X155142857Y-67933690D01*
X155142857Y-67933690D02*
X154857143Y-68433690D01*
X154857143Y-68433690D02*
X154857143Y-67933690D01*
X154619047Y-68433690D02*
X154619047Y-67933690D01*
X154619047Y-67933690D02*
X154499999Y-67933690D01*
X154499999Y-67933690D02*
X154428571Y-67957500D01*
X154428571Y-67957500D02*
X154380952Y-68005119D01*
X154380952Y-68005119D02*
X154357142Y-68052738D01*
X154357142Y-68052738D02*
X154333333Y-68147976D01*
X154333333Y-68147976D02*
X154333333Y-68219404D01*
X154333333Y-68219404D02*
X154357142Y-68314642D01*
X154357142Y-68314642D02*
X154380952Y-68362261D01*
X154380952Y-68362261D02*
X154428571Y-68409880D01*
X154428571Y-68409880D02*
X154499999Y-68433690D01*
X154499999Y-68433690D02*
X154619047Y-68433690D01*
X153130951Y-67933690D02*
X152964285Y-68433690D01*
X152964285Y-68433690D02*
X152797618Y-67933690D01*
X152535714Y-67933690D02*
X152440476Y-67933690D01*
X152440476Y-67933690D02*
X152392857Y-67957500D01*
X152392857Y-67957500D02*
X152345238Y-68005119D01*
X152345238Y-68005119D02*
X152321428Y-68100357D01*
X152321428Y-68100357D02*
X152321428Y-68267023D01*
X152321428Y-68267023D02*
X152345238Y-68362261D01*
X152345238Y-68362261D02*
X152392857Y-68409880D01*
X152392857Y-68409880D02*
X152440476Y-68433690D01*
X152440476Y-68433690D02*
X152535714Y-68433690D01*
X152535714Y-68433690D02*
X152583333Y-68409880D01*
X152583333Y-68409880D02*
X152630952Y-68362261D01*
X152630952Y-68362261D02*
X152654761Y-68267023D01*
X152654761Y-68267023D02*
X152654761Y-68100357D01*
X152654761Y-68100357D02*
X152630952Y-68005119D01*
X152630952Y-68005119D02*
X152583333Y-67957500D01*
X152583333Y-67957500D02*
X152535714Y-67933690D01*
X152107142Y-67933690D02*
X152107142Y-68338452D01*
X152107142Y-68338452D02*
X152083332Y-68386071D01*
X152083332Y-68386071D02*
X152059523Y-68409880D01*
X152059523Y-68409880D02*
X152011904Y-68433690D01*
X152011904Y-68433690D02*
X151916666Y-68433690D01*
X151916666Y-68433690D02*
X151869047Y-68409880D01*
X151869047Y-68409880D02*
X151845237Y-68386071D01*
X151845237Y-68386071D02*
X151821428Y-68338452D01*
X151821428Y-68338452D02*
X151821428Y-67933690D01*
X151654760Y-67933690D02*
X151369046Y-67933690D01*
X151511903Y-68433690D02*
X151511903Y-67933690D01*
X170821427Y-74159880D02*
X170749999Y-74183690D01*
X170749999Y-74183690D02*
X170630951Y-74183690D01*
X170630951Y-74183690D02*
X170583332Y-74159880D01*
X170583332Y-74159880D02*
X170559523Y-74136071D01*
X170559523Y-74136071D02*
X170535713Y-74088452D01*
X170535713Y-74088452D02*
X170535713Y-74040833D01*
X170535713Y-74040833D02*
X170559523Y-73993214D01*
X170559523Y-73993214D02*
X170583332Y-73969404D01*
X170583332Y-73969404D02*
X170630951Y-73945595D01*
X170630951Y-73945595D02*
X170726189Y-73921785D01*
X170726189Y-73921785D02*
X170773808Y-73897976D01*
X170773808Y-73897976D02*
X170797618Y-73874166D01*
X170797618Y-73874166D02*
X170821427Y-73826547D01*
X170821427Y-73826547D02*
X170821427Y-73778928D01*
X170821427Y-73778928D02*
X170797618Y-73731309D01*
X170797618Y-73731309D02*
X170773808Y-73707500D01*
X170773808Y-73707500D02*
X170726189Y-73683690D01*
X170726189Y-73683690D02*
X170607142Y-73683690D01*
X170607142Y-73683690D02*
X170535713Y-73707500D01*
X170035714Y-74183690D02*
X170202380Y-73945595D01*
X170321428Y-74183690D02*
X170321428Y-73683690D01*
X170321428Y-73683690D02*
X170130952Y-73683690D01*
X170130952Y-73683690D02*
X170083333Y-73707500D01*
X170083333Y-73707500D02*
X170059523Y-73731309D01*
X170059523Y-73731309D02*
X170035714Y-73778928D01*
X170035714Y-73778928D02*
X170035714Y-73850357D01*
X170035714Y-73850357D02*
X170059523Y-73897976D01*
X170059523Y-73897976D02*
X170083333Y-73921785D01*
X170083333Y-73921785D02*
X170130952Y-73945595D01*
X170130952Y-73945595D02*
X170321428Y-73945595D01*
X169845237Y-74159880D02*
X169773809Y-74183690D01*
X169773809Y-74183690D02*
X169654761Y-74183690D01*
X169654761Y-74183690D02*
X169607142Y-74159880D01*
X169607142Y-74159880D02*
X169583333Y-74136071D01*
X169583333Y-74136071D02*
X169559523Y-74088452D01*
X169559523Y-74088452D02*
X169559523Y-74040833D01*
X169559523Y-74040833D02*
X169583333Y-73993214D01*
X169583333Y-73993214D02*
X169607142Y-73969404D01*
X169607142Y-73969404D02*
X169654761Y-73945595D01*
X169654761Y-73945595D02*
X169749999Y-73921785D01*
X169749999Y-73921785D02*
X169797618Y-73897976D01*
X169797618Y-73897976D02*
X169821428Y-73874166D01*
X169821428Y-73874166D02*
X169845237Y-73826547D01*
X169845237Y-73826547D02*
X169845237Y-73778928D01*
X169845237Y-73778928D02*
X169821428Y-73731309D01*
X169821428Y-73731309D02*
X169797618Y-73707500D01*
X169797618Y-73707500D02*
X169749999Y-73683690D01*
X169749999Y-73683690D02*
X169630952Y-73683690D01*
X169630952Y-73683690D02*
X169559523Y-73707500D01*
X169416666Y-73683690D02*
X169130952Y-73683690D01*
X169273809Y-74183690D02*
X169273809Y-73683690D01*
X168154761Y-73683690D02*
X167869047Y-73683690D01*
X168011904Y-74183690D02*
X168011904Y-73683690D01*
X167702381Y-74183690D02*
X167702381Y-73683690D01*
X167702381Y-73683690D02*
X167583333Y-73683690D01*
X167583333Y-73683690D02*
X167511905Y-73707500D01*
X167511905Y-73707500D02*
X167464286Y-73755119D01*
X167464286Y-73755119D02*
X167440476Y-73802738D01*
X167440476Y-73802738D02*
X167416667Y-73897976D01*
X167416667Y-73897976D02*
X167416667Y-73969404D01*
X167416667Y-73969404D02*
X167440476Y-74064642D01*
X167440476Y-74064642D02*
X167464286Y-74112261D01*
X167464286Y-74112261D02*
X167511905Y-74159880D01*
X167511905Y-74159880D02*
X167583333Y-74183690D01*
X167583333Y-74183690D02*
X167702381Y-74183690D01*
X167107143Y-73683690D02*
X167011905Y-73683690D01*
X167011905Y-73683690D02*
X166964286Y-73707500D01*
X166964286Y-73707500D02*
X166916667Y-73755119D01*
X166916667Y-73755119D02*
X166892857Y-73850357D01*
X166892857Y-73850357D02*
X166892857Y-74017023D01*
X166892857Y-74017023D02*
X166916667Y-74112261D01*
X166916667Y-74112261D02*
X166964286Y-74159880D01*
X166964286Y-74159880D02*
X167011905Y-74183690D01*
X167011905Y-74183690D02*
X167107143Y-74183690D01*
X167107143Y-74183690D02*
X167154762Y-74159880D01*
X167154762Y-74159880D02*
X167202381Y-74112261D01*
X167202381Y-74112261D02*
X167226190Y-74017023D01*
X167226190Y-74017023D02*
X167226190Y-73850357D01*
X167226190Y-73850357D02*
X167202381Y-73755119D01*
X167202381Y-73755119D02*
X167154762Y-73707500D01*
X167154762Y-73707500D02*
X167107143Y-73683690D01*
X163142856Y-73683690D02*
X162857142Y-73683690D01*
X162999999Y-74183690D02*
X162999999Y-73683690D01*
X162404762Y-74136071D02*
X162428571Y-74159880D01*
X162428571Y-74159880D02*
X162500000Y-74183690D01*
X162500000Y-74183690D02*
X162547619Y-74183690D01*
X162547619Y-74183690D02*
X162619047Y-74159880D01*
X162619047Y-74159880D02*
X162666666Y-74112261D01*
X162666666Y-74112261D02*
X162690476Y-74064642D01*
X162690476Y-74064642D02*
X162714285Y-73969404D01*
X162714285Y-73969404D02*
X162714285Y-73897976D01*
X162714285Y-73897976D02*
X162690476Y-73802738D01*
X162690476Y-73802738D02*
X162666666Y-73755119D01*
X162666666Y-73755119D02*
X162619047Y-73707500D01*
X162619047Y-73707500D02*
X162547619Y-73683690D01*
X162547619Y-73683690D02*
X162500000Y-73683690D01*
X162500000Y-73683690D02*
X162428571Y-73707500D01*
X162428571Y-73707500D02*
X162404762Y-73731309D01*
X162190476Y-74183690D02*
X162190476Y-73683690D01*
X161904762Y-74183690D02*
X162119047Y-73897976D01*
X161904762Y-73683690D02*
X162190476Y-73969404D01*
X160416665Y-73683690D02*
X160130951Y-73683690D01*
X160273808Y-74183690D02*
X160273808Y-73683690D01*
X159964285Y-74183690D02*
X159964285Y-73683690D01*
X159964285Y-73683690D02*
X159797618Y-74040833D01*
X159797618Y-74040833D02*
X159630952Y-73683690D01*
X159630952Y-73683690D02*
X159630952Y-74183690D01*
X159416665Y-74159880D02*
X159345237Y-74183690D01*
X159345237Y-74183690D02*
X159226189Y-74183690D01*
X159226189Y-74183690D02*
X159178570Y-74159880D01*
X159178570Y-74159880D02*
X159154761Y-74136071D01*
X159154761Y-74136071D02*
X159130951Y-74088452D01*
X159130951Y-74088452D02*
X159130951Y-74040833D01*
X159130951Y-74040833D02*
X159154761Y-73993214D01*
X159154761Y-73993214D02*
X159178570Y-73969404D01*
X159178570Y-73969404D02*
X159226189Y-73945595D01*
X159226189Y-73945595D02*
X159321427Y-73921785D01*
X159321427Y-73921785D02*
X159369046Y-73897976D01*
X159369046Y-73897976D02*
X159392856Y-73874166D01*
X159392856Y-73874166D02*
X159416665Y-73826547D01*
X159416665Y-73826547D02*
X159416665Y-73778928D01*
X159416665Y-73778928D02*
X159392856Y-73731309D01*
X159392856Y-73731309D02*
X159369046Y-73707500D01*
X159369046Y-73707500D02*
X159321427Y-73683690D01*
X159321427Y-73683690D02*
X159202380Y-73683690D01*
X159202380Y-73683690D02*
X159130951Y-73707500D01*
X157761903Y-73683690D02*
X157476189Y-73683690D01*
X157619046Y-74183690D02*
X157619046Y-73683690D01*
X157309523Y-74183690D02*
X157309523Y-73683690D01*
X157309523Y-73683690D02*
X157190475Y-73683690D01*
X157190475Y-73683690D02*
X157119047Y-73707500D01*
X157119047Y-73707500D02*
X157071428Y-73755119D01*
X157071428Y-73755119D02*
X157047618Y-73802738D01*
X157047618Y-73802738D02*
X157023809Y-73897976D01*
X157023809Y-73897976D02*
X157023809Y-73969404D01*
X157023809Y-73969404D02*
X157047618Y-74064642D01*
X157047618Y-74064642D02*
X157071428Y-74112261D01*
X157071428Y-74112261D02*
X157119047Y-74159880D01*
X157119047Y-74159880D02*
X157190475Y-74183690D01*
X157190475Y-74183690D02*
X157309523Y-74183690D01*
X156809523Y-74183690D02*
X156809523Y-73683690D01*
X155571427Y-73683690D02*
X155285713Y-73683690D01*
X155428570Y-74183690D02*
X155428570Y-73683690D01*
X154833333Y-74183690D02*
X154999999Y-73945595D01*
X155119047Y-74183690D02*
X155119047Y-73683690D01*
X155119047Y-73683690D02*
X154928571Y-73683690D01*
X154928571Y-73683690D02*
X154880952Y-73707500D01*
X154880952Y-73707500D02*
X154857142Y-73731309D01*
X154857142Y-73731309D02*
X154833333Y-73778928D01*
X154833333Y-73778928D02*
X154833333Y-73850357D01*
X154833333Y-73850357D02*
X154857142Y-73897976D01*
X154857142Y-73897976D02*
X154880952Y-73921785D01*
X154880952Y-73921785D02*
X154928571Y-73945595D01*
X154928571Y-73945595D02*
X155119047Y-73945595D01*
X154642856Y-74159880D02*
X154571428Y-74183690D01*
X154571428Y-74183690D02*
X154452380Y-74183690D01*
X154452380Y-74183690D02*
X154404761Y-74159880D01*
X154404761Y-74159880D02*
X154380952Y-74136071D01*
X154380952Y-74136071D02*
X154357142Y-74088452D01*
X154357142Y-74088452D02*
X154357142Y-74040833D01*
X154357142Y-74040833D02*
X154380952Y-73993214D01*
X154380952Y-73993214D02*
X154404761Y-73969404D01*
X154404761Y-73969404D02*
X154452380Y-73945595D01*
X154452380Y-73945595D02*
X154547618Y-73921785D01*
X154547618Y-73921785D02*
X154595237Y-73897976D01*
X154595237Y-73897976D02*
X154619047Y-73874166D01*
X154619047Y-73874166D02*
X154642856Y-73826547D01*
X154642856Y-73826547D02*
X154642856Y-73778928D01*
X154642856Y-73778928D02*
X154619047Y-73731309D01*
X154619047Y-73731309D02*
X154595237Y-73707500D01*
X154595237Y-73707500D02*
X154547618Y-73683690D01*
X154547618Y-73683690D02*
X154428571Y-73683690D01*
X154428571Y-73683690D02*
X154357142Y-73707500D01*
X154214285Y-73683690D02*
X153928571Y-73683690D01*
X154071428Y-74183690D02*
X154071428Y-73683690D01*
X152797618Y-73683690D02*
X152630952Y-74183690D01*
X152630952Y-74183690D02*
X152464285Y-73683690D01*
X152297619Y-74183690D02*
X152297619Y-73683690D01*
X152059524Y-74183690D02*
X152059524Y-73683690D01*
X152059524Y-73683690D02*
X151773810Y-74183690D01*
X151773810Y-74183690D02*
X151773810Y-73683690D01*
X175630952Y-89957500D02*
X175678571Y-89933690D01*
X175678571Y-89933690D02*
X175750000Y-89933690D01*
X175750000Y-89933690D02*
X175821428Y-89957500D01*
X175821428Y-89957500D02*
X175869047Y-90005119D01*
X175869047Y-90005119D02*
X175892857Y-90052738D01*
X175892857Y-90052738D02*
X175916666Y-90147976D01*
X175916666Y-90147976D02*
X175916666Y-90219404D01*
X175916666Y-90219404D02*
X175892857Y-90314642D01*
X175892857Y-90314642D02*
X175869047Y-90362261D01*
X175869047Y-90362261D02*
X175821428Y-90409880D01*
X175821428Y-90409880D02*
X175750000Y-90433690D01*
X175750000Y-90433690D02*
X175702381Y-90433690D01*
X175702381Y-90433690D02*
X175630952Y-90409880D01*
X175630952Y-90409880D02*
X175607143Y-90386071D01*
X175607143Y-90386071D02*
X175607143Y-90219404D01*
X175607143Y-90219404D02*
X175702381Y-90219404D01*
X175392857Y-90433690D02*
X175392857Y-89933690D01*
X175392857Y-89933690D02*
X175107143Y-90433690D01*
X175107143Y-90433690D02*
X175107143Y-89933690D01*
X174869047Y-90433690D02*
X174869047Y-89933690D01*
X174869047Y-89933690D02*
X174749999Y-89933690D01*
X174749999Y-89933690D02*
X174678571Y-89957500D01*
X174678571Y-89957500D02*
X174630952Y-90005119D01*
X174630952Y-90005119D02*
X174607142Y-90052738D01*
X174607142Y-90052738D02*
X174583333Y-90147976D01*
X174583333Y-90147976D02*
X174583333Y-90219404D01*
X174583333Y-90219404D02*
X174607142Y-90314642D01*
X174607142Y-90314642D02*
X174630952Y-90362261D01*
X174630952Y-90362261D02*
X174678571Y-90409880D01*
X174678571Y-90409880D02*
X174749999Y-90433690D01*
X174749999Y-90433690D02*
X174869047Y-90433690D01*
X168440475Y-90409880D02*
X168369047Y-90433690D01*
X168369047Y-90433690D02*
X168249999Y-90433690D01*
X168249999Y-90433690D02*
X168202380Y-90409880D01*
X168202380Y-90409880D02*
X168178571Y-90386071D01*
X168178571Y-90386071D02*
X168154761Y-90338452D01*
X168154761Y-90338452D02*
X168154761Y-90290833D01*
X168154761Y-90290833D02*
X168178571Y-90243214D01*
X168178571Y-90243214D02*
X168202380Y-90219404D01*
X168202380Y-90219404D02*
X168249999Y-90195595D01*
X168249999Y-90195595D02*
X168345237Y-90171785D01*
X168345237Y-90171785D02*
X168392856Y-90147976D01*
X168392856Y-90147976D02*
X168416666Y-90124166D01*
X168416666Y-90124166D02*
X168440475Y-90076547D01*
X168440475Y-90076547D02*
X168440475Y-90028928D01*
X168440475Y-90028928D02*
X168416666Y-89981309D01*
X168416666Y-89981309D02*
X168392856Y-89957500D01*
X168392856Y-89957500D02*
X168345237Y-89933690D01*
X168345237Y-89933690D02*
X168226190Y-89933690D01*
X168226190Y-89933690D02*
X168154761Y-89957500D01*
X167988095Y-89933690D02*
X167869047Y-90433690D01*
X167869047Y-90433690D02*
X167773809Y-90076547D01*
X167773809Y-90076547D02*
X167678571Y-90433690D01*
X167678571Y-90433690D02*
X167559524Y-89933690D01*
X167273809Y-89933690D02*
X167178571Y-89933690D01*
X167178571Y-89933690D02*
X167130952Y-89957500D01*
X167130952Y-89957500D02*
X167083333Y-90005119D01*
X167083333Y-90005119D02*
X167059523Y-90100357D01*
X167059523Y-90100357D02*
X167059523Y-90267023D01*
X167059523Y-90267023D02*
X167083333Y-90362261D01*
X167083333Y-90362261D02*
X167130952Y-90409880D01*
X167130952Y-90409880D02*
X167178571Y-90433690D01*
X167178571Y-90433690D02*
X167273809Y-90433690D01*
X167273809Y-90433690D02*
X167321428Y-90409880D01*
X167321428Y-90409880D02*
X167369047Y-90362261D01*
X167369047Y-90362261D02*
X167392856Y-90267023D01*
X167392856Y-90267023D02*
X167392856Y-90100357D01*
X167392856Y-90100357D02*
X167369047Y-90005119D01*
X167369047Y-90005119D02*
X167321428Y-89957500D01*
X167321428Y-89957500D02*
X167273809Y-89933690D01*
X171071428Y-90433690D02*
X171071428Y-89933690D01*
X171071428Y-89933690D02*
X170785714Y-90433690D01*
X170785714Y-90433690D02*
X170785714Y-89933690D01*
X170261904Y-90433690D02*
X170428570Y-90195595D01*
X170547618Y-90433690D02*
X170547618Y-89933690D01*
X170547618Y-89933690D02*
X170357142Y-89933690D01*
X170357142Y-89933690D02*
X170309523Y-89957500D01*
X170309523Y-89957500D02*
X170285713Y-89981309D01*
X170285713Y-89981309D02*
X170261904Y-90028928D01*
X170261904Y-90028928D02*
X170261904Y-90100357D01*
X170261904Y-90100357D02*
X170285713Y-90147976D01*
X170285713Y-90147976D02*
X170309523Y-90171785D01*
X170309523Y-90171785D02*
X170357142Y-90195595D01*
X170357142Y-90195595D02*
X170547618Y-90195595D01*
X170071427Y-90409880D02*
X169999999Y-90433690D01*
X169999999Y-90433690D02*
X169880951Y-90433690D01*
X169880951Y-90433690D02*
X169833332Y-90409880D01*
X169833332Y-90409880D02*
X169809523Y-90386071D01*
X169809523Y-90386071D02*
X169785713Y-90338452D01*
X169785713Y-90338452D02*
X169785713Y-90290833D01*
X169785713Y-90290833D02*
X169809523Y-90243214D01*
X169809523Y-90243214D02*
X169833332Y-90219404D01*
X169833332Y-90219404D02*
X169880951Y-90195595D01*
X169880951Y-90195595D02*
X169976189Y-90171785D01*
X169976189Y-90171785D02*
X170023808Y-90147976D01*
X170023808Y-90147976D02*
X170047618Y-90124166D01*
X170047618Y-90124166D02*
X170071427Y-90076547D01*
X170071427Y-90076547D02*
X170071427Y-90028928D01*
X170071427Y-90028928D02*
X170047618Y-89981309D01*
X170047618Y-89981309D02*
X170023808Y-89957500D01*
X170023808Y-89957500D02*
X169976189Y-89933690D01*
X169976189Y-89933690D02*
X169857142Y-89933690D01*
X169857142Y-89933690D02*
X169785713Y-89957500D01*
X169642856Y-89933690D02*
X169357142Y-89933690D01*
X169499999Y-90433690D02*
X169499999Y-89933690D01*
X173809523Y-90409880D02*
X173738095Y-90433690D01*
X173738095Y-90433690D02*
X173619047Y-90433690D01*
X173619047Y-90433690D02*
X173571428Y-90409880D01*
X173571428Y-90409880D02*
X173547619Y-90386071D01*
X173547619Y-90386071D02*
X173523809Y-90338452D01*
X173523809Y-90338452D02*
X173523809Y-90290833D01*
X173523809Y-90290833D02*
X173547619Y-90243214D01*
X173547619Y-90243214D02*
X173571428Y-90219404D01*
X173571428Y-90219404D02*
X173619047Y-90195595D01*
X173619047Y-90195595D02*
X173714285Y-90171785D01*
X173714285Y-90171785D02*
X173761904Y-90147976D01*
X173761904Y-90147976D02*
X173785714Y-90124166D01*
X173785714Y-90124166D02*
X173809523Y-90076547D01*
X173809523Y-90076547D02*
X173809523Y-90028928D01*
X173809523Y-90028928D02*
X173785714Y-89981309D01*
X173785714Y-89981309D02*
X173761904Y-89957500D01*
X173761904Y-89957500D02*
X173714285Y-89933690D01*
X173714285Y-89933690D02*
X173595238Y-89933690D01*
X173595238Y-89933690D02*
X173523809Y-89957500D01*
X173357143Y-89933690D02*
X173238095Y-90433690D01*
X173238095Y-90433690D02*
X173142857Y-90076547D01*
X173142857Y-90076547D02*
X173047619Y-90433690D01*
X173047619Y-90433690D02*
X172928572Y-89933690D01*
X172738095Y-90433690D02*
X172738095Y-89933690D01*
X172738095Y-89933690D02*
X172619047Y-89933690D01*
X172619047Y-89933690D02*
X172547619Y-89957500D01*
X172547619Y-89957500D02*
X172500000Y-90005119D01*
X172500000Y-90005119D02*
X172476190Y-90052738D01*
X172476190Y-90052738D02*
X172452381Y-90147976D01*
X172452381Y-90147976D02*
X172452381Y-90219404D01*
X172452381Y-90219404D02*
X172476190Y-90314642D01*
X172476190Y-90314642D02*
X172500000Y-90362261D01*
X172500000Y-90362261D02*
X172547619Y-90409880D01*
X172547619Y-90409880D02*
X172619047Y-90433690D01*
X172619047Y-90433690D02*
X172738095Y-90433690D01*
X172238095Y-90433690D02*
X172238095Y-89933690D01*
X171904762Y-89933690D02*
X171809524Y-89933690D01*
X171809524Y-89933690D02*
X171761905Y-89957500D01*
X171761905Y-89957500D02*
X171714286Y-90005119D01*
X171714286Y-90005119D02*
X171690476Y-90100357D01*
X171690476Y-90100357D02*
X171690476Y-90267023D01*
X171690476Y-90267023D02*
X171714286Y-90362261D01*
X171714286Y-90362261D02*
X171761905Y-90409880D01*
X171761905Y-90409880D02*
X171809524Y-90433690D01*
X171809524Y-90433690D02*
X171904762Y-90433690D01*
X171904762Y-90433690D02*
X171952381Y-90409880D01*
X171952381Y-90409880D02*
X172000000Y-90362261D01*
X172000000Y-90362261D02*
X172023809Y-90267023D01*
X172023809Y-90267023D02*
X172023809Y-90100357D01*
X172023809Y-90100357D02*
X172000000Y-90005119D01*
X172000000Y-90005119D02*
X171952381Y-89957500D01*
X171952381Y-89957500D02*
X171904762Y-89933690D01*
X178880951Y-90409880D02*
X178809523Y-90433690D01*
X178809523Y-90433690D02*
X178690475Y-90433690D01*
X178690475Y-90433690D02*
X178642856Y-90409880D01*
X178642856Y-90409880D02*
X178619047Y-90386071D01*
X178619047Y-90386071D02*
X178595237Y-90338452D01*
X178595237Y-90338452D02*
X178595237Y-90290833D01*
X178595237Y-90290833D02*
X178619047Y-90243214D01*
X178619047Y-90243214D02*
X178642856Y-90219404D01*
X178642856Y-90219404D02*
X178690475Y-90195595D01*
X178690475Y-90195595D02*
X178785713Y-90171785D01*
X178785713Y-90171785D02*
X178833332Y-90147976D01*
X178833332Y-90147976D02*
X178857142Y-90124166D01*
X178857142Y-90124166D02*
X178880951Y-90076547D01*
X178880951Y-90076547D02*
X178880951Y-90028928D01*
X178880951Y-90028928D02*
X178857142Y-89981309D01*
X178857142Y-89981309D02*
X178833332Y-89957500D01*
X178833332Y-89957500D02*
X178785713Y-89933690D01*
X178785713Y-89933690D02*
X178666666Y-89933690D01*
X178666666Y-89933690D02*
X178595237Y-89957500D01*
X178428571Y-89933690D02*
X178309523Y-90433690D01*
X178309523Y-90433690D02*
X178214285Y-90076547D01*
X178214285Y-90076547D02*
X178119047Y-90433690D01*
X178119047Y-90433690D02*
X178000000Y-89933690D01*
X177523809Y-90386071D02*
X177547618Y-90409880D01*
X177547618Y-90409880D02*
X177619047Y-90433690D01*
X177619047Y-90433690D02*
X177666666Y-90433690D01*
X177666666Y-90433690D02*
X177738094Y-90409880D01*
X177738094Y-90409880D02*
X177785713Y-90362261D01*
X177785713Y-90362261D02*
X177809523Y-90314642D01*
X177809523Y-90314642D02*
X177833332Y-90219404D01*
X177833332Y-90219404D02*
X177833332Y-90147976D01*
X177833332Y-90147976D02*
X177809523Y-90052738D01*
X177809523Y-90052738D02*
X177785713Y-90005119D01*
X177785713Y-90005119D02*
X177738094Y-89957500D01*
X177738094Y-89957500D02*
X177666666Y-89933690D01*
X177666666Y-89933690D02*
X177619047Y-89933690D01*
X177619047Y-89933690D02*
X177547618Y-89957500D01*
X177547618Y-89957500D02*
X177523809Y-89981309D01*
X177071428Y-90433690D02*
X177309523Y-90433690D01*
X177309523Y-90433690D02*
X177309523Y-89933690D01*
X176904761Y-90433690D02*
X176904761Y-89933690D01*
X176619047Y-90433690D02*
X176833332Y-90147976D01*
X176619047Y-89933690D02*
X176904761Y-90219404D01*
X180976189Y-89933690D02*
X180809523Y-90433690D01*
X180809523Y-90433690D02*
X180642856Y-89933690D01*
X180476190Y-90243214D02*
X180095238Y-90243214D01*
X180285714Y-90433690D02*
X180285714Y-90052738D01*
X181130951Y-95933690D02*
X180845237Y-95933690D01*
X180988094Y-96433690D02*
X180988094Y-95933690D01*
X180726190Y-95933690D02*
X180392857Y-96433690D01*
X180392857Y-95933690D02*
X180726190Y-96433690D01*
X180202381Y-96433690D02*
X180202381Y-95933690D01*
X180202381Y-95933690D02*
X180083333Y-95933690D01*
X180083333Y-95933690D02*
X180011905Y-95957500D01*
X180011905Y-95957500D02*
X179964286Y-96005119D01*
X179964286Y-96005119D02*
X179940476Y-96052738D01*
X179940476Y-96052738D02*
X179916667Y-96147976D01*
X179916667Y-96147976D02*
X179916667Y-96219404D01*
X179916667Y-96219404D02*
X179940476Y-96314642D01*
X179940476Y-96314642D02*
X179964286Y-96362261D01*
X179964286Y-96362261D02*
X180011905Y-96409880D01*
X180011905Y-96409880D02*
X180083333Y-96433690D01*
X180083333Y-96433690D02*
X180202381Y-96433690D01*
X178083333Y-96433690D02*
X178249999Y-96195595D01*
X178369047Y-96433690D02*
X178369047Y-95933690D01*
X178369047Y-95933690D02*
X178178571Y-95933690D01*
X178178571Y-95933690D02*
X178130952Y-95957500D01*
X178130952Y-95957500D02*
X178107142Y-95981309D01*
X178107142Y-95981309D02*
X178083333Y-96028928D01*
X178083333Y-96028928D02*
X178083333Y-96100357D01*
X178083333Y-96100357D02*
X178107142Y-96147976D01*
X178107142Y-96147976D02*
X178130952Y-96171785D01*
X178130952Y-96171785D02*
X178178571Y-96195595D01*
X178178571Y-96195595D02*
X178369047Y-96195595D01*
X177916666Y-95933690D02*
X177583333Y-96433690D01*
X177583333Y-95933690D02*
X177916666Y-96433690D01*
X177392857Y-96433690D02*
X177392857Y-95933690D01*
X177392857Y-95933690D02*
X177273809Y-95933690D01*
X177273809Y-95933690D02*
X177202381Y-95957500D01*
X177202381Y-95957500D02*
X177154762Y-96005119D01*
X177154762Y-96005119D02*
X177130952Y-96052738D01*
X177130952Y-96052738D02*
X177107143Y-96147976D01*
X177107143Y-96147976D02*
X177107143Y-96219404D01*
X177107143Y-96219404D02*
X177130952Y-96314642D01*
X177130952Y-96314642D02*
X177154762Y-96362261D01*
X177154762Y-96362261D02*
X177202381Y-96409880D01*
X177202381Y-96409880D02*
X177273809Y-96433690D01*
X177273809Y-96433690D02*
X177392857Y-96433690D01*
X175630952Y-95957500D02*
X175678571Y-95933690D01*
X175678571Y-95933690D02*
X175750000Y-95933690D01*
X175750000Y-95933690D02*
X175821428Y-95957500D01*
X175821428Y-95957500D02*
X175869047Y-96005119D01*
X175869047Y-96005119D02*
X175892857Y-96052738D01*
X175892857Y-96052738D02*
X175916666Y-96147976D01*
X175916666Y-96147976D02*
X175916666Y-96219404D01*
X175916666Y-96219404D02*
X175892857Y-96314642D01*
X175892857Y-96314642D02*
X175869047Y-96362261D01*
X175869047Y-96362261D02*
X175821428Y-96409880D01*
X175821428Y-96409880D02*
X175750000Y-96433690D01*
X175750000Y-96433690D02*
X175702381Y-96433690D01*
X175702381Y-96433690D02*
X175630952Y-96409880D01*
X175630952Y-96409880D02*
X175607143Y-96386071D01*
X175607143Y-96386071D02*
X175607143Y-96219404D01*
X175607143Y-96219404D02*
X175702381Y-96219404D01*
X175392857Y-96433690D02*
X175392857Y-95933690D01*
X175392857Y-95933690D02*
X175107143Y-96433690D01*
X175107143Y-96433690D02*
X175107143Y-95933690D01*
X174869047Y-96433690D02*
X174869047Y-95933690D01*
X174869047Y-95933690D02*
X174749999Y-95933690D01*
X174749999Y-95933690D02*
X174678571Y-95957500D01*
X174678571Y-95957500D02*
X174630952Y-96005119D01*
X174630952Y-96005119D02*
X174607142Y-96052738D01*
X174607142Y-96052738D02*
X174583333Y-96147976D01*
X174583333Y-96147976D02*
X174583333Y-96219404D01*
X174583333Y-96219404D02*
X174607142Y-96314642D01*
X174607142Y-96314642D02*
X174630952Y-96362261D01*
X174630952Y-96362261D02*
X174678571Y-96409880D01*
X174678571Y-96409880D02*
X174749999Y-96433690D01*
X174749999Y-96433690D02*
X174869047Y-96433690D01*
X173345237Y-96409880D02*
X173273809Y-96433690D01*
X173273809Y-96433690D02*
X173154761Y-96433690D01*
X173154761Y-96433690D02*
X173107142Y-96409880D01*
X173107142Y-96409880D02*
X173083333Y-96386071D01*
X173083333Y-96386071D02*
X173059523Y-96338452D01*
X173059523Y-96338452D02*
X173059523Y-96290833D01*
X173059523Y-96290833D02*
X173083333Y-96243214D01*
X173083333Y-96243214D02*
X173107142Y-96219404D01*
X173107142Y-96219404D02*
X173154761Y-96195595D01*
X173154761Y-96195595D02*
X173249999Y-96171785D01*
X173249999Y-96171785D02*
X173297618Y-96147976D01*
X173297618Y-96147976D02*
X173321428Y-96124166D01*
X173321428Y-96124166D02*
X173345237Y-96076547D01*
X173345237Y-96076547D02*
X173345237Y-96028928D01*
X173345237Y-96028928D02*
X173321428Y-95981309D01*
X173321428Y-95981309D02*
X173297618Y-95957500D01*
X173297618Y-95957500D02*
X173249999Y-95933690D01*
X173249999Y-95933690D02*
X173130952Y-95933690D01*
X173130952Y-95933690D02*
X173059523Y-95957500D01*
X172559524Y-96386071D02*
X172583333Y-96409880D01*
X172583333Y-96409880D02*
X172654762Y-96433690D01*
X172654762Y-96433690D02*
X172702381Y-96433690D01*
X172702381Y-96433690D02*
X172773809Y-96409880D01*
X172773809Y-96409880D02*
X172821428Y-96362261D01*
X172821428Y-96362261D02*
X172845238Y-96314642D01*
X172845238Y-96314642D02*
X172869047Y-96219404D01*
X172869047Y-96219404D02*
X172869047Y-96147976D01*
X172869047Y-96147976D02*
X172845238Y-96052738D01*
X172845238Y-96052738D02*
X172821428Y-96005119D01*
X172821428Y-96005119D02*
X172773809Y-95957500D01*
X172773809Y-95957500D02*
X172702381Y-95933690D01*
X172702381Y-95933690D02*
X172654762Y-95933690D01*
X172654762Y-95933690D02*
X172583333Y-95957500D01*
X172583333Y-95957500D02*
X172559524Y-95981309D01*
X172107143Y-96433690D02*
X172345238Y-96433690D01*
X172345238Y-96433690D02*
X172345238Y-95933690D01*
X170857141Y-96409880D02*
X170785713Y-96433690D01*
X170785713Y-96433690D02*
X170666665Y-96433690D01*
X170666665Y-96433690D02*
X170619046Y-96409880D01*
X170619046Y-96409880D02*
X170595237Y-96386071D01*
X170595237Y-96386071D02*
X170571427Y-96338452D01*
X170571427Y-96338452D02*
X170571427Y-96290833D01*
X170571427Y-96290833D02*
X170595237Y-96243214D01*
X170595237Y-96243214D02*
X170619046Y-96219404D01*
X170619046Y-96219404D02*
X170666665Y-96195595D01*
X170666665Y-96195595D02*
X170761903Y-96171785D01*
X170761903Y-96171785D02*
X170809522Y-96147976D01*
X170809522Y-96147976D02*
X170833332Y-96124166D01*
X170833332Y-96124166D02*
X170857141Y-96076547D01*
X170857141Y-96076547D02*
X170857141Y-96028928D01*
X170857141Y-96028928D02*
X170833332Y-95981309D01*
X170833332Y-95981309D02*
X170809522Y-95957500D01*
X170809522Y-95957500D02*
X170761903Y-95933690D01*
X170761903Y-95933690D02*
X170642856Y-95933690D01*
X170642856Y-95933690D02*
X170571427Y-95957500D01*
X170357142Y-96433690D02*
X170357142Y-95933690D01*
X170357142Y-95933690D02*
X170238094Y-95933690D01*
X170238094Y-95933690D02*
X170166666Y-95957500D01*
X170166666Y-95957500D02*
X170119047Y-96005119D01*
X170119047Y-96005119D02*
X170095237Y-96052738D01*
X170095237Y-96052738D02*
X170071428Y-96147976D01*
X170071428Y-96147976D02*
X170071428Y-96219404D01*
X170071428Y-96219404D02*
X170095237Y-96314642D01*
X170095237Y-96314642D02*
X170119047Y-96362261D01*
X170119047Y-96362261D02*
X170166666Y-96409880D01*
X170166666Y-96409880D02*
X170238094Y-96433690D01*
X170238094Y-96433690D02*
X170357142Y-96433690D01*
X169880951Y-96290833D02*
X169642856Y-96290833D01*
X169928570Y-96433690D02*
X169761904Y-95933690D01*
X169761904Y-95933690D02*
X169595237Y-96433690D01*
X168130952Y-95957500D02*
X168178571Y-95933690D01*
X168178571Y-95933690D02*
X168250000Y-95933690D01*
X168250000Y-95933690D02*
X168321428Y-95957500D01*
X168321428Y-95957500D02*
X168369047Y-96005119D01*
X168369047Y-96005119D02*
X168392857Y-96052738D01*
X168392857Y-96052738D02*
X168416666Y-96147976D01*
X168416666Y-96147976D02*
X168416666Y-96219404D01*
X168416666Y-96219404D02*
X168392857Y-96314642D01*
X168392857Y-96314642D02*
X168369047Y-96362261D01*
X168369047Y-96362261D02*
X168321428Y-96409880D01*
X168321428Y-96409880D02*
X168250000Y-96433690D01*
X168250000Y-96433690D02*
X168202381Y-96433690D01*
X168202381Y-96433690D02*
X168130952Y-96409880D01*
X168130952Y-96409880D02*
X168107143Y-96386071D01*
X168107143Y-96386071D02*
X168107143Y-96219404D01*
X168107143Y-96219404D02*
X168202381Y-96219404D01*
X167892857Y-96433690D02*
X167892857Y-95933690D01*
X167892857Y-95933690D02*
X167607143Y-96433690D01*
X167607143Y-96433690D02*
X167607143Y-95933690D01*
X167369047Y-96433690D02*
X167369047Y-95933690D01*
X167369047Y-95933690D02*
X167249999Y-95933690D01*
X167249999Y-95933690D02*
X167178571Y-95957500D01*
X167178571Y-95957500D02*
X167130952Y-96005119D01*
X167130952Y-96005119D02*
X167107142Y-96052738D01*
X167107142Y-96052738D02*
X167083333Y-96147976D01*
X167083333Y-96147976D02*
X167083333Y-96219404D01*
X167083333Y-96219404D02*
X167107142Y-96314642D01*
X167107142Y-96314642D02*
X167130952Y-96362261D01*
X167130952Y-96362261D02*
X167178571Y-96409880D01*
X167178571Y-96409880D02*
X167249999Y-96433690D01*
X167249999Y-96433690D02*
X167369047Y-96433690D01*
X152857141Y-90290833D02*
X152619046Y-90290833D01*
X152904760Y-90433690D02*
X152738094Y-89933690D01*
X152738094Y-89933690D02*
X152571427Y-90433690D01*
X152404761Y-89933690D02*
X152404761Y-90338452D01*
X152404761Y-90338452D02*
X152380951Y-90386071D01*
X152380951Y-90386071D02*
X152357142Y-90409880D01*
X152357142Y-90409880D02*
X152309523Y-90433690D01*
X152309523Y-90433690D02*
X152214285Y-90433690D01*
X152214285Y-90433690D02*
X152166666Y-90409880D01*
X152166666Y-90409880D02*
X152142856Y-90386071D01*
X152142856Y-90386071D02*
X152119047Y-90338452D01*
X152119047Y-90338452D02*
X152119047Y-89933690D01*
X151928570Y-89933690D02*
X151595237Y-90433690D01*
X151595237Y-89933690D02*
X151928570Y-90433690D01*
X151142856Y-90433690D02*
X151428570Y-90433690D01*
X151285713Y-90433690D02*
X151285713Y-89933690D01*
X151285713Y-89933690D02*
X151333332Y-90005119D01*
X151333332Y-90005119D02*
X151380951Y-90052738D01*
X151380951Y-90052738D02*
X151428570Y-90076547D01*
X155357141Y-90290833D02*
X155119046Y-90290833D01*
X155404760Y-90433690D02*
X155238094Y-89933690D01*
X155238094Y-89933690D02*
X155071427Y-90433690D01*
X154904761Y-89933690D02*
X154904761Y-90338452D01*
X154904761Y-90338452D02*
X154880951Y-90386071D01*
X154880951Y-90386071D02*
X154857142Y-90409880D01*
X154857142Y-90409880D02*
X154809523Y-90433690D01*
X154809523Y-90433690D02*
X154714285Y-90433690D01*
X154714285Y-90433690D02*
X154666666Y-90409880D01*
X154666666Y-90409880D02*
X154642856Y-90386071D01*
X154642856Y-90386071D02*
X154619047Y-90338452D01*
X154619047Y-90338452D02*
X154619047Y-89933690D01*
X154428570Y-89933690D02*
X154095237Y-90433690D01*
X154095237Y-89933690D02*
X154428570Y-90433690D01*
X153952380Y-89933690D02*
X153642856Y-89933690D01*
X153642856Y-89933690D02*
X153809523Y-90124166D01*
X153809523Y-90124166D02*
X153738094Y-90124166D01*
X153738094Y-90124166D02*
X153690475Y-90147976D01*
X153690475Y-90147976D02*
X153666666Y-90171785D01*
X153666666Y-90171785D02*
X153642856Y-90219404D01*
X153642856Y-90219404D02*
X153642856Y-90338452D01*
X153642856Y-90338452D02*
X153666666Y-90386071D01*
X153666666Y-90386071D02*
X153690475Y-90409880D01*
X153690475Y-90409880D02*
X153738094Y-90433690D01*
X153738094Y-90433690D02*
X153880951Y-90433690D01*
X153880951Y-90433690D02*
X153928570Y-90409880D01*
X153928570Y-90409880D02*
X153952380Y-90386071D01*
X157857141Y-90290833D02*
X157619046Y-90290833D01*
X157904760Y-90433690D02*
X157738094Y-89933690D01*
X157738094Y-89933690D02*
X157571427Y-90433690D01*
X157404761Y-89933690D02*
X157404761Y-90338452D01*
X157404761Y-90338452D02*
X157380951Y-90386071D01*
X157380951Y-90386071D02*
X157357142Y-90409880D01*
X157357142Y-90409880D02*
X157309523Y-90433690D01*
X157309523Y-90433690D02*
X157214285Y-90433690D01*
X157214285Y-90433690D02*
X157166666Y-90409880D01*
X157166666Y-90409880D02*
X157142856Y-90386071D01*
X157142856Y-90386071D02*
X157119047Y-90338452D01*
X157119047Y-90338452D02*
X157119047Y-89933690D01*
X156928570Y-89933690D02*
X156595237Y-90433690D01*
X156595237Y-89933690D02*
X156928570Y-90433690D01*
X156166666Y-89933690D02*
X156404761Y-89933690D01*
X156404761Y-89933690D02*
X156428570Y-90171785D01*
X156428570Y-90171785D02*
X156404761Y-90147976D01*
X156404761Y-90147976D02*
X156357142Y-90124166D01*
X156357142Y-90124166D02*
X156238094Y-90124166D01*
X156238094Y-90124166D02*
X156190475Y-90147976D01*
X156190475Y-90147976D02*
X156166666Y-90171785D01*
X156166666Y-90171785D02*
X156142856Y-90219404D01*
X156142856Y-90219404D02*
X156142856Y-90338452D01*
X156142856Y-90338452D02*
X156166666Y-90386071D01*
X156166666Y-90386071D02*
X156190475Y-90409880D01*
X156190475Y-90409880D02*
X156238094Y-90433690D01*
X156238094Y-90433690D02*
X156357142Y-90433690D01*
X156357142Y-90433690D02*
X156404761Y-90409880D01*
X156404761Y-90409880D02*
X156428570Y-90386071D01*
X159880952Y-89957500D02*
X159928571Y-89933690D01*
X159928571Y-89933690D02*
X160000000Y-89933690D01*
X160000000Y-89933690D02*
X160071428Y-89957500D01*
X160071428Y-89957500D02*
X160119047Y-90005119D01*
X160119047Y-90005119D02*
X160142857Y-90052738D01*
X160142857Y-90052738D02*
X160166666Y-90147976D01*
X160166666Y-90147976D02*
X160166666Y-90219404D01*
X160166666Y-90219404D02*
X160142857Y-90314642D01*
X160142857Y-90314642D02*
X160119047Y-90362261D01*
X160119047Y-90362261D02*
X160071428Y-90409880D01*
X160071428Y-90409880D02*
X160000000Y-90433690D01*
X160000000Y-90433690D02*
X159952381Y-90433690D01*
X159952381Y-90433690D02*
X159880952Y-90409880D01*
X159880952Y-90409880D02*
X159857143Y-90386071D01*
X159857143Y-90386071D02*
X159857143Y-90219404D01*
X159857143Y-90219404D02*
X159952381Y-90219404D01*
X159642857Y-90433690D02*
X159642857Y-89933690D01*
X159642857Y-89933690D02*
X159357143Y-90433690D01*
X159357143Y-90433690D02*
X159357143Y-89933690D01*
X159119047Y-90433690D02*
X159119047Y-89933690D01*
X159119047Y-89933690D02*
X158999999Y-89933690D01*
X158999999Y-89933690D02*
X158928571Y-89957500D01*
X158928571Y-89957500D02*
X158880952Y-90005119D01*
X158880952Y-90005119D02*
X158857142Y-90052738D01*
X158857142Y-90052738D02*
X158833333Y-90147976D01*
X158833333Y-90147976D02*
X158833333Y-90219404D01*
X158833333Y-90219404D02*
X158857142Y-90314642D01*
X158857142Y-90314642D02*
X158880952Y-90362261D01*
X158880952Y-90362261D02*
X158928571Y-90409880D01*
X158928571Y-90409880D02*
X158999999Y-90433690D01*
X158999999Y-90433690D02*
X159119047Y-90433690D01*
X163130951Y-90243214D02*
X162749999Y-90243214D01*
X162940475Y-90433690D02*
X162940475Y-90052738D01*
X162559522Y-89933690D02*
X162249998Y-89933690D01*
X162249998Y-89933690D02*
X162416665Y-90124166D01*
X162416665Y-90124166D02*
X162345236Y-90124166D01*
X162345236Y-90124166D02*
X162297617Y-90147976D01*
X162297617Y-90147976D02*
X162273808Y-90171785D01*
X162273808Y-90171785D02*
X162249998Y-90219404D01*
X162249998Y-90219404D02*
X162249998Y-90338452D01*
X162249998Y-90338452D02*
X162273808Y-90386071D01*
X162273808Y-90386071D02*
X162297617Y-90409880D01*
X162297617Y-90409880D02*
X162345236Y-90433690D01*
X162345236Y-90433690D02*
X162488093Y-90433690D01*
X162488093Y-90433690D02*
X162535712Y-90409880D01*
X162535712Y-90409880D02*
X162559522Y-90386071D01*
X162107141Y-89933690D02*
X161940475Y-90433690D01*
X161940475Y-90433690D02*
X161773808Y-89933690D01*
X161654761Y-89933690D02*
X161345237Y-89933690D01*
X161345237Y-89933690D02*
X161511904Y-90124166D01*
X161511904Y-90124166D02*
X161440475Y-90124166D01*
X161440475Y-90124166D02*
X161392856Y-90147976D01*
X161392856Y-90147976D02*
X161369047Y-90171785D01*
X161369047Y-90171785D02*
X161345237Y-90219404D01*
X161345237Y-90219404D02*
X161345237Y-90338452D01*
X161345237Y-90338452D02*
X161369047Y-90386071D01*
X161369047Y-90386071D02*
X161392856Y-90409880D01*
X161392856Y-90409880D02*
X161440475Y-90433690D01*
X161440475Y-90433690D02*
X161583332Y-90433690D01*
X161583332Y-90433690D02*
X161630951Y-90409880D01*
X161630951Y-90409880D02*
X161654761Y-90386071D01*
X162642856Y-96243214D02*
X162261904Y-96243214D01*
X162452380Y-96433690D02*
X162452380Y-96052738D01*
X161785713Y-95933690D02*
X162023808Y-95933690D01*
X162023808Y-95933690D02*
X162047617Y-96171785D01*
X162047617Y-96171785D02*
X162023808Y-96147976D01*
X162023808Y-96147976D02*
X161976189Y-96124166D01*
X161976189Y-96124166D02*
X161857141Y-96124166D01*
X161857141Y-96124166D02*
X161809522Y-96147976D01*
X161809522Y-96147976D02*
X161785713Y-96171785D01*
X161785713Y-96171785D02*
X161761903Y-96219404D01*
X161761903Y-96219404D02*
X161761903Y-96338452D01*
X161761903Y-96338452D02*
X161785713Y-96386071D01*
X161785713Y-96386071D02*
X161809522Y-96409880D01*
X161809522Y-96409880D02*
X161857141Y-96433690D01*
X161857141Y-96433690D02*
X161976189Y-96433690D01*
X161976189Y-96433690D02*
X162023808Y-96409880D01*
X162023808Y-96409880D02*
X162047617Y-96386071D01*
X161619046Y-95933690D02*
X161452380Y-96433690D01*
X161452380Y-96433690D02*
X161285713Y-95933690D01*
X160357141Y-96290833D02*
X160119046Y-96290833D01*
X160404760Y-96433690D02*
X160238094Y-95933690D01*
X160238094Y-95933690D02*
X160071427Y-96433690D01*
X159904761Y-95933690D02*
X159904761Y-96338452D01*
X159904761Y-96338452D02*
X159880951Y-96386071D01*
X159880951Y-96386071D02*
X159857142Y-96409880D01*
X159857142Y-96409880D02*
X159809523Y-96433690D01*
X159809523Y-96433690D02*
X159714285Y-96433690D01*
X159714285Y-96433690D02*
X159666666Y-96409880D01*
X159666666Y-96409880D02*
X159642856Y-96386071D01*
X159642856Y-96386071D02*
X159619047Y-96338452D01*
X159619047Y-96338452D02*
X159619047Y-95933690D01*
X159428570Y-95933690D02*
X159095237Y-96433690D01*
X159095237Y-95933690D02*
X159428570Y-96433690D01*
X158690475Y-95933690D02*
X158785713Y-95933690D01*
X158785713Y-95933690D02*
X158833332Y-95957500D01*
X158833332Y-95957500D02*
X158857142Y-95981309D01*
X158857142Y-95981309D02*
X158904761Y-96052738D01*
X158904761Y-96052738D02*
X158928570Y-96147976D01*
X158928570Y-96147976D02*
X158928570Y-96338452D01*
X158928570Y-96338452D02*
X158904761Y-96386071D01*
X158904761Y-96386071D02*
X158880951Y-96409880D01*
X158880951Y-96409880D02*
X158833332Y-96433690D01*
X158833332Y-96433690D02*
X158738094Y-96433690D01*
X158738094Y-96433690D02*
X158690475Y-96409880D01*
X158690475Y-96409880D02*
X158666666Y-96386071D01*
X158666666Y-96386071D02*
X158642856Y-96338452D01*
X158642856Y-96338452D02*
X158642856Y-96219404D01*
X158642856Y-96219404D02*
X158666666Y-96171785D01*
X158666666Y-96171785D02*
X158690475Y-96147976D01*
X158690475Y-96147976D02*
X158738094Y-96124166D01*
X158738094Y-96124166D02*
X158833332Y-96124166D01*
X158833332Y-96124166D02*
X158880951Y-96147976D01*
X158880951Y-96147976D02*
X158904761Y-96171785D01*
X158904761Y-96171785D02*
X158928570Y-96219404D01*
X157857141Y-96290833D02*
X157619046Y-96290833D01*
X157904760Y-96433690D02*
X157738094Y-95933690D01*
X157738094Y-95933690D02*
X157571427Y-96433690D01*
X157404761Y-95933690D02*
X157404761Y-96338452D01*
X157404761Y-96338452D02*
X157380951Y-96386071D01*
X157380951Y-96386071D02*
X157357142Y-96409880D01*
X157357142Y-96409880D02*
X157309523Y-96433690D01*
X157309523Y-96433690D02*
X157214285Y-96433690D01*
X157214285Y-96433690D02*
X157166666Y-96409880D01*
X157166666Y-96409880D02*
X157142856Y-96386071D01*
X157142856Y-96386071D02*
X157119047Y-96338452D01*
X157119047Y-96338452D02*
X157119047Y-95933690D01*
X156928570Y-95933690D02*
X156595237Y-96433690D01*
X156595237Y-95933690D02*
X156928570Y-96433690D01*
X156190475Y-96100357D02*
X156190475Y-96433690D01*
X156309523Y-95909880D02*
X156428570Y-96267023D01*
X156428570Y-96267023D02*
X156119047Y-96267023D01*
X155357141Y-96290833D02*
X155119046Y-96290833D01*
X155404760Y-96433690D02*
X155238094Y-95933690D01*
X155238094Y-95933690D02*
X155071427Y-96433690D01*
X154904761Y-95933690D02*
X154904761Y-96338452D01*
X154904761Y-96338452D02*
X154880951Y-96386071D01*
X154880951Y-96386071D02*
X154857142Y-96409880D01*
X154857142Y-96409880D02*
X154809523Y-96433690D01*
X154809523Y-96433690D02*
X154714285Y-96433690D01*
X154714285Y-96433690D02*
X154666666Y-96409880D01*
X154666666Y-96409880D02*
X154642856Y-96386071D01*
X154642856Y-96386071D02*
X154619047Y-96338452D01*
X154619047Y-96338452D02*
X154619047Y-95933690D01*
X154428570Y-95933690D02*
X154095237Y-96433690D01*
X154095237Y-95933690D02*
X154428570Y-96433690D01*
X153928570Y-95981309D02*
X153904761Y-95957500D01*
X153904761Y-95957500D02*
X153857142Y-95933690D01*
X153857142Y-95933690D02*
X153738094Y-95933690D01*
X153738094Y-95933690D02*
X153690475Y-95957500D01*
X153690475Y-95957500D02*
X153666666Y-95981309D01*
X153666666Y-95981309D02*
X153642856Y-96028928D01*
X153642856Y-96028928D02*
X153642856Y-96076547D01*
X153642856Y-96076547D02*
X153666666Y-96147976D01*
X153666666Y-96147976D02*
X153952380Y-96433690D01*
X153952380Y-96433690D02*
X153642856Y-96433690D01*
X152607141Y-96290833D02*
X152369046Y-96290833D01*
X152654760Y-96433690D02*
X152488094Y-95933690D01*
X152488094Y-95933690D02*
X152321427Y-96433690D01*
X152154761Y-95933690D02*
X152154761Y-96338452D01*
X152154761Y-96338452D02*
X152130951Y-96386071D01*
X152130951Y-96386071D02*
X152107142Y-96409880D01*
X152107142Y-96409880D02*
X152059523Y-96433690D01*
X152059523Y-96433690D02*
X151964285Y-96433690D01*
X151964285Y-96433690D02*
X151916666Y-96409880D01*
X151916666Y-96409880D02*
X151892856Y-96386071D01*
X151892856Y-96386071D02*
X151869047Y-96338452D01*
X151869047Y-96338452D02*
X151869047Y-95933690D01*
X151678570Y-95933690D02*
X151345237Y-96433690D01*
X151345237Y-95933690D02*
X151678570Y-96433690D01*
X151059523Y-95933690D02*
X151011904Y-95933690D01*
X151011904Y-95933690D02*
X150964285Y-95957500D01*
X150964285Y-95957500D02*
X150940475Y-95981309D01*
X150940475Y-95981309D02*
X150916666Y-96028928D01*
X150916666Y-96028928D02*
X150892856Y-96124166D01*
X150892856Y-96124166D02*
X150892856Y-96243214D01*
X150892856Y-96243214D02*
X150916666Y-96338452D01*
X150916666Y-96338452D02*
X150940475Y-96386071D01*
X150940475Y-96386071D02*
X150964285Y-96409880D01*
X150964285Y-96409880D02*
X151011904Y-96433690D01*
X151011904Y-96433690D02*
X151059523Y-96433690D01*
X151059523Y-96433690D02*
X151107142Y-96409880D01*
X151107142Y-96409880D02*
X151130951Y-96386071D01*
X151130951Y-96386071D02*
X151154761Y-96338452D01*
X151154761Y-96338452D02*
X151178570Y-96243214D01*
X151178570Y-96243214D02*
X151178570Y-96124166D01*
X151178570Y-96124166D02*
X151154761Y-96028928D01*
X151154761Y-96028928D02*
X151130951Y-95981309D01*
X151130951Y-95981309D02*
X151107142Y-95957500D01*
X151107142Y-95957500D02*
X151059523Y-95933690D01*
D12*
X186464288Y-80801071D02*
X186464288Y-79301071D01*
X185821431Y-80801071D02*
X185821431Y-80015357D01*
X185821431Y-80015357D02*
X185892859Y-79872500D01*
X185892859Y-79872500D02*
X186035716Y-79801071D01*
X186035716Y-79801071D02*
X186250002Y-79801071D01*
X186250002Y-79801071D02*
X186392859Y-79872500D01*
X186392859Y-79872500D02*
X186464288Y-79943928D01*
X185321430Y-79801071D02*
X184750002Y-79801071D01*
X185107145Y-79301071D02*
X185107145Y-80586785D01*
X185107145Y-80586785D02*
X185035716Y-80729642D01*
X185035716Y-80729642D02*
X184892859Y-80801071D01*
X184892859Y-80801071D02*
X184750002Y-80801071D01*
X184464287Y-79801071D02*
X183892859Y-79801071D01*
X184250002Y-79301071D02*
X184250002Y-80586785D01*
X184250002Y-80586785D02*
X184178573Y-80729642D01*
X184178573Y-80729642D02*
X184035716Y-80801071D01*
X184035716Y-80801071D02*
X183892859Y-80801071D01*
X183392859Y-79801071D02*
X183392859Y-81301071D01*
X183392859Y-79872500D02*
X183250002Y-79801071D01*
X183250002Y-79801071D02*
X182964287Y-79801071D01*
X182964287Y-79801071D02*
X182821430Y-79872500D01*
X182821430Y-79872500D02*
X182750002Y-79943928D01*
X182750002Y-79943928D02*
X182678573Y-80086785D01*
X182678573Y-80086785D02*
X182678573Y-80515357D01*
X182678573Y-80515357D02*
X182750002Y-80658214D01*
X182750002Y-80658214D02*
X182821430Y-80729642D01*
X182821430Y-80729642D02*
X182964287Y-80801071D01*
X182964287Y-80801071D02*
X183250002Y-80801071D01*
X183250002Y-80801071D02*
X183392859Y-80729642D01*
X182035716Y-80658214D02*
X181964287Y-80729642D01*
X181964287Y-80729642D02*
X182035716Y-80801071D01*
X182035716Y-80801071D02*
X182107144Y-80729642D01*
X182107144Y-80729642D02*
X182035716Y-80658214D01*
X182035716Y-80658214D02*
X182035716Y-80801071D01*
X182035716Y-79872500D02*
X181964287Y-79943928D01*
X181964287Y-79943928D02*
X182035716Y-80015357D01*
X182035716Y-80015357D02*
X182107144Y-79943928D01*
X182107144Y-79943928D02*
X182035716Y-79872500D01*
X182035716Y-79872500D02*
X182035716Y-80015357D01*
X180250001Y-79229642D02*
X181535715Y-81158214D01*
X178678572Y-79229642D02*
X179964286Y-81158214D01*
X177535715Y-79801071D02*
X177535715Y-81015357D01*
X177535715Y-81015357D02*
X177607143Y-81158214D01*
X177607143Y-81158214D02*
X177678572Y-81229642D01*
X177678572Y-81229642D02*
X177821429Y-81301071D01*
X177821429Y-81301071D02*
X178035715Y-81301071D01*
X178035715Y-81301071D02*
X178178572Y-81229642D01*
X177535715Y-80729642D02*
X177678572Y-80801071D01*
X177678572Y-80801071D02*
X177964286Y-80801071D01*
X177964286Y-80801071D02*
X178107143Y-80729642D01*
X178107143Y-80729642D02*
X178178572Y-80658214D01*
X178178572Y-80658214D02*
X178250000Y-80515357D01*
X178250000Y-80515357D02*
X178250000Y-80086785D01*
X178250000Y-80086785D02*
X178178572Y-79943928D01*
X178178572Y-79943928D02*
X178107143Y-79872500D01*
X178107143Y-79872500D02*
X177964286Y-79801071D01*
X177964286Y-79801071D02*
X177678572Y-79801071D01*
X177678572Y-79801071D02*
X177535715Y-79872500D01*
X176821429Y-80801071D02*
X176821429Y-79801071D01*
X176821429Y-79301071D02*
X176892857Y-79372500D01*
X176892857Y-79372500D02*
X176821429Y-79443928D01*
X176821429Y-79443928D02*
X176750000Y-79372500D01*
X176750000Y-79372500D02*
X176821429Y-79301071D01*
X176821429Y-79301071D02*
X176821429Y-79443928D01*
X176321428Y-79801071D02*
X175750000Y-79801071D01*
X176107143Y-79301071D02*
X176107143Y-80586785D01*
X176107143Y-80586785D02*
X176035714Y-80729642D01*
X176035714Y-80729642D02*
X175892857Y-80801071D01*
X175892857Y-80801071D02*
X175750000Y-80801071D01*
X175250000Y-80801071D02*
X175250000Y-79301071D01*
X174607143Y-80801071D02*
X174607143Y-80015357D01*
X174607143Y-80015357D02*
X174678571Y-79872500D01*
X174678571Y-79872500D02*
X174821428Y-79801071D01*
X174821428Y-79801071D02*
X175035714Y-79801071D01*
X175035714Y-79801071D02*
X175178571Y-79872500D01*
X175178571Y-79872500D02*
X175250000Y-79943928D01*
X173250000Y-79801071D02*
X173250000Y-80801071D01*
X173892857Y-79801071D02*
X173892857Y-80586785D01*
X173892857Y-80586785D02*
X173821428Y-80729642D01*
X173821428Y-80729642D02*
X173678571Y-80801071D01*
X173678571Y-80801071D02*
X173464285Y-80801071D01*
X173464285Y-80801071D02*
X173321428Y-80729642D01*
X173321428Y-80729642D02*
X173250000Y-80658214D01*
X172535714Y-80801071D02*
X172535714Y-79301071D01*
X172535714Y-79872500D02*
X172392857Y-79801071D01*
X172392857Y-79801071D02*
X172107142Y-79801071D01*
X172107142Y-79801071D02*
X171964285Y-79872500D01*
X171964285Y-79872500D02*
X171892857Y-79943928D01*
X171892857Y-79943928D02*
X171821428Y-80086785D01*
X171821428Y-80086785D02*
X171821428Y-80515357D01*
X171821428Y-80515357D02*
X171892857Y-80658214D01*
X171892857Y-80658214D02*
X171964285Y-80729642D01*
X171964285Y-80729642D02*
X172107142Y-80801071D01*
X172107142Y-80801071D02*
X172392857Y-80801071D01*
X172392857Y-80801071D02*
X172535714Y-80729642D01*
X171178571Y-80658214D02*
X171107142Y-80729642D01*
X171107142Y-80729642D02*
X171178571Y-80801071D01*
X171178571Y-80801071D02*
X171249999Y-80729642D01*
X171249999Y-80729642D02*
X171178571Y-80658214D01*
X171178571Y-80658214D02*
X171178571Y-80801071D01*
X169821428Y-80729642D02*
X169964285Y-80801071D01*
X169964285Y-80801071D02*
X170249999Y-80801071D01*
X170249999Y-80801071D02*
X170392856Y-80729642D01*
X170392856Y-80729642D02*
X170464285Y-80658214D01*
X170464285Y-80658214D02*
X170535713Y-80515357D01*
X170535713Y-80515357D02*
X170535713Y-80086785D01*
X170535713Y-80086785D02*
X170464285Y-79943928D01*
X170464285Y-79943928D02*
X170392856Y-79872500D01*
X170392856Y-79872500D02*
X170249999Y-79801071D01*
X170249999Y-79801071D02*
X169964285Y-79801071D01*
X169964285Y-79801071D02*
X169821428Y-79872500D01*
X168964285Y-80801071D02*
X169107142Y-80729642D01*
X169107142Y-80729642D02*
X169178571Y-80658214D01*
X169178571Y-80658214D02*
X169249999Y-80515357D01*
X169249999Y-80515357D02*
X169249999Y-80086785D01*
X169249999Y-80086785D02*
X169178571Y-79943928D01*
X169178571Y-79943928D02*
X169107142Y-79872500D01*
X169107142Y-79872500D02*
X168964285Y-79801071D01*
X168964285Y-79801071D02*
X168749999Y-79801071D01*
X168749999Y-79801071D02*
X168607142Y-79872500D01*
X168607142Y-79872500D02*
X168535714Y-79943928D01*
X168535714Y-79943928D02*
X168464285Y-80086785D01*
X168464285Y-80086785D02*
X168464285Y-80515357D01*
X168464285Y-80515357D02*
X168535714Y-80658214D01*
X168535714Y-80658214D02*
X168607142Y-80729642D01*
X168607142Y-80729642D02*
X168749999Y-80801071D01*
X168749999Y-80801071D02*
X168964285Y-80801071D01*
X167821428Y-80801071D02*
X167821428Y-79801071D01*
X167821428Y-79943928D02*
X167749999Y-79872500D01*
X167749999Y-79872500D02*
X167607142Y-79801071D01*
X167607142Y-79801071D02*
X167392856Y-79801071D01*
X167392856Y-79801071D02*
X167249999Y-79872500D01*
X167249999Y-79872500D02*
X167178571Y-80015357D01*
X167178571Y-80015357D02*
X167178571Y-80801071D01*
X167178571Y-80015357D02*
X167107142Y-79872500D01*
X167107142Y-79872500D02*
X166964285Y-79801071D01*
X166964285Y-79801071D02*
X166749999Y-79801071D01*
X166749999Y-79801071D02*
X166607142Y-79872500D01*
X166607142Y-79872500D02*
X166535713Y-80015357D01*
X166535713Y-80015357D02*
X166535713Y-80801071D01*
X164749999Y-79229642D02*
X166035713Y-81158214D01*
X164035713Y-79943928D02*
X164178570Y-79872500D01*
X164178570Y-79872500D02*
X164249999Y-79801071D01*
X164249999Y-79801071D02*
X164321427Y-79658214D01*
X164321427Y-79658214D02*
X164321427Y-79586785D01*
X164321427Y-79586785D02*
X164249999Y-79443928D01*
X164249999Y-79443928D02*
X164178570Y-79372500D01*
X164178570Y-79372500D02*
X164035713Y-79301071D01*
X164035713Y-79301071D02*
X163749999Y-79301071D01*
X163749999Y-79301071D02*
X163607142Y-79372500D01*
X163607142Y-79372500D02*
X163535713Y-79443928D01*
X163535713Y-79443928D02*
X163464284Y-79586785D01*
X163464284Y-79586785D02*
X163464284Y-79658214D01*
X163464284Y-79658214D02*
X163535713Y-79801071D01*
X163535713Y-79801071D02*
X163607142Y-79872500D01*
X163607142Y-79872500D02*
X163749999Y-79943928D01*
X163749999Y-79943928D02*
X164035713Y-79943928D01*
X164035713Y-79943928D02*
X164178570Y-80015357D01*
X164178570Y-80015357D02*
X164249999Y-80086785D01*
X164249999Y-80086785D02*
X164321427Y-80229642D01*
X164321427Y-80229642D02*
X164321427Y-80515357D01*
X164321427Y-80515357D02*
X164249999Y-80658214D01*
X164249999Y-80658214D02*
X164178570Y-80729642D01*
X164178570Y-80729642D02*
X164035713Y-80801071D01*
X164035713Y-80801071D02*
X163749999Y-80801071D01*
X163749999Y-80801071D02*
X163607142Y-80729642D01*
X163607142Y-80729642D02*
X163535713Y-80658214D01*
X163535713Y-80658214D02*
X163464284Y-80515357D01*
X163464284Y-80515357D02*
X163464284Y-80229642D01*
X163464284Y-80229642D02*
X163535713Y-80086785D01*
X163535713Y-80086785D02*
X163607142Y-80015357D01*
X163607142Y-80015357D02*
X163749999Y-79943928D01*
X162821428Y-80801071D02*
X162821428Y-79301071D01*
X162821428Y-79872500D02*
X162678571Y-79801071D01*
X162678571Y-79801071D02*
X162392856Y-79801071D01*
X162392856Y-79801071D02*
X162249999Y-79872500D01*
X162249999Y-79872500D02*
X162178571Y-79943928D01*
X162178571Y-79943928D02*
X162107142Y-80086785D01*
X162107142Y-80086785D02*
X162107142Y-80515357D01*
X162107142Y-80515357D02*
X162178571Y-80658214D01*
X162178571Y-80658214D02*
X162249999Y-80729642D01*
X162249999Y-80729642D02*
X162392856Y-80801071D01*
X162392856Y-80801071D02*
X162678571Y-80801071D01*
X162678571Y-80801071D02*
X162821428Y-80729642D01*
X161464285Y-80801071D02*
X161464285Y-79801071D01*
X161464285Y-79301071D02*
X161535713Y-79372500D01*
X161535713Y-79372500D02*
X161464285Y-79443928D01*
X161464285Y-79443928D02*
X161392856Y-79372500D01*
X161392856Y-79372500D02*
X161464285Y-79301071D01*
X161464285Y-79301071D02*
X161464285Y-79443928D01*
X160964284Y-79801071D02*
X160392856Y-79801071D01*
X160749999Y-79301071D02*
X160749999Y-80586785D01*
X160749999Y-80586785D02*
X160678570Y-80729642D01*
X160678570Y-80729642D02*
X160535713Y-80801071D01*
X160535713Y-80801071D02*
X160392856Y-80801071D01*
X159249999Y-79801071D02*
X159249999Y-81015357D01*
X159249999Y-81015357D02*
X159321427Y-81158214D01*
X159321427Y-81158214D02*
X159392856Y-81229642D01*
X159392856Y-81229642D02*
X159535713Y-81301071D01*
X159535713Y-81301071D02*
X159749999Y-81301071D01*
X159749999Y-81301071D02*
X159892856Y-81229642D01*
X159249999Y-80729642D02*
X159392856Y-80801071D01*
X159392856Y-80801071D02*
X159678570Y-80801071D01*
X159678570Y-80801071D02*
X159821427Y-80729642D01*
X159821427Y-80729642D02*
X159892856Y-80658214D01*
X159892856Y-80658214D02*
X159964284Y-80515357D01*
X159964284Y-80515357D02*
X159964284Y-80086785D01*
X159964284Y-80086785D02*
X159892856Y-79943928D01*
X159892856Y-79943928D02*
X159821427Y-79872500D01*
X159821427Y-79872500D02*
X159678570Y-79801071D01*
X159678570Y-79801071D02*
X159392856Y-79801071D01*
X159392856Y-79801071D02*
X159249999Y-79872500D01*
X157964284Y-80729642D02*
X158107141Y-80801071D01*
X158107141Y-80801071D02*
X158392856Y-80801071D01*
X158392856Y-80801071D02*
X158535713Y-80729642D01*
X158535713Y-80729642D02*
X158607141Y-80586785D01*
X158607141Y-80586785D02*
X158607141Y-80015357D01*
X158607141Y-80015357D02*
X158535713Y-79872500D01*
X158535713Y-79872500D02*
X158392856Y-79801071D01*
X158392856Y-79801071D02*
X158107141Y-79801071D01*
X158107141Y-79801071D02*
X157964284Y-79872500D01*
X157964284Y-79872500D02*
X157892856Y-80015357D01*
X157892856Y-80015357D02*
X157892856Y-80158214D01*
X157892856Y-80158214D02*
X158607141Y-80301071D01*
X156678570Y-80729642D02*
X156821427Y-80801071D01*
X156821427Y-80801071D02*
X157107142Y-80801071D01*
X157107142Y-80801071D02*
X157249999Y-80729642D01*
X157249999Y-80729642D02*
X157321427Y-80586785D01*
X157321427Y-80586785D02*
X157321427Y-80015357D01*
X157321427Y-80015357D02*
X157249999Y-79872500D01*
X157249999Y-79872500D02*
X157107142Y-79801071D01*
X157107142Y-79801071D02*
X156821427Y-79801071D01*
X156821427Y-79801071D02*
X156678570Y-79872500D01*
X156678570Y-79872500D02*
X156607142Y-80015357D01*
X156607142Y-80015357D02*
X156607142Y-80158214D01*
X156607142Y-80158214D02*
X157321427Y-80301071D01*
X155964285Y-80801071D02*
X155964285Y-79301071D01*
X155821428Y-80229642D02*
X155392856Y-80801071D01*
X155392856Y-79801071D02*
X155964285Y-80372500D01*
X153678570Y-79229642D02*
X154964284Y-81158214D01*
X153178570Y-80801071D02*
X153178570Y-79301071D01*
X153178570Y-79872500D02*
X153035713Y-79801071D01*
X153035713Y-79801071D02*
X152749998Y-79801071D01*
X152749998Y-79801071D02*
X152607141Y-79872500D01*
X152607141Y-79872500D02*
X152535713Y-79943928D01*
X152535713Y-79943928D02*
X152464284Y-80086785D01*
X152464284Y-80086785D02*
X152464284Y-80515357D01*
X152464284Y-80515357D02*
X152535713Y-80658214D01*
X152535713Y-80658214D02*
X152607141Y-80729642D01*
X152607141Y-80729642D02*
X152749998Y-80801071D01*
X152749998Y-80801071D02*
X153035713Y-80801071D01*
X153035713Y-80801071D02*
X153178570Y-80729642D01*
X151178570Y-79801071D02*
X151178570Y-80801071D01*
X151821427Y-79801071D02*
X151821427Y-80586785D01*
X151821427Y-80586785D02*
X151749998Y-80729642D01*
X151749998Y-80729642D02*
X151607141Y-80801071D01*
X151607141Y-80801071D02*
X151392855Y-80801071D01*
X151392855Y-80801071D02*
X151249998Y-80729642D01*
X151249998Y-80729642D02*
X151178570Y-80658214D01*
X149821427Y-79801071D02*
X149821427Y-81015357D01*
X149821427Y-81015357D02*
X149892855Y-81158214D01*
X149892855Y-81158214D02*
X149964284Y-81229642D01*
X149964284Y-81229642D02*
X150107141Y-81301071D01*
X150107141Y-81301071D02*
X150321427Y-81301071D01*
X150321427Y-81301071D02*
X150464284Y-81229642D01*
X149821427Y-80729642D02*
X149964284Y-80801071D01*
X149964284Y-80801071D02*
X150249998Y-80801071D01*
X150249998Y-80801071D02*
X150392855Y-80729642D01*
X150392855Y-80729642D02*
X150464284Y-80658214D01*
X150464284Y-80658214D02*
X150535712Y-80515357D01*
X150535712Y-80515357D02*
X150535712Y-80086785D01*
X150535712Y-80086785D02*
X150464284Y-79943928D01*
X150464284Y-79943928D02*
X150392855Y-79872500D01*
X150392855Y-79872500D02*
X150249998Y-79801071D01*
X150249998Y-79801071D02*
X149964284Y-79801071D01*
X149964284Y-79801071D02*
X149821427Y-79872500D01*
X149107141Y-80229642D02*
X147964284Y-80229642D01*
X147035712Y-80801071D02*
X147178569Y-80729642D01*
X147178569Y-80729642D02*
X147249998Y-80658214D01*
X147249998Y-80658214D02*
X147321426Y-80515357D01*
X147321426Y-80515357D02*
X147321426Y-80086785D01*
X147321426Y-80086785D02*
X147249998Y-79943928D01*
X147249998Y-79943928D02*
X147178569Y-79872500D01*
X147178569Y-79872500D02*
X147035712Y-79801071D01*
X147035712Y-79801071D02*
X146821426Y-79801071D01*
X146821426Y-79801071D02*
X146678569Y-79872500D01*
X146678569Y-79872500D02*
X146607141Y-79943928D01*
X146607141Y-79943928D02*
X146535712Y-80086785D01*
X146535712Y-80086785D02*
X146535712Y-80515357D01*
X146535712Y-80515357D02*
X146607141Y-80658214D01*
X146607141Y-80658214D02*
X146678569Y-80729642D01*
X146678569Y-80729642D02*
X146821426Y-80801071D01*
X146821426Y-80801071D02*
X147035712Y-80801071D01*
X145892855Y-80229642D02*
X144749998Y-80229642D01*
X144035712Y-80801071D02*
X144035712Y-79801071D01*
X144035712Y-79943928D02*
X143964283Y-79872500D01*
X143964283Y-79872500D02*
X143821426Y-79801071D01*
X143821426Y-79801071D02*
X143607140Y-79801071D01*
X143607140Y-79801071D02*
X143464283Y-79872500D01*
X143464283Y-79872500D02*
X143392855Y-80015357D01*
X143392855Y-80015357D02*
X143392855Y-80801071D01*
X143392855Y-80015357D02*
X143321426Y-79872500D01*
X143321426Y-79872500D02*
X143178569Y-79801071D01*
X143178569Y-79801071D02*
X142964283Y-79801071D01*
X142964283Y-79801071D02*
X142821426Y-79872500D01*
X142821426Y-79872500D02*
X142749997Y-80015357D01*
X142749997Y-80015357D02*
X142749997Y-80801071D01*
X141392855Y-80801071D02*
X141392855Y-80015357D01*
X141392855Y-80015357D02*
X141464283Y-79872500D01*
X141464283Y-79872500D02*
X141607140Y-79801071D01*
X141607140Y-79801071D02*
X141892855Y-79801071D01*
X141892855Y-79801071D02*
X142035712Y-79872500D01*
X141392855Y-80729642D02*
X141535712Y-80801071D01*
X141535712Y-80801071D02*
X141892855Y-80801071D01*
X141892855Y-80801071D02*
X142035712Y-80729642D01*
X142035712Y-80729642D02*
X142107140Y-80586785D01*
X142107140Y-80586785D02*
X142107140Y-80443928D01*
X142107140Y-80443928D02*
X142035712Y-80301071D01*
X142035712Y-80301071D02*
X141892855Y-80229642D01*
X141892855Y-80229642D02*
X141535712Y-80229642D01*
X141535712Y-80229642D02*
X141392855Y-80158214D01*
X140892854Y-79801071D02*
X140321426Y-79801071D01*
X140678569Y-79301071D02*
X140678569Y-80586785D01*
X140678569Y-80586785D02*
X140607140Y-80729642D01*
X140607140Y-80729642D02*
X140464283Y-80801071D01*
X140464283Y-80801071D02*
X140321426Y-80801071D01*
X139821426Y-80801071D02*
X139821426Y-79801071D01*
X139821426Y-79301071D02*
X139892854Y-79372500D01*
X139892854Y-79372500D02*
X139821426Y-79443928D01*
X139821426Y-79443928D02*
X139749997Y-79372500D01*
X139749997Y-79372500D02*
X139821426Y-79301071D01*
X139821426Y-79301071D02*
X139821426Y-79443928D01*
X138464283Y-80729642D02*
X138607140Y-80801071D01*
X138607140Y-80801071D02*
X138892854Y-80801071D01*
X138892854Y-80801071D02*
X139035711Y-80729642D01*
X139035711Y-80729642D02*
X139107140Y-80658214D01*
X139107140Y-80658214D02*
X139178568Y-80515357D01*
X139178568Y-80515357D02*
X139178568Y-80086785D01*
X139178568Y-80086785D02*
X139107140Y-79943928D01*
X139107140Y-79943928D02*
X139035711Y-79872500D01*
X139035711Y-79872500D02*
X138892854Y-79801071D01*
X138892854Y-79801071D02*
X138607140Y-79801071D01*
X138607140Y-79801071D02*
X138464283Y-79872500D01*
D10*
X199066666Y-93807166D02*
X198833333Y-94507166D01*
X198833333Y-94507166D02*
X198599999Y-93807166D01*
X198399999Y-94473833D02*
X198299999Y-94507166D01*
X198299999Y-94507166D02*
X198133333Y-94507166D01*
X198133333Y-94507166D02*
X198066666Y-94473833D01*
X198066666Y-94473833D02*
X198033333Y-94440500D01*
X198033333Y-94440500D02*
X197999999Y-94373833D01*
X197999999Y-94373833D02*
X197999999Y-94307166D01*
X197999999Y-94307166D02*
X198033333Y-94240500D01*
X198033333Y-94240500D02*
X198066666Y-94207166D01*
X198066666Y-94207166D02*
X198133333Y-94173833D01*
X198133333Y-94173833D02*
X198266666Y-94140500D01*
X198266666Y-94140500D02*
X198333333Y-94107166D01*
X198333333Y-94107166D02*
X198366666Y-94073833D01*
X198366666Y-94073833D02*
X198399999Y-94007166D01*
X198399999Y-94007166D02*
X198399999Y-93940500D01*
X198399999Y-93940500D02*
X198366666Y-93873833D01*
X198366666Y-93873833D02*
X198333333Y-93840500D01*
X198333333Y-93840500D02*
X198266666Y-93807166D01*
X198266666Y-93807166D02*
X198099999Y-93807166D01*
X198099999Y-93807166D02*
X197999999Y-93840500D01*
X197766666Y-93807166D02*
X197599999Y-94507166D01*
X197599999Y-94507166D02*
X197466666Y-94007166D01*
X197466666Y-94007166D02*
X197333332Y-94507166D01*
X197333332Y-94507166D02*
X197166666Y-93807166D01*
X196899999Y-94507166D02*
X196899999Y-93807166D01*
X196899999Y-93807166D02*
X196733332Y-93807166D01*
X196733332Y-93807166D02*
X196633332Y-93840500D01*
X196633332Y-93840500D02*
X196566666Y-93907166D01*
X196566666Y-93907166D02*
X196533332Y-93973833D01*
X196533332Y-93973833D02*
X196499999Y-94107166D01*
X196499999Y-94107166D02*
X196499999Y-94207166D01*
X196499999Y-94207166D02*
X196533332Y-94340500D01*
X196533332Y-94340500D02*
X196566666Y-94407166D01*
X196566666Y-94407166D02*
X196633332Y-94473833D01*
X196633332Y-94473833D02*
X196733332Y-94507166D01*
X196733332Y-94507166D02*
X196899999Y-94507166D01*
X191300000Y-94240500D02*
X190766667Y-94240500D01*
X191033333Y-94507166D02*
X191033333Y-93973833D01*
X190533333Y-93807166D02*
X190300000Y-94507166D01*
X190300000Y-94507166D02*
X190066666Y-93807166D01*
X189866666Y-94473833D02*
X189766666Y-94507166D01*
X189766666Y-94507166D02*
X189600000Y-94507166D01*
X189600000Y-94507166D02*
X189533333Y-94473833D01*
X189533333Y-94473833D02*
X189500000Y-94440500D01*
X189500000Y-94440500D02*
X189466666Y-94373833D01*
X189466666Y-94373833D02*
X189466666Y-94307166D01*
X189466666Y-94307166D02*
X189500000Y-94240500D01*
X189500000Y-94240500D02*
X189533333Y-94207166D01*
X189533333Y-94207166D02*
X189600000Y-94173833D01*
X189600000Y-94173833D02*
X189733333Y-94140500D01*
X189733333Y-94140500D02*
X189800000Y-94107166D01*
X189800000Y-94107166D02*
X189833333Y-94073833D01*
X189833333Y-94073833D02*
X189866666Y-94007166D01*
X189866666Y-94007166D02*
X189866666Y-93940500D01*
X189866666Y-93940500D02*
X189833333Y-93873833D01*
X189833333Y-93873833D02*
X189800000Y-93840500D01*
X189800000Y-93840500D02*
X189733333Y-93807166D01*
X189733333Y-93807166D02*
X189566666Y-93807166D01*
X189566666Y-93807166D02*
X189466666Y-93840500D01*
X189233333Y-93807166D02*
X189066666Y-94507166D01*
X189066666Y-94507166D02*
X188933333Y-94007166D01*
X188933333Y-94007166D02*
X188799999Y-94507166D01*
X188799999Y-94507166D02*
X188633333Y-93807166D01*
X191233332Y-91307166D02*
X190999999Y-92007166D01*
X190999999Y-92007166D02*
X190766665Y-91307166D01*
X190399999Y-91307166D02*
X190266665Y-91307166D01*
X190266665Y-91307166D02*
X190199999Y-91340500D01*
X190199999Y-91340500D02*
X190133332Y-91407166D01*
X190133332Y-91407166D02*
X190099999Y-91540500D01*
X190099999Y-91540500D02*
X190099999Y-91773833D01*
X190099999Y-91773833D02*
X190133332Y-91907166D01*
X190133332Y-91907166D02*
X190199999Y-91973833D01*
X190199999Y-91973833D02*
X190266665Y-92007166D01*
X190266665Y-92007166D02*
X190399999Y-92007166D01*
X190399999Y-92007166D02*
X190466665Y-91973833D01*
X190466665Y-91973833D02*
X190533332Y-91907166D01*
X190533332Y-91907166D02*
X190566665Y-91773833D01*
X190566665Y-91773833D02*
X190566665Y-91540500D01*
X190566665Y-91540500D02*
X190533332Y-91407166D01*
X190533332Y-91407166D02*
X190466665Y-91340500D01*
X190466665Y-91340500D02*
X190399999Y-91307166D01*
X189799999Y-91307166D02*
X189799999Y-91873833D01*
X189799999Y-91873833D02*
X189766666Y-91940500D01*
X189766666Y-91940500D02*
X189733332Y-91973833D01*
X189733332Y-91973833D02*
X189666666Y-92007166D01*
X189666666Y-92007166D02*
X189533332Y-92007166D01*
X189533332Y-92007166D02*
X189466666Y-91973833D01*
X189466666Y-91973833D02*
X189433332Y-91940500D01*
X189433332Y-91940500D02*
X189399999Y-91873833D01*
X189399999Y-91873833D02*
X189399999Y-91307166D01*
X189166666Y-91307166D02*
X188766666Y-91307166D01*
X188966666Y-92007166D02*
X188966666Y-91307166D01*
D13*
X125478629Y-84258951D02*
X125478629Y-84549237D01*
X125986629Y-84404094D02*
X125478629Y-84404094D01*
X125478629Y-84670190D02*
X125986629Y-85008857D01*
X125478629Y-85008857D02*
X125986629Y-84670190D01*
X125986629Y-85202381D02*
X125478629Y-85202381D01*
X125478629Y-85202381D02*
X125478629Y-85323333D01*
X125478629Y-85323333D02*
X125502820Y-85395905D01*
X125502820Y-85395905D02*
X125551200Y-85444286D01*
X125551200Y-85444286D02*
X125599581Y-85468476D01*
X125599581Y-85468476D02*
X125696343Y-85492667D01*
X125696343Y-85492667D02*
X125768915Y-85492667D01*
X125768915Y-85492667D02*
X125865677Y-85468476D01*
X125865677Y-85468476D02*
X125914058Y-85444286D01*
X125914058Y-85444286D02*
X125962439Y-85395905D01*
X125962439Y-85395905D02*
X125986629Y-85323333D01*
X125986629Y-85323333D02*
X125986629Y-85202381D01*
D10*
X193483333Y-67740500D02*
X192950000Y-67740500D01*
X193216666Y-68007166D02*
X193216666Y-67473833D01*
X192683333Y-67307166D02*
X192249999Y-67307166D01*
X192249999Y-67307166D02*
X192483333Y-67573833D01*
X192483333Y-67573833D02*
X192383333Y-67573833D01*
X192383333Y-67573833D02*
X192316666Y-67607166D01*
X192316666Y-67607166D02*
X192283333Y-67640500D01*
X192283333Y-67640500D02*
X192249999Y-67707166D01*
X192249999Y-67707166D02*
X192249999Y-67873833D01*
X192249999Y-67873833D02*
X192283333Y-67940500D01*
X192283333Y-67940500D02*
X192316666Y-67973833D01*
X192316666Y-67973833D02*
X192383333Y-68007166D01*
X192383333Y-68007166D02*
X192583333Y-68007166D01*
X192583333Y-68007166D02*
X192649999Y-67973833D01*
X192649999Y-67973833D02*
X192683333Y-67940500D01*
X192049999Y-67307166D02*
X191816666Y-68007166D01*
X191816666Y-68007166D02*
X191583332Y-67307166D01*
X191416666Y-67307166D02*
X190983332Y-67307166D01*
X190983332Y-67307166D02*
X191216666Y-67573833D01*
X191216666Y-67573833D02*
X191116666Y-67573833D01*
X191116666Y-67573833D02*
X191049999Y-67607166D01*
X191049999Y-67607166D02*
X191016666Y-67640500D01*
X191016666Y-67640500D02*
X190983332Y-67707166D01*
X190983332Y-67707166D02*
X190983332Y-67873833D01*
X190983332Y-67873833D02*
X191016666Y-67940500D01*
X191016666Y-67940500D02*
X191049999Y-67973833D01*
X191049999Y-67973833D02*
X191116666Y-68007166D01*
X191116666Y-68007166D02*
X191316666Y-68007166D01*
X191316666Y-68007166D02*
X191383332Y-67973833D01*
X191383332Y-67973833D02*
X191416666Y-67940500D01*
X191399999Y-96307166D02*
X191166666Y-97007166D01*
X191166666Y-97007166D02*
X190933332Y-96307166D01*
X190733332Y-96973833D02*
X190633332Y-97007166D01*
X190633332Y-97007166D02*
X190466666Y-97007166D01*
X190466666Y-97007166D02*
X190399999Y-96973833D01*
X190399999Y-96973833D02*
X190366666Y-96940500D01*
X190366666Y-96940500D02*
X190333332Y-96873833D01*
X190333332Y-96873833D02*
X190333332Y-96807166D01*
X190333332Y-96807166D02*
X190366666Y-96740500D01*
X190366666Y-96740500D02*
X190399999Y-96707166D01*
X190399999Y-96707166D02*
X190466666Y-96673833D01*
X190466666Y-96673833D02*
X190599999Y-96640500D01*
X190599999Y-96640500D02*
X190666666Y-96607166D01*
X190666666Y-96607166D02*
X190699999Y-96573833D01*
X190699999Y-96573833D02*
X190733332Y-96507166D01*
X190733332Y-96507166D02*
X190733332Y-96440500D01*
X190733332Y-96440500D02*
X190699999Y-96373833D01*
X190699999Y-96373833D02*
X190666666Y-96340500D01*
X190666666Y-96340500D02*
X190599999Y-96307166D01*
X190599999Y-96307166D02*
X190433332Y-96307166D01*
X190433332Y-96307166D02*
X190333332Y-96340500D01*
X190033332Y-96640500D02*
X189799999Y-96640500D01*
X189699999Y-97007166D02*
X190033332Y-97007166D01*
X190033332Y-97007166D02*
X190033332Y-96307166D01*
X190033332Y-96307166D02*
X189699999Y-96307166D01*
X189399999Y-97007166D02*
X189399999Y-96307166D01*
X189399999Y-96307166D02*
X188999999Y-97007166D01*
X188999999Y-97007166D02*
X188999999Y-96307166D01*
X188699999Y-96973833D02*
X188599999Y-97007166D01*
X188599999Y-97007166D02*
X188433333Y-97007166D01*
X188433333Y-97007166D02*
X188366666Y-96973833D01*
X188366666Y-96973833D02*
X188333333Y-96940500D01*
X188333333Y-96940500D02*
X188299999Y-96873833D01*
X188299999Y-96873833D02*
X188299999Y-96807166D01*
X188299999Y-96807166D02*
X188333333Y-96740500D01*
X188333333Y-96740500D02*
X188366666Y-96707166D01*
X188366666Y-96707166D02*
X188433333Y-96673833D01*
X188433333Y-96673833D02*
X188566666Y-96640500D01*
X188566666Y-96640500D02*
X188633333Y-96607166D01*
X188633333Y-96607166D02*
X188666666Y-96573833D01*
X188666666Y-96573833D02*
X188699999Y-96507166D01*
X188699999Y-96507166D02*
X188699999Y-96440500D01*
X188699999Y-96440500D02*
X188666666Y-96373833D01*
X188666666Y-96373833D02*
X188633333Y-96340500D01*
X188633333Y-96340500D02*
X188566666Y-96307166D01*
X188566666Y-96307166D02*
X188399999Y-96307166D01*
X188399999Y-96307166D02*
X188299999Y-96340500D01*
X187999999Y-96640500D02*
X187766666Y-96640500D01*
X187666666Y-97007166D02*
X187999999Y-97007166D01*
X187999999Y-97007166D02*
X187999999Y-96307166D01*
X187999999Y-96307166D02*
X187666666Y-96307166D01*
D13*
X120386629Y-80521809D02*
X120144724Y-80352475D01*
X120386629Y-80231523D02*
X119878629Y-80231523D01*
X119878629Y-80231523D02*
X119878629Y-80425047D01*
X119878629Y-80425047D02*
X119902820Y-80473428D01*
X119902820Y-80473428D02*
X119927010Y-80497618D01*
X119927010Y-80497618D02*
X119975391Y-80521809D01*
X119975391Y-80521809D02*
X120047962Y-80521809D01*
X120047962Y-80521809D02*
X120096343Y-80497618D01*
X120096343Y-80497618D02*
X120120534Y-80473428D01*
X120120534Y-80473428D02*
X120144724Y-80425047D01*
X120144724Y-80425047D02*
X120144724Y-80231523D01*
X119878629Y-80666951D02*
X119878629Y-80957237D01*
X120386629Y-80812094D02*
X119878629Y-80812094D01*
X120362439Y-81102380D02*
X120386629Y-81174952D01*
X120386629Y-81174952D02*
X120386629Y-81295904D01*
X120386629Y-81295904D02*
X120362439Y-81344285D01*
X120362439Y-81344285D02*
X120338248Y-81368476D01*
X120338248Y-81368476D02*
X120289867Y-81392666D01*
X120289867Y-81392666D02*
X120241486Y-81392666D01*
X120241486Y-81392666D02*
X120193105Y-81368476D01*
X120193105Y-81368476D02*
X120168915Y-81344285D01*
X120168915Y-81344285D02*
X120144724Y-81295904D01*
X120144724Y-81295904D02*
X120120534Y-81199142D01*
X120120534Y-81199142D02*
X120096343Y-81150761D01*
X120096343Y-81150761D02*
X120072153Y-81126571D01*
X120072153Y-81126571D02*
X120023772Y-81102380D01*
X120023772Y-81102380D02*
X119975391Y-81102380D01*
X119975391Y-81102380D02*
X119927010Y-81126571D01*
X119927010Y-81126571D02*
X119902820Y-81150761D01*
X119902820Y-81150761D02*
X119878629Y-81199142D01*
X119878629Y-81199142D02*
X119878629Y-81320095D01*
X119878629Y-81320095D02*
X119902820Y-81392666D01*
X120338248Y-83221809D02*
X120362439Y-83197618D01*
X120362439Y-83197618D02*
X120386629Y-83125047D01*
X120386629Y-83125047D02*
X120386629Y-83076666D01*
X120386629Y-83076666D02*
X120362439Y-83004094D01*
X120362439Y-83004094D02*
X120314058Y-82955713D01*
X120314058Y-82955713D02*
X120265677Y-82931523D01*
X120265677Y-82931523D02*
X120168915Y-82907332D01*
X120168915Y-82907332D02*
X120096343Y-82907332D01*
X120096343Y-82907332D02*
X119999581Y-82931523D01*
X119999581Y-82931523D02*
X119951200Y-82955713D01*
X119951200Y-82955713D02*
X119902820Y-83004094D01*
X119902820Y-83004094D02*
X119878629Y-83076666D01*
X119878629Y-83076666D02*
X119878629Y-83125047D01*
X119878629Y-83125047D02*
X119902820Y-83197618D01*
X119902820Y-83197618D02*
X119927010Y-83221809D01*
X119878629Y-83366951D02*
X119878629Y-83657237D01*
X120386629Y-83512094D02*
X119878629Y-83512094D01*
X120362439Y-83802380D02*
X120386629Y-83874952D01*
X120386629Y-83874952D02*
X120386629Y-83995904D01*
X120386629Y-83995904D02*
X120362439Y-84044285D01*
X120362439Y-84044285D02*
X120338248Y-84068476D01*
X120338248Y-84068476D02*
X120289867Y-84092666D01*
X120289867Y-84092666D02*
X120241486Y-84092666D01*
X120241486Y-84092666D02*
X120193105Y-84068476D01*
X120193105Y-84068476D02*
X120168915Y-84044285D01*
X120168915Y-84044285D02*
X120144724Y-83995904D01*
X120144724Y-83995904D02*
X120120534Y-83899142D01*
X120120534Y-83899142D02*
X120096343Y-83850761D01*
X120096343Y-83850761D02*
X120072153Y-83826571D01*
X120072153Y-83826571D02*
X120023772Y-83802380D01*
X120023772Y-83802380D02*
X119975391Y-83802380D01*
X119975391Y-83802380D02*
X119927010Y-83826571D01*
X119927010Y-83826571D02*
X119902820Y-83850761D01*
X119902820Y-83850761D02*
X119878629Y-83899142D01*
X119878629Y-83899142D02*
X119878629Y-84020095D01*
X119878629Y-84020095D02*
X119902820Y-84092666D01*
D10*
X193650000Y-72740500D02*
X193116667Y-72740500D01*
X193383333Y-73007166D02*
X193383333Y-72473833D01*
X192450000Y-72307166D02*
X192783333Y-72307166D01*
X192783333Y-72307166D02*
X192816666Y-72640500D01*
X192816666Y-72640500D02*
X192783333Y-72607166D01*
X192783333Y-72607166D02*
X192716666Y-72573833D01*
X192716666Y-72573833D02*
X192550000Y-72573833D01*
X192550000Y-72573833D02*
X192483333Y-72607166D01*
X192483333Y-72607166D02*
X192450000Y-72640500D01*
X192450000Y-72640500D02*
X192416666Y-72707166D01*
X192416666Y-72707166D02*
X192416666Y-72873833D01*
X192416666Y-72873833D02*
X192450000Y-72940500D01*
X192450000Y-72940500D02*
X192483333Y-72973833D01*
X192483333Y-72973833D02*
X192550000Y-73007166D01*
X192550000Y-73007166D02*
X192716666Y-73007166D01*
X192716666Y-73007166D02*
X192783333Y-72973833D01*
X192783333Y-72973833D02*
X192816666Y-72940500D01*
X192216666Y-72307166D02*
X191983333Y-73007166D01*
X191983333Y-73007166D02*
X191749999Y-72307166D01*
D13*
X126086629Y-81861333D02*
X125844724Y-81691999D01*
X126086629Y-81571047D02*
X125578629Y-81571047D01*
X125578629Y-81571047D02*
X125578629Y-81764571D01*
X125578629Y-81764571D02*
X125602820Y-81812952D01*
X125602820Y-81812952D02*
X125627010Y-81837142D01*
X125627010Y-81837142D02*
X125675391Y-81861333D01*
X125675391Y-81861333D02*
X125747962Y-81861333D01*
X125747962Y-81861333D02*
X125796343Y-81837142D01*
X125796343Y-81837142D02*
X125820534Y-81812952D01*
X125820534Y-81812952D02*
X125844724Y-81764571D01*
X125844724Y-81764571D02*
X125844724Y-81571047D01*
X125578629Y-82030666D02*
X126086629Y-82369333D01*
X125578629Y-82369333D02*
X126086629Y-82030666D01*
X126086629Y-82562857D02*
X125578629Y-82562857D01*
X125578629Y-82562857D02*
X125578629Y-82683809D01*
X125578629Y-82683809D02*
X125602820Y-82756381D01*
X125602820Y-82756381D02*
X125651200Y-82804762D01*
X125651200Y-82804762D02*
X125699581Y-82828952D01*
X125699581Y-82828952D02*
X125796343Y-82853143D01*
X125796343Y-82853143D02*
X125868915Y-82853143D01*
X125868915Y-82853143D02*
X125965677Y-82828952D01*
X125965677Y-82828952D02*
X126014058Y-82804762D01*
X126014058Y-82804762D02*
X126062439Y-82756381D01*
X126062439Y-82756381D02*
X126086629Y-82683809D01*
X126086629Y-82683809D02*
X126086629Y-82562857D01*
X125602820Y-76112952D02*
X125578629Y-76064571D01*
X125578629Y-76064571D02*
X125578629Y-75992000D01*
X125578629Y-75992000D02*
X125602820Y-75919428D01*
X125602820Y-75919428D02*
X125651200Y-75871047D01*
X125651200Y-75871047D02*
X125699581Y-75846857D01*
X125699581Y-75846857D02*
X125796343Y-75822666D01*
X125796343Y-75822666D02*
X125868915Y-75822666D01*
X125868915Y-75822666D02*
X125965677Y-75846857D01*
X125965677Y-75846857D02*
X126014058Y-75871047D01*
X126014058Y-75871047D02*
X126062439Y-75919428D01*
X126062439Y-75919428D02*
X126086629Y-75992000D01*
X126086629Y-75992000D02*
X126086629Y-76040381D01*
X126086629Y-76040381D02*
X126062439Y-76112952D01*
X126062439Y-76112952D02*
X126038248Y-76137143D01*
X126038248Y-76137143D02*
X125868915Y-76137143D01*
X125868915Y-76137143D02*
X125868915Y-76040381D01*
X126086629Y-76354857D02*
X125578629Y-76354857D01*
X125578629Y-76354857D02*
X126086629Y-76645143D01*
X126086629Y-76645143D02*
X125578629Y-76645143D01*
X126086629Y-76887047D02*
X125578629Y-76887047D01*
X125578629Y-76887047D02*
X125578629Y-77007999D01*
X125578629Y-77007999D02*
X125602820Y-77080571D01*
X125602820Y-77080571D02*
X125651200Y-77128952D01*
X125651200Y-77128952D02*
X125699581Y-77153142D01*
X125699581Y-77153142D02*
X125796343Y-77177333D01*
X125796343Y-77177333D02*
X125868915Y-77177333D01*
X125868915Y-77177333D02*
X125965677Y-77153142D01*
X125965677Y-77153142D02*
X126014058Y-77128952D01*
X126014058Y-77128952D02*
X126062439Y-77080571D01*
X126062439Y-77080571D02*
X126086629Y-77007999D01*
X126086629Y-77007999D02*
X126086629Y-76887047D01*
D11*
X193880951Y-69983690D02*
X193714285Y-70483690D01*
X193714285Y-70483690D02*
X193547618Y-69983690D01*
X193285714Y-69983690D02*
X193190476Y-69983690D01*
X193190476Y-69983690D02*
X193142857Y-70007500D01*
X193142857Y-70007500D02*
X193095238Y-70055119D01*
X193095238Y-70055119D02*
X193071428Y-70150357D01*
X193071428Y-70150357D02*
X193071428Y-70317023D01*
X193071428Y-70317023D02*
X193095238Y-70412261D01*
X193095238Y-70412261D02*
X193142857Y-70459880D01*
X193142857Y-70459880D02*
X193190476Y-70483690D01*
X193190476Y-70483690D02*
X193285714Y-70483690D01*
X193285714Y-70483690D02*
X193333333Y-70459880D01*
X193333333Y-70459880D02*
X193380952Y-70412261D01*
X193380952Y-70412261D02*
X193404761Y-70317023D01*
X193404761Y-70317023D02*
X193404761Y-70150357D01*
X193404761Y-70150357D02*
X193380952Y-70055119D01*
X193380952Y-70055119D02*
X193333333Y-70007500D01*
X193333333Y-70007500D02*
X193285714Y-69983690D01*
X192857142Y-69983690D02*
X192857142Y-70388452D01*
X192857142Y-70388452D02*
X192833332Y-70436071D01*
X192833332Y-70436071D02*
X192809523Y-70459880D01*
X192809523Y-70459880D02*
X192761904Y-70483690D01*
X192761904Y-70483690D02*
X192666666Y-70483690D01*
X192666666Y-70483690D02*
X192619047Y-70459880D01*
X192619047Y-70459880D02*
X192595237Y-70436071D01*
X192595237Y-70436071D02*
X192571428Y-70388452D01*
X192571428Y-70388452D02*
X192571428Y-69983690D01*
X192404760Y-69983690D02*
X192119046Y-69983690D01*
X192261903Y-70483690D02*
X192261903Y-69983690D01*
G36*
X128111501Y-73376476D02*
G01*
X128192167Y-73406440D01*
X128225714Y-73428954D01*
X128259687Y-73461212D01*
X128283919Y-73502246D01*
X128300001Y-73558108D01*
X128309521Y-73634851D01*
X128314068Y-73738525D01*
X128315231Y-73875184D01*
X128315003Y-73945805D01*
X128313860Y-74042308D01*
X128311919Y-74119323D01*
X128309365Y-74170319D01*
X128306381Y-74188769D01*
X128286962Y-74182667D01*
X128247766Y-74166095D01*
X128246589Y-74165558D01*
X128226235Y-74154903D01*
X128212546Y-74140282D01*
X128204199Y-74114673D01*
X128199874Y-74071054D01*
X128198248Y-74002403D01*
X128198000Y-73901698D01*
X128197500Y-73837813D01*
X128192164Y-73717751D01*
X128179945Y-73629809D01*
X128159552Y-73569375D01*
X128129695Y-73531836D01*
X128089082Y-73512581D01*
X128083448Y-73511239D01*
X128007378Y-73510191D01*
X127948052Y-73544271D01*
X127907077Y-73612598D01*
X127899770Y-73632351D01*
X127883114Y-73676066D01*
X127874679Y-73696155D01*
X127857356Y-73693387D01*
X127819525Y-73678365D01*
X127784240Y-73653556D01*
X127768154Y-73606670D01*
X127772952Y-73573087D01*
X127802431Y-73504967D01*
X127850098Y-73441134D01*
X127905839Y-73396988D01*
X127929193Y-73386782D01*
X128017619Y-73369718D01*
X128111501Y-73376476D01*
G37*
D14*
X128111501Y-73376476D02*
X128192167Y-73406440D01*
X128225714Y-73428954D01*
X128259687Y-73461212D01*
X128283919Y-73502246D01*
X128300001Y-73558108D01*
X128309521Y-73634851D01*
X128314068Y-73738525D01*
X128315231Y-73875184D01*
X128315003Y-73945805D01*
X128313860Y-74042308D01*
X128311919Y-74119323D01*
X128309365Y-74170319D01*
X128306381Y-74188769D01*
X128286962Y-74182667D01*
X128247766Y-74166095D01*
X128246589Y-74165558D01*
X128226235Y-74154903D01*
X128212546Y-74140282D01*
X128204199Y-74114673D01*
X128199874Y-74071054D01*
X128198248Y-74002403D01*
X128198000Y-73901698D01*
X128197500Y-73837813D01*
X128192164Y-73717751D01*
X128179945Y-73629809D01*
X128159552Y-73569375D01*
X128129695Y-73531836D01*
X128089082Y-73512581D01*
X128083448Y-73511239D01*
X128007378Y-73510191D01*
X127948052Y-73544271D01*
X127907077Y-73612598D01*
X127899770Y-73632351D01*
X127883114Y-73676066D01*
X127874679Y-73696155D01*
X127857356Y-73693387D01*
X127819525Y-73678365D01*
X127784240Y-73653556D01*
X127768154Y-73606670D01*
X127772952Y-73573087D01*
X127802431Y-73504967D01*
X127850098Y-73441134D01*
X127905839Y-73396988D01*
X127929193Y-73386782D01*
X128017619Y-73369718D01*
X128111501Y-73376476D01*
G36*
X133426372Y-73331684D02*
G01*
X133517629Y-73374569D01*
X133592416Y-73448729D01*
X133607917Y-73471944D01*
X133620774Y-73498256D01*
X133629893Y-73531420D01*
X133636102Y-73577881D01*
X133640233Y-73644082D01*
X133643116Y-73736468D01*
X133645579Y-73861485D01*
X133651697Y-74208278D01*
X133600303Y-74188738D01*
X133553246Y-74170787D01*
X133518015Y-74153511D01*
X133495017Y-74131242D01*
X133481655Y-74097165D01*
X133475328Y-74044463D01*
X133473437Y-73966323D01*
X133473385Y-73855928D01*
X133473117Y-73767935D01*
X133471521Y-73683502D01*
X133467712Y-73625834D01*
X133460820Y-73587988D01*
X133449975Y-73563024D01*
X133434308Y-73544000D01*
X133395792Y-73517153D01*
X133331091Y-73507034D01*
X133267081Y-73532606D01*
X133262856Y-73535880D01*
X133249689Y-73551007D01*
X133239975Y-73575268D01*
X133232903Y-73614650D01*
X133227656Y-73675141D01*
X133223421Y-73762729D01*
X133219385Y-73883402D01*
X133209615Y-74206515D01*
X133043539Y-74132065D01*
X133043539Y-73837062D01*
X133043883Y-73756919D01*
X133046847Y-73645431D01*
X133054351Y-73562421D01*
X133068190Y-73501199D01*
X133090155Y-73455075D01*
X133122039Y-73417358D01*
X133165633Y-73381358D01*
X133228336Y-73345089D01*
X133327117Y-73321412D01*
X133426372Y-73331684D01*
G37*
X133426372Y-73331684D02*
X133517629Y-73374569D01*
X133592416Y-73448729D01*
X133607917Y-73471944D01*
X133620774Y-73498256D01*
X133629893Y-73531420D01*
X133636102Y-73577881D01*
X133640233Y-73644082D01*
X133643116Y-73736468D01*
X133645579Y-73861485D01*
X133651697Y-74208278D01*
X133600303Y-74188738D01*
X133553246Y-74170787D01*
X133518015Y-74153511D01*
X133495017Y-74131242D01*
X133481655Y-74097165D01*
X133475328Y-74044463D01*
X133473437Y-73966323D01*
X133473385Y-73855928D01*
X133473117Y-73767935D01*
X133471521Y-73683502D01*
X133467712Y-73625834D01*
X133460820Y-73587988D01*
X133449975Y-73563024D01*
X133434308Y-73544000D01*
X133395792Y-73517153D01*
X133331091Y-73507034D01*
X133267081Y-73532606D01*
X133262856Y-73535880D01*
X133249689Y-73551007D01*
X133239975Y-73575268D01*
X133232903Y-73614650D01*
X133227656Y-73675141D01*
X133223421Y-73762729D01*
X133219385Y-73883402D01*
X133209615Y-74206515D01*
X133043539Y-74132065D01*
X133043539Y-73837062D01*
X133043883Y-73756919D01*
X133046847Y-73645431D01*
X133054351Y-73562421D01*
X133068190Y-73501199D01*
X133090155Y-73455075D01*
X133122039Y-73417358D01*
X133165633Y-73381358D01*
X133228336Y-73345089D01*
X133327117Y-73321412D01*
X133426372Y-73331684D01*
G36*
X130971892Y-73397167D02*
G01*
X130978060Y-73400581D01*
X131028447Y-73439692D01*
X131073498Y-73489975D01*
X131081355Y-73501339D01*
X131096376Y-73527860D01*
X131107107Y-73559336D01*
X131114486Y-73602591D01*
X131119452Y-73664449D01*
X131122942Y-73751733D01*
X131125893Y-73871269D01*
X131126311Y-73891478D01*
X131127654Y-74022499D01*
X131125761Y-74115296D01*
X131120605Y-74170507D01*
X131112158Y-74188769D01*
X131086594Y-74183301D01*
X131043166Y-74166733D01*
X131032940Y-74161888D01*
X131016967Y-74150920D01*
X131005954Y-74132890D01*
X130998750Y-74101396D01*
X130994208Y-74050036D01*
X130991180Y-73972410D01*
X130988516Y-73862115D01*
X130987785Y-73829875D01*
X130984965Y-73728050D01*
X130981304Y-73656788D01*
X130975694Y-73609332D01*
X130967029Y-73578925D01*
X130954202Y-73558810D01*
X130936105Y-73542229D01*
X130882525Y-73513161D01*
X130816612Y-73507564D01*
X130757635Y-73529807D01*
X130715203Y-73575859D01*
X130698923Y-73641692D01*
X130698470Y-73659587D01*
X130689578Y-73691982D01*
X130663325Y-73696925D01*
X130611919Y-73677633D01*
X130600013Y-73671446D01*
X130567835Y-73635058D01*
X130567198Y-73580954D01*
X130597856Y-73506128D01*
X130625978Y-73465350D01*
X130697883Y-73407421D01*
X130786638Y-73374670D01*
X130881542Y-73370212D01*
X130971892Y-73397167D01*
G37*
X130971892Y-73397167D02*
X130978060Y-73400581D01*
X131028447Y-73439692D01*
X131073498Y-73489975D01*
X131081355Y-73501339D01*
X131096376Y-73527860D01*
X131107107Y-73559336D01*
X131114486Y-73602591D01*
X131119452Y-73664449D01*
X131122942Y-73751733D01*
X131125893Y-73871269D01*
X131126311Y-73891478D01*
X131127654Y-74022499D01*
X131125761Y-74115296D01*
X131120605Y-74170507D01*
X131112158Y-74188769D01*
X131086594Y-74183301D01*
X131043166Y-74166733D01*
X131032940Y-74161888D01*
X131016967Y-74150920D01*
X131005954Y-74132890D01*
X130998750Y-74101396D01*
X130994208Y-74050036D01*
X130991180Y-73972410D01*
X130988516Y-73862115D01*
X130987785Y-73829875D01*
X130984965Y-73728050D01*
X130981304Y-73656788D01*
X130975694Y-73609332D01*
X130967029Y-73578925D01*
X130954202Y-73558810D01*
X130936105Y-73542229D01*
X130882525Y-73513161D01*
X130816612Y-73507564D01*
X130757635Y-73529807D01*
X130715203Y-73575859D01*
X130698923Y-73641692D01*
X130698470Y-73659587D01*
X130689578Y-73691982D01*
X130663325Y-73696925D01*
X130611919Y-73677633D01*
X130600013Y-73671446D01*
X130567835Y-73635058D01*
X130567198Y-73580954D01*
X130597856Y-73506128D01*
X130625978Y-73465350D01*
X130697883Y-73407421D01*
X130786638Y-73374670D01*
X130881542Y-73370212D01*
X130971892Y-73397167D01*
G36*
X132476923Y-73131806D02*
G01*
X132476923Y-73666455D01*
X132476660Y-73805094D01*
X132475958Y-73929805D01*
X132474883Y-74035557D01*
X132473500Y-74117322D01*
X132471874Y-74170069D01*
X132470070Y-74188769D01*
X132469364Y-74188706D01*
X132445387Y-74181912D01*
X132401685Y-74167320D01*
X132340154Y-74145870D01*
X132340154Y-73870617D01*
X132339763Y-73762466D01*
X132337946Y-73684026D01*
X132333767Y-73630647D01*
X132326286Y-73595256D01*
X132314567Y-73570779D01*
X132297671Y-73550144D01*
X132286152Y-73539170D01*
X132223864Y-73508775D01*
X132155211Y-73511466D01*
X132092298Y-73547406D01*
X132083139Y-73556325D01*
X132068471Y-73574844D01*
X132058433Y-73599326D01*
X132052151Y-73636393D01*
X132048748Y-73692667D01*
X132047349Y-73774771D01*
X132047077Y-73889329D01*
X132046947Y-73947430D01*
X132046099Y-74042993D01*
X132044594Y-74119526D01*
X132042585Y-74170345D01*
X132040223Y-74188769D01*
X132039518Y-74188706D01*
X132015541Y-74181912D01*
X131971839Y-74167320D01*
X131910308Y-74145870D01*
X131910338Y-73869358D01*
X131910384Y-73844742D01*
X131912970Y-73716419D01*
X131920913Y-73619384D01*
X131936155Y-73547057D01*
X131960636Y-73492855D01*
X131996298Y-73450198D01*
X132045082Y-73412505D01*
X132092661Y-73388910D01*
X132168732Y-73370672D01*
X132243556Y-73369636D01*
X132301077Y-73387378D01*
X132305402Y-73389829D01*
X132318738Y-73389566D01*
X132327851Y-73369039D01*
X132334428Y-73321980D01*
X132340154Y-73242120D01*
X132349923Y-73078236D01*
X132476923Y-73131806D01*
G37*
X132476923Y-73131806D02*
X132476923Y-73666455D01*
X132476660Y-73805094D01*
X132475958Y-73929805D01*
X132474883Y-74035557D01*
X132473500Y-74117322D01*
X132471874Y-74170069D01*
X132470070Y-74188769D01*
X132469364Y-74188706D01*
X132445387Y-74181912D01*
X132401685Y-74167320D01*
X132340154Y-74145870D01*
X132340154Y-73870617D01*
X132339763Y-73762466D01*
X132337946Y-73684026D01*
X132333767Y-73630647D01*
X132326286Y-73595256D01*
X132314567Y-73570779D01*
X132297671Y-73550144D01*
X132286152Y-73539170D01*
X132223864Y-73508775D01*
X132155211Y-73511466D01*
X132092298Y-73547406D01*
X132083139Y-73556325D01*
X132068471Y-73574844D01*
X132058433Y-73599326D01*
X132052151Y-73636393D01*
X132048748Y-73692667D01*
X132047349Y-73774771D01*
X132047077Y-73889329D01*
X132046947Y-73947430D01*
X132046099Y-74042993D01*
X132044594Y-74119526D01*
X132042585Y-74170345D01*
X132040223Y-74188769D01*
X132039518Y-74188706D01*
X132015541Y-74181912D01*
X131971839Y-74167320D01*
X131910308Y-74145870D01*
X131910338Y-73869358D01*
X131910384Y-73844742D01*
X131912970Y-73716419D01*
X131920913Y-73619384D01*
X131936155Y-73547057D01*
X131960636Y-73492855D01*
X131996298Y-73450198D01*
X132045082Y-73412505D01*
X132092661Y-73388910D01*
X132168732Y-73370672D01*
X132243556Y-73369636D01*
X132301077Y-73387378D01*
X132305402Y-73389829D01*
X132318738Y-73389566D01*
X132327851Y-73369039D01*
X132334428Y-73321980D01*
X132340154Y-73242120D01*
X132349923Y-73078236D01*
X132476923Y-73131806D01*
G36*
X129687998Y-73374034D02*
G01*
X129730850Y-73390829D01*
X129780615Y-73413503D01*
X129780615Y-74068533D01*
X129718785Y-74130363D01*
X129704662Y-74144228D01*
X129665536Y-74175046D01*
X129626078Y-74185028D01*
X129567362Y-74180433D01*
X129543456Y-74177462D01*
X129481801Y-74171176D01*
X129438692Y-74168672D01*
X129425905Y-74169055D01*
X129373446Y-74173200D01*
X129310022Y-74180433D01*
X129289730Y-74182918D01*
X129238610Y-74183895D01*
X129201207Y-74168462D01*
X129158599Y-74130363D01*
X129096769Y-74068533D01*
X129096769Y-73718343D01*
X129097251Y-73614857D01*
X129098753Y-73516192D01*
X129101089Y-73438068D01*
X129104071Y-73386662D01*
X129107509Y-73368154D01*
X129108230Y-73368204D01*
X129133203Y-73377413D01*
X129175399Y-73397707D01*
X129232549Y-73427261D01*
X129237928Y-73734746D01*
X129243308Y-74042231D01*
X129360539Y-74042231D01*
X129365885Y-73705192D01*
X129367579Y-73613574D01*
X129370005Y-73515649D01*
X129372634Y-73437906D01*
X129375246Y-73386642D01*
X129377623Y-73368154D01*
X129378306Y-73368219D01*
X129401996Y-73375020D01*
X129445546Y-73389604D01*
X129507077Y-73411054D01*
X129507376Y-73707104D01*
X129507676Y-73758532D01*
X129509754Y-73858466D01*
X129513470Y-73941925D01*
X129518430Y-74001377D01*
X129524240Y-74029287D01*
X129545024Y-74044214D01*
X129587440Y-74048825D01*
X129634077Y-74042231D01*
X129639423Y-73705192D01*
X129641336Y-73619546D01*
X129645303Y-73518172D01*
X129650491Y-73438655D01*
X129656499Y-73386736D01*
X129662927Y-73368154D01*
X129687998Y-73374034D01*
G37*
X129687998Y-73374034D02*
X129730850Y-73390829D01*
X129780615Y-73413503D01*
X129780615Y-74068533D01*
X129718785Y-74130363D01*
X129704662Y-74144228D01*
X129665536Y-74175046D01*
X129626078Y-74185028D01*
X129567362Y-74180433D01*
X129543456Y-74177462D01*
X129481801Y-74171176D01*
X129438692Y-74168672D01*
X129425905Y-74169055D01*
X129373446Y-74173200D01*
X129310022Y-74180433D01*
X129289730Y-74182918D01*
X129238610Y-74183895D01*
X129201207Y-74168462D01*
X129158599Y-74130363D01*
X129096769Y-74068533D01*
X129096769Y-73718343D01*
X129097251Y-73614857D01*
X129098753Y-73516192D01*
X129101089Y-73438068D01*
X129104071Y-73386662D01*
X129107509Y-73368154D01*
X129108230Y-73368204D01*
X129133203Y-73377413D01*
X129175399Y-73397707D01*
X129232549Y-73427261D01*
X129237928Y-73734746D01*
X129243308Y-74042231D01*
X129360539Y-74042231D01*
X129365885Y-73705192D01*
X129367579Y-73613574D01*
X129370005Y-73515649D01*
X129372634Y-73437906D01*
X129375246Y-73386642D01*
X129377623Y-73368154D01*
X129378306Y-73368219D01*
X129401996Y-73375020D01*
X129445546Y-73389604D01*
X129507077Y-73411054D01*
X129507376Y-73707104D01*
X129507676Y-73758532D01*
X129509754Y-73858466D01*
X129513470Y-73941925D01*
X129518430Y-74001377D01*
X129524240Y-74029287D01*
X129545024Y-74044214D01*
X129587440Y-74048825D01*
X129634077Y-74042231D01*
X129639423Y-73705192D01*
X129641336Y-73619546D01*
X129645303Y-73518172D01*
X129650491Y-73438655D01*
X129656499Y-73386736D01*
X129662927Y-73368154D01*
X129687998Y-73374034D01*
G36*
X135896135Y-73780105D02*
G01*
X135895076Y-73874584D01*
X135891436Y-73940414D01*
X135883892Y-73986394D01*
X135871122Y-74021321D01*
X135851803Y-74053995D01*
X135847050Y-74060775D01*
X135796759Y-74114231D01*
X135739457Y-74154547D01*
X135710032Y-74167629D01*
X135604299Y-74189450D01*
X135499734Y-74175336D01*
X135403368Y-74127105D01*
X135322235Y-74046579D01*
X135315385Y-74035791D01*
X135293097Y-73973153D01*
X135278079Y-73885935D01*
X135270792Y-73785210D01*
X135271611Y-73692037D01*
X135468796Y-73692037D01*
X135470349Y-73821114D01*
X135470974Y-73829420D01*
X135480077Y-73900643D01*
X135496288Y-73945809D01*
X135523660Y-73976752D01*
X135569553Y-74005737D01*
X135614942Y-74007261D01*
X135661692Y-73973846D01*
X135669824Y-73965053D01*
X135685754Y-73938741D01*
X135695159Y-73900520D01*
X135699632Y-73841349D01*
X135700769Y-73752182D01*
X135698822Y-73668664D01*
X135689105Y-73589095D01*
X135669047Y-73538808D01*
X135636240Y-73512513D01*
X135588280Y-73504923D01*
X135570016Y-73506432D01*
X135518848Y-73534107D01*
X135485035Y-73596172D01*
X135468796Y-73692037D01*
X135271611Y-73692037D01*
X135271699Y-73682052D01*
X135281262Y-73587533D01*
X135299943Y-73512727D01*
X135323951Y-73462905D01*
X135391536Y-73385409D01*
X135483114Y-73337256D01*
X135595213Y-73320703D01*
X135625151Y-73321599D01*
X135713315Y-73339929D01*
X135785733Y-73386104D01*
X135852192Y-73465648D01*
X135856147Y-73471548D01*
X135874040Y-73503288D01*
X135885678Y-73539163D01*
X135892371Y-73587906D01*
X135895426Y-73658249D01*
X135896106Y-73752182D01*
X135896154Y-73758923D01*
X135896135Y-73780105D01*
G37*
X135896135Y-73780105D02*
X135895076Y-73874584D01*
X135891436Y-73940414D01*
X135883892Y-73986394D01*
X135871122Y-74021321D01*
X135851803Y-74053995D01*
X135847050Y-74060775D01*
X135796759Y-74114231D01*
X135739457Y-74154547D01*
X135710032Y-74167629D01*
X135604299Y-74189450D01*
X135499734Y-74175336D01*
X135403368Y-74127105D01*
X135322235Y-74046579D01*
X135315385Y-74035791D01*
X135293097Y-73973153D01*
X135278079Y-73885935D01*
X135270792Y-73785210D01*
X135271611Y-73692037D01*
X135468796Y-73692037D01*
X135470349Y-73821114D01*
X135470974Y-73829420D01*
X135480077Y-73900643D01*
X135496288Y-73945809D01*
X135523660Y-73976752D01*
X135569553Y-74005737D01*
X135614942Y-74007261D01*
X135661692Y-73973846D01*
X135669824Y-73965053D01*
X135685754Y-73938741D01*
X135695159Y-73900520D01*
X135699632Y-73841349D01*
X135700769Y-73752182D01*
X135698822Y-73668664D01*
X135689105Y-73589095D01*
X135669047Y-73538808D01*
X135636240Y-73512513D01*
X135588280Y-73504923D01*
X135570016Y-73506432D01*
X135518848Y-73534107D01*
X135485035Y-73596172D01*
X135468796Y-73692037D01*
X135271611Y-73692037D01*
X135271699Y-73682052D01*
X135281262Y-73587533D01*
X135299943Y-73512727D01*
X135323951Y-73462905D01*
X135391536Y-73385409D01*
X135483114Y-73337256D01*
X135595213Y-73320703D01*
X135625151Y-73321599D01*
X135713315Y-73339929D01*
X135785733Y-73386104D01*
X135852192Y-73465648D01*
X135856147Y-73471548D01*
X135874040Y-73503288D01*
X135885678Y-73539163D01*
X135892371Y-73587906D01*
X135895426Y-73658249D01*
X135896106Y-73752182D01*
X135896154Y-73758923D01*
X135896135Y-73780105D01*
G36*
X127650413Y-73834449D02*
G01*
X127645641Y-73937047D01*
X127633150Y-74012126D01*
X127610121Y-74067748D01*
X127573732Y-74111975D01*
X127521162Y-74152869D01*
X127487714Y-74171466D01*
X127434098Y-74183991D01*
X127358780Y-74183003D01*
X127316672Y-74179035D01*
X127265879Y-74166920D01*
X127225280Y-74140585D01*
X127178049Y-74091514D01*
X127171738Y-74084346D01*
X127129277Y-74029189D01*
X127109018Y-73981150D01*
X127103846Y-73924184D01*
X127103846Y-73840471D01*
X127162346Y-73862552D01*
X127204994Y-73888364D01*
X127242064Y-73948928D01*
X127249803Y-73968320D01*
X127293074Y-74023235D01*
X127351976Y-74050879D01*
X127416111Y-74048393D01*
X127475077Y-74012923D01*
X127495342Y-73990805D01*
X127513720Y-73957436D01*
X127507971Y-73927117D01*
X127474887Y-73895913D01*
X127411261Y-73859887D01*
X127313885Y-73815103D01*
X127113615Y-73727445D01*
X127108301Y-73640607D01*
X127110299Y-73585296D01*
X127240783Y-73585296D01*
X127250688Y-73619538D01*
X127295756Y-73656096D01*
X127377557Y-73697692D01*
X127391092Y-73703718D01*
X127455818Y-73731753D01*
X127504247Y-73751472D01*
X127526751Y-73758923D01*
X127530161Y-73753438D01*
X127531529Y-73719948D01*
X127526651Y-73666116D01*
X127514364Y-73613473D01*
X127476041Y-73547151D01*
X127420720Y-73509780D01*
X127354640Y-73504721D01*
X127284040Y-73535339D01*
X127264474Y-73550648D01*
X127240783Y-73585296D01*
X127110299Y-73585296D01*
X127110647Y-73575663D01*
X127140186Y-73493590D01*
X127177472Y-73448361D01*
X127254776Y-73397838D01*
X127346478Y-73372316D01*
X127441274Y-73374336D01*
X127527859Y-73406440D01*
X127546920Y-73418767D01*
X127590640Y-73456912D01*
X127620540Y-73505167D01*
X127638968Y-73570710D01*
X127648270Y-73660720D01*
X127649499Y-73719948D01*
X127650794Y-73782376D01*
X127650413Y-73834449D01*
G37*
X127650413Y-73834449D02*
X127645641Y-73937047D01*
X127633150Y-74012126D01*
X127610121Y-74067748D01*
X127573732Y-74111975D01*
X127521162Y-74152869D01*
X127487714Y-74171466D01*
X127434098Y-74183991D01*
X127358780Y-74183003D01*
X127316672Y-74179035D01*
X127265879Y-74166920D01*
X127225280Y-74140585D01*
X127178049Y-74091514D01*
X127171738Y-74084346D01*
X127129277Y-74029189D01*
X127109018Y-73981150D01*
X127103846Y-73924184D01*
X127103846Y-73840471D01*
X127162346Y-73862552D01*
X127204994Y-73888364D01*
X127242064Y-73948928D01*
X127249803Y-73968320D01*
X127293074Y-74023235D01*
X127351976Y-74050879D01*
X127416111Y-74048393D01*
X127475077Y-74012923D01*
X127495342Y-73990805D01*
X127513720Y-73957436D01*
X127507971Y-73927117D01*
X127474887Y-73895913D01*
X127411261Y-73859887D01*
X127313885Y-73815103D01*
X127113615Y-73727445D01*
X127108301Y-73640607D01*
X127110299Y-73585296D01*
X127240783Y-73585296D01*
X127250688Y-73619538D01*
X127295756Y-73656096D01*
X127377557Y-73697692D01*
X127391092Y-73703718D01*
X127455818Y-73731753D01*
X127504247Y-73751472D01*
X127526751Y-73758923D01*
X127530161Y-73753438D01*
X127531529Y-73719948D01*
X127526651Y-73666116D01*
X127514364Y-73613473D01*
X127476041Y-73547151D01*
X127420720Y-73509780D01*
X127354640Y-73504721D01*
X127284040Y-73535339D01*
X127264474Y-73550648D01*
X127240783Y-73585296D01*
X127110299Y-73585296D01*
X127110647Y-73575663D01*
X127140186Y-73493590D01*
X127177472Y-73448361D01*
X127254776Y-73397838D01*
X127346478Y-73372316D01*
X127441274Y-73374336D01*
X127527859Y-73406440D01*
X127546920Y-73418767D01*
X127590640Y-73456912D01*
X127620540Y-73505167D01*
X127638968Y-73570710D01*
X127648270Y-73660720D01*
X127649499Y-73719948D01*
X127650794Y-73782376D01*
X127650413Y-73834449D01*
G36*
X130462839Y-73854652D02*
G01*
X130451810Y-73958507D01*
X130427814Y-74036333D01*
X130388043Y-74095760D01*
X130329688Y-74144418D01*
X130274100Y-74172546D01*
X130180751Y-74188199D01*
X130087530Y-74171084D01*
X130003272Y-74123388D01*
X129936818Y-74047294D01*
X129928793Y-74033262D01*
X129918196Y-74008679D01*
X129910335Y-73977309D01*
X129904807Y-73933769D01*
X129901206Y-73872678D01*
X129899128Y-73788655D01*
X129899064Y-73781200D01*
X130034615Y-73781200D01*
X130035077Y-73852316D01*
X130037999Y-73916641D01*
X130045221Y-73958166D01*
X130058561Y-73986067D01*
X130079836Y-74009517D01*
X130084821Y-74014025D01*
X130148863Y-74047295D01*
X130216625Y-74043890D01*
X130279734Y-74004042D01*
X130298526Y-73983398D01*
X130314254Y-73956029D01*
X130323039Y-73918192D01*
X130326859Y-73860355D01*
X130327692Y-73772986D01*
X130327281Y-73706319D01*
X130324434Y-73641245D01*
X130317256Y-73599251D01*
X130303889Y-73571063D01*
X130282472Y-73547406D01*
X130269890Y-73536753D01*
X130204699Y-73508057D01*
X130136400Y-73512575D01*
X130077098Y-73550144D01*
X130064333Y-73565040D01*
X130048764Y-73593089D01*
X130039762Y-73632258D01*
X130035617Y-73691858D01*
X130034615Y-73781200D01*
X129899064Y-73781200D01*
X129898167Y-73676320D01*
X129897919Y-73530289D01*
X129897846Y-73076963D01*
X129961346Y-73103564D01*
X129978136Y-73110845D01*
X130004859Y-73127287D01*
X130020156Y-73152187D01*
X130028563Y-73195732D01*
X130034615Y-73268106D01*
X130040144Y-73333089D01*
X130047450Y-73375750D01*
X130057918Y-73391670D01*
X130073692Y-73387400D01*
X130113890Y-73372397D01*
X130185728Y-73368678D01*
X130263010Y-73382572D01*
X130329688Y-73412505D01*
X130366371Y-73440211D01*
X130413472Y-73494269D01*
X130443638Y-73563577D01*
X130459678Y-73655765D01*
X130464191Y-73772986D01*
X130464401Y-73778462D01*
X130462839Y-73854652D01*
G37*
X130462839Y-73854652D02*
X130451810Y-73958507D01*
X130427814Y-74036333D01*
X130388043Y-74095760D01*
X130329688Y-74144418D01*
X130274100Y-74172546D01*
X130180751Y-74188199D01*
X130087530Y-74171084D01*
X130003272Y-74123388D01*
X129936818Y-74047294D01*
X129928793Y-74033262D01*
X129918196Y-74008679D01*
X129910335Y-73977309D01*
X129904807Y-73933769D01*
X129901206Y-73872678D01*
X129899128Y-73788655D01*
X129899064Y-73781200D01*
X130034615Y-73781200D01*
X130035077Y-73852316D01*
X130037999Y-73916641D01*
X130045221Y-73958166D01*
X130058561Y-73986067D01*
X130079836Y-74009517D01*
X130084821Y-74014025D01*
X130148863Y-74047295D01*
X130216625Y-74043890D01*
X130279734Y-74004042D01*
X130298526Y-73983398D01*
X130314254Y-73956029D01*
X130323039Y-73918192D01*
X130326859Y-73860355D01*
X130327692Y-73772986D01*
X130327281Y-73706319D01*
X130324434Y-73641245D01*
X130317256Y-73599251D01*
X130303889Y-73571063D01*
X130282472Y-73547406D01*
X130269890Y-73536753D01*
X130204699Y-73508057D01*
X130136400Y-73512575D01*
X130077098Y-73550144D01*
X130064333Y-73565040D01*
X130048764Y-73593089D01*
X130039762Y-73632258D01*
X130035617Y-73691858D01*
X130034615Y-73781200D01*
X129899064Y-73781200D01*
X129898167Y-73676320D01*
X129897919Y-73530289D01*
X129897846Y-73076963D01*
X129961346Y-73103564D01*
X129978136Y-73110845D01*
X130004859Y-73127287D01*
X130020156Y-73152187D01*
X130028563Y-73195732D01*
X130034615Y-73268106D01*
X130040144Y-73333089D01*
X130047450Y-73375750D01*
X130057918Y-73391670D01*
X130073692Y-73387400D01*
X130113890Y-73372397D01*
X130185728Y-73368678D01*
X130263010Y-73382572D01*
X130329688Y-73412505D01*
X130366371Y-73440211D01*
X130413472Y-73494269D01*
X130443638Y-73563577D01*
X130459678Y-73655765D01*
X130464191Y-73772986D01*
X130464401Y-73778462D01*
X130462839Y-73854652D01*
G36*
X134404574Y-73851643D02*
G01*
X134401066Y-73883021D01*
X134374927Y-73994705D01*
X134327694Y-74079642D01*
X134255862Y-74144741D01*
X134251802Y-74147428D01*
X134160487Y-74185634D01*
X134065144Y-74189034D01*
X133973274Y-74159939D01*
X133892379Y-74100660D01*
X133829962Y-74013510D01*
X133828914Y-74011409D01*
X133808173Y-73957289D01*
X133792980Y-73895781D01*
X133784921Y-73838039D01*
X133785582Y-73795215D01*
X133796548Y-73778462D01*
X133806290Y-73779480D01*
X133852877Y-73798009D01*
X133905682Y-73832081D01*
X133950603Y-73871522D01*
X133973535Y-73906155D01*
X133997373Y-73953133D01*
X134046230Y-73995862D01*
X134102963Y-74012923D01*
X134123758Y-74007990D01*
X134164804Y-73983157D01*
X134200557Y-73948685D01*
X134215846Y-73917411D01*
X134215842Y-73917295D01*
X134198495Y-73902933D01*
X134152247Y-73877025D01*
X134084067Y-73843210D01*
X134000923Y-73805129D01*
X134000466Y-73804927D01*
X133910138Y-73764709D01*
X133849592Y-73735733D01*
X133812888Y-73713474D01*
X133794086Y-73693407D01*
X133787246Y-73671009D01*
X133786429Y-73641756D01*
X133792113Y-73586363D01*
X133985000Y-73586363D01*
X134004911Y-73603777D01*
X134054521Y-73629872D01*
X134055976Y-73630610D01*
X134114506Y-73658483D01*
X134166868Y-73680719D01*
X134200086Y-73690126D01*
X134213410Y-73677552D01*
X134215846Y-73634468D01*
X134205724Y-73580847D01*
X134170631Y-73532119D01*
X134119823Y-73506856D01*
X134063181Y-73509406D01*
X134010584Y-73544120D01*
X133989910Y-73568107D01*
X133985000Y-73586363D01*
X133792113Y-73586363D01*
X133793622Y-73571654D01*
X133829184Y-73476412D01*
X133888714Y-73401567D01*
X133965746Y-73349745D01*
X134053815Y-73323573D01*
X134146454Y-73325676D01*
X134237198Y-73358681D01*
X134319579Y-73425215D01*
X134365222Y-73491055D01*
X134398008Y-73585036D01*
X134403339Y-73634468D01*
X134410787Y-73703536D01*
X134404574Y-73851643D01*
G37*
X134404574Y-73851643D02*
X134401066Y-73883021D01*
X134374927Y-73994705D01*
X134327694Y-74079642D01*
X134255862Y-74144741D01*
X134251802Y-74147428D01*
X134160487Y-74185634D01*
X134065144Y-74189034D01*
X133973274Y-74159939D01*
X133892379Y-74100660D01*
X133829962Y-74013510D01*
X133828914Y-74011409D01*
X133808173Y-73957289D01*
X133792980Y-73895781D01*
X133784921Y-73838039D01*
X133785582Y-73795215D01*
X133796548Y-73778462D01*
X133806290Y-73779480D01*
X133852877Y-73798009D01*
X133905682Y-73832081D01*
X133950603Y-73871522D01*
X133973535Y-73906155D01*
X133997373Y-73953133D01*
X134046230Y-73995862D01*
X134102963Y-74012923D01*
X134123758Y-74007990D01*
X134164804Y-73983157D01*
X134200557Y-73948685D01*
X134215846Y-73917411D01*
X134215842Y-73917295D01*
X134198495Y-73902933D01*
X134152247Y-73877025D01*
X134084067Y-73843210D01*
X134000923Y-73805129D01*
X134000466Y-73804927D01*
X133910138Y-73764709D01*
X133849592Y-73735733D01*
X133812888Y-73713474D01*
X133794086Y-73693407D01*
X133787246Y-73671009D01*
X133786429Y-73641756D01*
X133792113Y-73586363D01*
X133985000Y-73586363D01*
X134004911Y-73603777D01*
X134054521Y-73629872D01*
X134055976Y-73630610D01*
X134114506Y-73658483D01*
X134166868Y-73680719D01*
X134200086Y-73690126D01*
X134213410Y-73677552D01*
X134215846Y-73634468D01*
X134205724Y-73580847D01*
X134170631Y-73532119D01*
X134119823Y-73506856D01*
X134063181Y-73509406D01*
X134010584Y-73544120D01*
X133989910Y-73568107D01*
X133985000Y-73586363D01*
X133792113Y-73586363D01*
X133793622Y-73571654D01*
X133829184Y-73476412D01*
X133888714Y-73401567D01*
X133965746Y-73349745D01*
X134053815Y-73323573D01*
X134146454Y-73325676D01*
X134237198Y-73358681D01*
X134319579Y-73425215D01*
X134365222Y-73491055D01*
X134398008Y-73585036D01*
X134403339Y-73634468D01*
X134410787Y-73703536D01*
X134404574Y-73851643D01*
G36*
X131620458Y-73389228D02*
G01*
X131687622Y-73428389D01*
X131717169Y-73458902D01*
X131773948Y-73550110D01*
X131793077Y-73649548D01*
X131793077Y-73717960D01*
X131730191Y-73691518D01*
X131686700Y-73664837D01*
X131652426Y-73609446D01*
X131648907Y-73598024D01*
X131611028Y-73539838D01*
X131553936Y-73508407D01*
X131488383Y-73507058D01*
X131425117Y-73539116D01*
X131415672Y-73547383D01*
X131384087Y-73583311D01*
X131378871Y-73614635D01*
X131402765Y-73645391D01*
X131458510Y-73679617D01*
X131548846Y-73721350D01*
X131554956Y-73723993D01*
X131655241Y-73770755D01*
X131723735Y-73812181D01*
X131765899Y-73853542D01*
X131787193Y-73900111D01*
X131793077Y-73957160D01*
X131785366Y-74020408D01*
X131746430Y-74101364D01*
X131677932Y-74159522D01*
X131628388Y-74176983D01*
X131558469Y-74186537D01*
X131490575Y-74184496D01*
X131442093Y-74170082D01*
X131436943Y-74166493D01*
X131423267Y-74141416D01*
X131432757Y-74097218D01*
X131449246Y-74062527D01*
X131475687Y-74048084D01*
X131525834Y-74048803D01*
X131595453Y-74044660D01*
X131640943Y-74016054D01*
X131656308Y-73963104D01*
X131656294Y-73961582D01*
X131646983Y-73930845D01*
X131615311Y-73902643D01*
X131553731Y-73870136D01*
X131469986Y-73830998D01*
X131414518Y-73809706D01*
X131382497Y-73811079D01*
X131367534Y-73839203D01*
X131363242Y-73898170D01*
X131363231Y-73992068D01*
X131362752Y-74050031D01*
X131360556Y-74121612D01*
X131356986Y-74170606D01*
X131352491Y-74188769D01*
X131351290Y-74188646D01*
X131325319Y-74178802D01*
X131282305Y-74158028D01*
X131222859Y-74127287D01*
X131229923Y-73850298D01*
X131230414Y-73831928D01*
X131236025Y-73702992D01*
X131245938Y-73605814D01*
X131262175Y-73533925D01*
X131286759Y-73480852D01*
X131321715Y-73440127D01*
X131369064Y-73405279D01*
X131369940Y-73404733D01*
X131446499Y-73376303D01*
X131535044Y-73371500D01*
X131620458Y-73389228D01*
G37*
X131620458Y-73389228D02*
X131687622Y-73428389D01*
X131717169Y-73458902D01*
X131773948Y-73550110D01*
X131793077Y-73649548D01*
X131793077Y-73717960D01*
X131730191Y-73691518D01*
X131686700Y-73664837D01*
X131652426Y-73609446D01*
X131648907Y-73598024D01*
X131611028Y-73539838D01*
X131553936Y-73508407D01*
X131488383Y-73507058D01*
X131425117Y-73539116D01*
X131415672Y-73547383D01*
X131384087Y-73583311D01*
X131378871Y-73614635D01*
X131402765Y-73645391D01*
X131458510Y-73679617D01*
X131548846Y-73721350D01*
X131554956Y-73723993D01*
X131655241Y-73770755D01*
X131723735Y-73812181D01*
X131765899Y-73853542D01*
X131787193Y-73900111D01*
X131793077Y-73957160D01*
X131785366Y-74020408D01*
X131746430Y-74101364D01*
X131677932Y-74159522D01*
X131628388Y-74176983D01*
X131558469Y-74186537D01*
X131490575Y-74184496D01*
X131442093Y-74170082D01*
X131436943Y-74166493D01*
X131423267Y-74141416D01*
X131432757Y-74097218D01*
X131449246Y-74062527D01*
X131475687Y-74048084D01*
X131525834Y-74048803D01*
X131595453Y-74044660D01*
X131640943Y-74016054D01*
X131656308Y-73963104D01*
X131656294Y-73961582D01*
X131646983Y-73930845D01*
X131615311Y-73902643D01*
X131553731Y-73870136D01*
X131469986Y-73830998D01*
X131414518Y-73809706D01*
X131382497Y-73811079D01*
X131367534Y-73839203D01*
X131363242Y-73898170D01*
X131363231Y-73992068D01*
X131362752Y-74050031D01*
X131360556Y-74121612D01*
X131356986Y-74170606D01*
X131352491Y-74188769D01*
X131351290Y-74188646D01*
X131325319Y-74178802D01*
X131282305Y-74158028D01*
X131222859Y-74127287D01*
X131229923Y-73850298D01*
X131230414Y-73831928D01*
X131236025Y-73702992D01*
X131245938Y-73605814D01*
X131262175Y-73533925D01*
X131286759Y-73480852D01*
X131321715Y-73440127D01*
X131369064Y-73405279D01*
X131369940Y-73404733D01*
X131446499Y-73376303D01*
X131535044Y-73371500D01*
X131620458Y-73389228D01*
G36*
X135149763Y-73998269D02*
G01*
X135150300Y-74041802D01*
X135152019Y-74187344D01*
X135152365Y-74298711D01*
X135150277Y-74379804D01*
X135144698Y-74434522D01*
X135134567Y-74466761D01*
X135118826Y-74480422D01*
X135096417Y-74479403D01*
X135066280Y-74467603D01*
X135027355Y-74448920D01*
X135019038Y-74444933D01*
X134984402Y-74425419D01*
X134966314Y-74402202D01*
X134959392Y-74363492D01*
X134958256Y-74297497D01*
X134958205Y-74179000D01*
X134836141Y-74179000D01*
X134761055Y-74175712D01*
X134702015Y-74162377D01*
X134652986Y-74135423D01*
X134649330Y-74132788D01*
X134599581Y-74088286D01*
X134564959Y-74034523D01*
X134543123Y-73964154D01*
X134531737Y-73869830D01*
X134528959Y-73763271D01*
X134723846Y-73763271D01*
X134723880Y-73781131D01*
X134725735Y-73861748D01*
X134731693Y-73914447D01*
X134743506Y-73948668D01*
X134762923Y-73973846D01*
X134764133Y-73975049D01*
X134811858Y-74007628D01*
X134858110Y-74004417D01*
X134910350Y-73964965D01*
X134923128Y-73951482D01*
X134941949Y-73923837D01*
X134952562Y-73887880D01*
X134957252Y-73833364D01*
X134958308Y-73750042D01*
X134957394Y-73699598D01*
X134947477Y-73607857D01*
X134924842Y-73547752D01*
X134887238Y-73514900D01*
X134832416Y-73504923D01*
X134809317Y-73507050D01*
X134769350Y-73528147D01*
X134742926Y-73575161D01*
X134728330Y-73652175D01*
X134723846Y-73763271D01*
X134528959Y-73763271D01*
X134528462Y-73744206D01*
X134529187Y-73652536D01*
X134532490Y-73583098D01*
X134539828Y-73534945D01*
X134552655Y-73498866D01*
X134572423Y-73465648D01*
X134590569Y-73440261D01*
X134656461Y-73371727D01*
X134731114Y-73334505D01*
X134824904Y-73322722D01*
X134932240Y-73334467D01*
X135025031Y-73376595D01*
X135098421Y-73450898D01*
X135103954Y-73458764D01*
X135116857Y-73479668D01*
X135126742Y-73503555D01*
X135134093Y-73535582D01*
X135139394Y-73580905D01*
X135143127Y-73644679D01*
X135145778Y-73732060D01*
X135146096Y-73750042D01*
X135147828Y-73848205D01*
X135149763Y-73998269D01*
G37*
X135149763Y-73998269D02*
X135150300Y-74041802D01*
X135152019Y-74187344D01*
X135152365Y-74298711D01*
X135150277Y-74379804D01*
X135144698Y-74434522D01*
X135134567Y-74466761D01*
X135118826Y-74480422D01*
X135096417Y-74479403D01*
X135066280Y-74467603D01*
X135027355Y-74448920D01*
X135019038Y-74444933D01*
X134984402Y-74425419D01*
X134966314Y-74402202D01*
X134959392Y-74363492D01*
X134958256Y-74297497D01*
X134958205Y-74179000D01*
X134836141Y-74179000D01*
X134761055Y-74175712D01*
X134702015Y-74162377D01*
X134652986Y-74135423D01*
X134649330Y-74132788D01*
X134599581Y-74088286D01*
X134564959Y-74034523D01*
X134543123Y-73964154D01*
X134531737Y-73869830D01*
X134528959Y-73763271D01*
X134723846Y-73763271D01*
X134723880Y-73781131D01*
X134725735Y-73861748D01*
X134731693Y-73914447D01*
X134743506Y-73948668D01*
X134762923Y-73973846D01*
X134764133Y-73975049D01*
X134811858Y-74007628D01*
X134858110Y-74004417D01*
X134910350Y-73964965D01*
X134923128Y-73951482D01*
X134941949Y-73923837D01*
X134952562Y-73887880D01*
X134957252Y-73833364D01*
X134958308Y-73750042D01*
X134957394Y-73699598D01*
X134947477Y-73607857D01*
X134924842Y-73547752D01*
X134887238Y-73514900D01*
X134832416Y-73504923D01*
X134809317Y-73507050D01*
X134769350Y-73528147D01*
X134742926Y-73575161D01*
X134728330Y-73652175D01*
X134723846Y-73763271D01*
X134528959Y-73763271D01*
X134528462Y-73744206D01*
X134529187Y-73652536D01*
X134532490Y-73583098D01*
X134539828Y-73534945D01*
X134552655Y-73498866D01*
X134572423Y-73465648D01*
X134590569Y-73440261D01*
X134656461Y-73371727D01*
X134731114Y-73334505D01*
X134824904Y-73322722D01*
X134932240Y-73334467D01*
X135025031Y-73376595D01*
X135098421Y-73450898D01*
X135103954Y-73458764D01*
X135116857Y-73479668D01*
X135126742Y-73503555D01*
X135134093Y-73535582D01*
X135139394Y-73580905D01*
X135143127Y-73644679D01*
X135145778Y-73732060D01*
X135146096Y-73750042D01*
X135147828Y-73848205D01*
X135149763Y-73998269D01*
G36*
X128763936Y-73369911D02*
G01*
X128805807Y-73380547D01*
X128844791Y-73407062D01*
X128894965Y-73456420D01*
X128927232Y-73491279D01*
X128960844Y-73536534D01*
X128976003Y-73578951D01*
X128979539Y-73632768D01*
X128979539Y-73720850D01*
X128919470Y-73689787D01*
X128871867Y-73651936D01*
X128839261Y-73600950D01*
X128833661Y-73587088D01*
X128790992Y-73533358D01*
X128731707Y-73506417D01*
X128667061Y-73509039D01*
X128608308Y-73544000D01*
X128583450Y-73572394D01*
X128568970Y-73608718D01*
X128584470Y-73641046D01*
X128632667Y-73673565D01*
X128716274Y-73710461D01*
X128728962Y-73715557D01*
X128805078Y-73748907D01*
X128870396Y-73781793D01*
X128911953Y-73807769D01*
X128953576Y-73854167D01*
X128981247Y-73928211D01*
X128978310Y-74007670D01*
X128945571Y-74082868D01*
X128883841Y-74144131D01*
X128833858Y-74170210D01*
X128737303Y-74188470D01*
X128683647Y-74186007D01*
X128633976Y-74172687D01*
X128614919Y-74144739D01*
X128622045Y-74098710D01*
X128624118Y-74092624D01*
X128640556Y-74060349D01*
X128667926Y-74048133D01*
X128720068Y-74048950D01*
X128756884Y-74050061D01*
X128799961Y-74040528D01*
X128829475Y-74012026D01*
X128846286Y-73976935D01*
X128848161Y-73940175D01*
X128848074Y-73939961D01*
X128826279Y-73920098D01*
X128779632Y-73891192D01*
X128719278Y-73858886D01*
X128656360Y-73828823D01*
X128602023Y-73806646D01*
X128567410Y-73798000D01*
X128562260Y-73806467D01*
X128555778Y-73846309D01*
X128551339Y-73911371D01*
X128549692Y-73993385D01*
X128549309Y-74050153D01*
X128547505Y-74121648D01*
X128544558Y-74170610D01*
X128540843Y-74188769D01*
X128521424Y-74182667D01*
X128482227Y-74166095D01*
X128432462Y-74143420D01*
X128432462Y-73852509D01*
X128432780Y-73777940D01*
X128435789Y-73664701D01*
X128443454Y-73580692D01*
X128457562Y-73519520D01*
X128479899Y-73474795D01*
X128512253Y-73440124D01*
X128556410Y-73409117D01*
X128612667Y-73383528D01*
X128716540Y-73368154D01*
X128763936Y-73369911D01*
G37*
X128763936Y-73369911D02*
X128805807Y-73380547D01*
X128844791Y-73407062D01*
X128894965Y-73456420D01*
X128927232Y-73491279D01*
X128960844Y-73536534D01*
X128976003Y-73578951D01*
X128979539Y-73632768D01*
X128979539Y-73720850D01*
X128919470Y-73689787D01*
X128871867Y-73651936D01*
X128839261Y-73600950D01*
X128833661Y-73587088D01*
X128790992Y-73533358D01*
X128731707Y-73506417D01*
X128667061Y-73509039D01*
X128608308Y-73544000D01*
X128583450Y-73572394D01*
X128568970Y-73608718D01*
X128584470Y-73641046D01*
X128632667Y-73673565D01*
X128716274Y-73710461D01*
X128728962Y-73715557D01*
X128805078Y-73748907D01*
X128870396Y-73781793D01*
X128911953Y-73807769D01*
X128953576Y-73854167D01*
X128981247Y-73928211D01*
X128978310Y-74007670D01*
X128945571Y-74082868D01*
X128883841Y-74144131D01*
X128833858Y-74170210D01*
X128737303Y-74188470D01*
X128683647Y-74186007D01*
X128633976Y-74172687D01*
X128614919Y-74144739D01*
X128622045Y-74098710D01*
X128624118Y-74092624D01*
X128640556Y-74060349D01*
X128667926Y-74048133D01*
X128720068Y-74048950D01*
X128756884Y-74050061D01*
X128799961Y-74040528D01*
X128829475Y-74012026D01*
X128846286Y-73976935D01*
X128848161Y-73940175D01*
X128848074Y-73939961D01*
X128826279Y-73920098D01*
X128779632Y-73891192D01*
X128719278Y-73858886D01*
X128656360Y-73828823D01*
X128602023Y-73806646D01*
X128567410Y-73798000D01*
X128562260Y-73806467D01*
X128555778Y-73846309D01*
X128551339Y-73911371D01*
X128549692Y-73993385D01*
X128549309Y-74050153D01*
X128547505Y-74121648D01*
X128544558Y-74170610D01*
X128540843Y-74188769D01*
X128521424Y-74182667D01*
X128482227Y-74166095D01*
X128432462Y-74143420D01*
X128432462Y-73852509D01*
X128432780Y-73777940D01*
X128435789Y-73664701D01*
X128443454Y-73580692D01*
X128457562Y-73519520D01*
X128479899Y-73474795D01*
X128512253Y-73440124D01*
X128556410Y-73409117D01*
X128612667Y-73383528D01*
X128716540Y-73368154D01*
X128763936Y-73369911D01*
G36*
X131517575Y-67037693D02*
G01*
X131653371Y-67037807D01*
X131755576Y-67038472D01*
X131829122Y-67040182D01*
X131878942Y-67043429D01*
X131909967Y-67048706D01*
X131927129Y-67056507D01*
X131935361Y-67067325D01*
X131939594Y-67081654D01*
X131939716Y-67082168D01*
X131946672Y-67115851D01*
X131959320Y-67180917D01*
X131976360Y-67270542D01*
X131996496Y-67377904D01*
X132018429Y-67496178D01*
X132020218Y-67505856D01*
X132042083Y-67620650D01*
X132062430Y-67721480D01*
X132079934Y-67802217D01*
X132093271Y-67856734D01*
X132101116Y-67878901D01*
X132101158Y-67878936D01*
X132125884Y-67891200D01*
X132176631Y-67911576D01*
X132242462Y-67935674D01*
X132246169Y-67936983D01*
X132330331Y-67968791D01*
X132428230Y-68008685D01*
X132519435Y-68048353D01*
X132669407Y-68116420D01*
X133001499Y-67889639D01*
X133024889Y-67873688D01*
X133125080Y-67805890D01*
X133214480Y-67746208D01*
X133287745Y-67698156D01*
X133339527Y-67665250D01*
X133364480Y-67651004D01*
X133381577Y-67654270D01*
X133420395Y-67679571D01*
X133480385Y-67729675D01*
X133563210Y-67805989D01*
X133670535Y-67909922D01*
X133680139Y-67919382D01*
X133765302Y-68004145D01*
X133840949Y-68080937D01*
X133902449Y-68144947D01*
X133945173Y-68191361D01*
X133964489Y-68215369D01*
X133964552Y-68215485D01*
X133967006Y-68233763D01*
X133957956Y-68263411D01*
X133935119Y-68308486D01*
X133896213Y-68373044D01*
X133838954Y-68461140D01*
X133761059Y-68576830D01*
X133747785Y-68596357D01*
X133680652Y-68695278D01*
X133621410Y-68782848D01*
X133573588Y-68853831D01*
X133540715Y-68902991D01*
X133526318Y-68925095D01*
X133525232Y-68929777D01*
X133532044Y-68964710D01*
X133552450Y-69021753D01*
X133583123Y-69091172D01*
X133624808Y-69181959D01*
X133671352Y-69289686D01*
X133710877Y-69387192D01*
X133720676Y-69412430D01*
X133746340Y-69476870D01*
X133765193Y-69521763D01*
X133773710Y-69538616D01*
X133783111Y-69539875D01*
X133825363Y-69547159D01*
X133894521Y-69559739D01*
X133983387Y-69576246D01*
X134084768Y-69595312D01*
X134191467Y-69615569D01*
X134296288Y-69635647D01*
X134392036Y-69654179D01*
X134471516Y-69669795D01*
X134527530Y-69681127D01*
X134552885Y-69686807D01*
X134557088Y-69688408D01*
X134567334Y-69697045D01*
X134574957Y-69715433D01*
X134580338Y-69748460D01*
X134583859Y-69801013D01*
X134585901Y-69877979D01*
X134586847Y-69984246D01*
X134587077Y-70124701D01*
X134587077Y-70551845D01*
X134484500Y-70572091D01*
X134472092Y-70574518D01*
X134406199Y-70587088D01*
X134315084Y-70604170D01*
X134209104Y-70623829D01*
X134098615Y-70644132D01*
X134055105Y-70652299D01*
X133957882Y-70672167D01*
X133876858Y-70690954D01*
X133819477Y-70706859D01*
X133793187Y-70718079D01*
X133781273Y-70736411D01*
X133759583Y-70784916D01*
X133737395Y-70847692D01*
X133729585Y-70871200D01*
X133700835Y-70948366D01*
X133663752Y-71039694D01*
X133624375Y-71130093D01*
X133603315Y-71177310D01*
X133573311Y-71247837D01*
X133552692Y-71300655D01*
X133545026Y-71326912D01*
X133545452Y-71328894D01*
X133559993Y-71356751D01*
X133592783Y-71410510D01*
X133640493Y-71484963D01*
X133699798Y-71574897D01*
X133767369Y-71675104D01*
X133989713Y-72001416D01*
X133697601Y-72294016D01*
X133669349Y-72322171D01*
X133582961Y-72406449D01*
X133505756Y-72479128D01*
X133442258Y-72536112D01*
X133396990Y-72573307D01*
X133374474Y-72586616D01*
X133350023Y-72576490D01*
X133298819Y-72547421D01*
X133226747Y-72502896D01*
X133139460Y-72446411D01*
X133042612Y-72381462D01*
X132947486Y-72317314D01*
X132861669Y-72260827D01*
X132791652Y-72216184D01*
X132742876Y-72186855D01*
X132720783Y-72176308D01*
X132719488Y-72176404D01*
X132690139Y-72186802D01*
X132638093Y-72211012D01*
X132573708Y-72244249D01*
X132573032Y-72244613D01*
X132487521Y-72287441D01*
X132428926Y-72308365D01*
X132392571Y-72308423D01*
X132373775Y-72288654D01*
X132365819Y-72269195D01*
X132344347Y-72217080D01*
X132311273Y-72136964D01*
X132268356Y-72033107D01*
X132217356Y-71909767D01*
X132160033Y-71771201D01*
X132098146Y-71621670D01*
X132042052Y-71485636D01*
X131984977Y-71346050D01*
X131934479Y-71221315D01*
X131892254Y-71115672D01*
X131859995Y-71033365D01*
X131839397Y-70978635D01*
X131832154Y-70955726D01*
X131845986Y-70934718D01*
X131884412Y-70899642D01*
X131938807Y-70858887D01*
X132069395Y-70752267D01*
X132186260Y-70616025D01*
X132271780Y-70466118D01*
X132325431Y-70306971D01*
X132346684Y-70143012D01*
X132335014Y-69978667D01*
X132289894Y-69818361D01*
X132210797Y-69666520D01*
X132097197Y-69527572D01*
X132037965Y-69473460D01*
X131896054Y-69377782D01*
X131744206Y-69315405D01*
X131586861Y-69284844D01*
X131428456Y-69284615D01*
X131273429Y-69313232D01*
X131126220Y-69369210D01*
X130991266Y-69451064D01*
X130873005Y-69557309D01*
X130775877Y-69686459D01*
X130704318Y-69837031D01*
X130662769Y-70007539D01*
X130655143Y-70089722D01*
X130665634Y-70267775D01*
X130712882Y-70436704D01*
X130795489Y-70593522D01*
X130912059Y-70735245D01*
X131061193Y-70858887D01*
X131113561Y-70897982D01*
X131152832Y-70933443D01*
X131167846Y-70955692D01*
X131161859Y-70975088D01*
X131142432Y-71027059D01*
X131111194Y-71107002D01*
X131069839Y-71210673D01*
X131020061Y-71333832D01*
X130963553Y-71472234D01*
X130902009Y-71621637D01*
X130846008Y-71757020D01*
X130788184Y-71896852D01*
X130736500Y-72021872D01*
X130692718Y-72127822D01*
X130658597Y-72210441D01*
X130635898Y-72265472D01*
X130626380Y-72288654D01*
X130626269Y-72288928D01*
X130607228Y-72308503D01*
X130570694Y-72308279D01*
X130511954Y-72287210D01*
X130426292Y-72244249D01*
X130419549Y-72240631D01*
X130355938Y-72208087D01*
X130305707Y-72185050D01*
X130279218Y-72176308D01*
X130257506Y-72186639D01*
X130208984Y-72215788D01*
X130139163Y-72260287D01*
X130053484Y-72316668D01*
X129957388Y-72381462D01*
X129862706Y-72444984D01*
X129775132Y-72501705D01*
X129702642Y-72546547D01*
X129650889Y-72576016D01*
X129625526Y-72586616D01*
X129621206Y-72585270D01*
X129591092Y-72564056D01*
X129539640Y-72520237D01*
X129471375Y-72457909D01*
X129390820Y-72381170D01*
X129302500Y-72294116D01*
X129010488Y-72001617D01*
X129465360Y-71332525D01*
X129396208Y-71182916D01*
X129396003Y-71182473D01*
X129354477Y-71087101D01*
X129312044Y-70980896D01*
X129277858Y-70886769D01*
X129272684Y-70871588D01*
X129246601Y-70801109D01*
X129223081Y-70746342D01*
X129206677Y-70718079D01*
X129199996Y-70714088D01*
X129159892Y-70700697D01*
X129091795Y-70683373D01*
X129003145Y-70663917D01*
X128901385Y-70644132D01*
X128870904Y-70638551D01*
X128760628Y-70618233D01*
X128657731Y-70599095D01*
X128572569Y-70583070D01*
X128515500Y-70572091D01*
X128412923Y-70551845D01*
X128412923Y-70124701D01*
X128412946Y-70072180D01*
X128413379Y-69944047D01*
X128414659Y-69848420D01*
X128417168Y-69780411D01*
X128421286Y-69735133D01*
X128427395Y-69707697D01*
X128435878Y-69693218D01*
X128447115Y-69686807D01*
X128457994Y-69684209D01*
X128502347Y-69675022D01*
X128573106Y-69660991D01*
X128663074Y-69643486D01*
X128765056Y-69623874D01*
X128871857Y-69603525D01*
X128976281Y-69583807D01*
X129071132Y-69566089D01*
X129149214Y-69551738D01*
X129203332Y-69542124D01*
X129226291Y-69538616D01*
X129227842Y-69536497D01*
X129240325Y-69509006D01*
X129261927Y-69456406D01*
X129289123Y-69387192D01*
X129326866Y-69293937D01*
X129373328Y-69186159D01*
X129416878Y-69091172D01*
X129426858Y-69069851D01*
X129454862Y-69003086D01*
X129471641Y-68951590D01*
X129473854Y-68925095D01*
X129472713Y-68923218D01*
X129454584Y-68895565D01*
X129418644Y-68841849D01*
X129368418Y-68767303D01*
X129307430Y-68677162D01*
X129239205Y-68576657D01*
X129162330Y-68462470D01*
X129104663Y-68373770D01*
X129065426Y-68308721D01*
X129042350Y-68263295D01*
X129033166Y-68233463D01*
X129035604Y-68215195D01*
X129036424Y-68213825D01*
X129058477Y-68187205D01*
X129103436Y-68138697D01*
X129166673Y-68073108D01*
X129243559Y-67995247D01*
X129329465Y-67909922D01*
X129418579Y-67823334D01*
X129505872Y-67741947D01*
X129570018Y-67687035D01*
X129612679Y-67657190D01*
X129635521Y-67651004D01*
X129638505Y-67652394D01*
X129669936Y-67671127D01*
X129726997Y-67707733D01*
X129804343Y-67758697D01*
X129896626Y-67820504D01*
X129998502Y-67889639D01*
X130330593Y-68116420D01*
X130480566Y-68048353D01*
X130484923Y-68046381D01*
X130577000Y-68006491D01*
X130674683Y-67966818D01*
X130757539Y-67935674D01*
X130757905Y-67935545D01*
X130823685Y-67911456D01*
X130874323Y-67891110D01*
X130898884Y-67878901D01*
X130899282Y-67878458D01*
X130907619Y-67853456D01*
X130921341Y-67796598D01*
X130939123Y-67714014D01*
X130959641Y-67611831D01*
X130981571Y-67496178D01*
X130982336Y-67492033D01*
X131004229Y-67374019D01*
X131024281Y-67267151D01*
X131041192Y-67178252D01*
X131053667Y-67114145D01*
X131060406Y-67081654D01*
X131060837Y-67079853D01*
X131065273Y-67065944D01*
X131074263Y-67055489D01*
X131092737Y-67047996D01*
X131125628Y-67042972D01*
X131177868Y-67039922D01*
X131254388Y-67038355D01*
X131360122Y-67037776D01*
X131500000Y-67037692D01*
X131517575Y-67037693D01*
G37*
X131517575Y-67037693D02*
X131653371Y-67037807D01*
X131755576Y-67038472D01*
X131829122Y-67040182D01*
X131878942Y-67043429D01*
X131909967Y-67048706D01*
X131927129Y-67056507D01*
X131935361Y-67067325D01*
X131939594Y-67081654D01*
X131939716Y-67082168D01*
X131946672Y-67115851D01*
X131959320Y-67180917D01*
X131976360Y-67270542D01*
X131996496Y-67377904D01*
X132018429Y-67496178D01*
X132020218Y-67505856D01*
X132042083Y-67620650D01*
X132062430Y-67721480D01*
X132079934Y-67802217D01*
X132093271Y-67856734D01*
X132101116Y-67878901D01*
X132101158Y-67878936D01*
X132125884Y-67891200D01*
X132176631Y-67911576D01*
X132242462Y-67935674D01*
X132246169Y-67936983D01*
X132330331Y-67968791D01*
X132428230Y-68008685D01*
X132519435Y-68048353D01*
X132669407Y-68116420D01*
X133001499Y-67889639D01*
X133024889Y-67873688D01*
X133125080Y-67805890D01*
X133214480Y-67746208D01*
X133287745Y-67698156D01*
X133339527Y-67665250D01*
X133364480Y-67651004D01*
X133381577Y-67654270D01*
X133420395Y-67679571D01*
X133480385Y-67729675D01*
X133563210Y-67805989D01*
X133670535Y-67909922D01*
X133680139Y-67919382D01*
X133765302Y-68004145D01*
X133840949Y-68080937D01*
X133902449Y-68144947D01*
X133945173Y-68191361D01*
X133964489Y-68215369D01*
X133964552Y-68215485D01*
X133967006Y-68233763D01*
X133957956Y-68263411D01*
X133935119Y-68308486D01*
X133896213Y-68373044D01*
X133838954Y-68461140D01*
X133761059Y-68576830D01*
X133747785Y-68596357D01*
X133680652Y-68695278D01*
X133621410Y-68782848D01*
X133573588Y-68853831D01*
X133540715Y-68902991D01*
X133526318Y-68925095D01*
X133525232Y-68929777D01*
X133532044Y-68964710D01*
X133552450Y-69021753D01*
X133583123Y-69091172D01*
X133624808Y-69181959D01*
X133671352Y-69289686D01*
X133710877Y-69387192D01*
X133720676Y-69412430D01*
X133746340Y-69476870D01*
X133765193Y-69521763D01*
X133773710Y-69538616D01*
X133783111Y-69539875D01*
X133825363Y-69547159D01*
X133894521Y-69559739D01*
X133983387Y-69576246D01*
X134084768Y-69595312D01*
X134191467Y-69615569D01*
X134296288Y-69635647D01*
X134392036Y-69654179D01*
X134471516Y-69669795D01*
X134527530Y-69681127D01*
X134552885Y-69686807D01*
X134557088Y-69688408D01*
X134567334Y-69697045D01*
X134574957Y-69715433D01*
X134580338Y-69748460D01*
X134583859Y-69801013D01*
X134585901Y-69877979D01*
X134586847Y-69984246D01*
X134587077Y-70124701D01*
X134587077Y-70551845D01*
X134484500Y-70572091D01*
X134472092Y-70574518D01*
X134406199Y-70587088D01*
X134315084Y-70604170D01*
X134209104Y-70623829D01*
X134098615Y-70644132D01*
X134055105Y-70652299D01*
X133957882Y-70672167D01*
X133876858Y-70690954D01*
X133819477Y-70706859D01*
X133793187Y-70718079D01*
X133781273Y-70736411D01*
X133759583Y-70784916D01*
X133737395Y-70847692D01*
X133729585Y-70871200D01*
X133700835Y-70948366D01*
X133663752Y-71039694D01*
X133624375Y-71130093D01*
X133603315Y-71177310D01*
X133573311Y-71247837D01*
X133552692Y-71300655D01*
X133545026Y-71326912D01*
X133545452Y-71328894D01*
X133559993Y-71356751D01*
X133592783Y-71410510D01*
X133640493Y-71484963D01*
X133699798Y-71574897D01*
X133767369Y-71675104D01*
X133989713Y-72001416D01*
X133697601Y-72294016D01*
X133669349Y-72322171D01*
X133582961Y-72406449D01*
X133505756Y-72479128D01*
X133442258Y-72536112D01*
X133396990Y-72573307D01*
X133374474Y-72586616D01*
X133350023Y-72576490D01*
X133298819Y-72547421D01*
X133226747Y-72502896D01*
X133139460Y-72446411D01*
X133042612Y-72381462D01*
X132947486Y-72317314D01*
X132861669Y-72260827D01*
X132791652Y-72216184D01*
X132742876Y-72186855D01*
X132720783Y-72176308D01*
X132719488Y-72176404D01*
X132690139Y-72186802D01*
X132638093Y-72211012D01*
X132573708Y-72244249D01*
X132573032Y-72244613D01*
X132487521Y-72287441D01*
X132428926Y-72308365D01*
X132392571Y-72308423D01*
X132373775Y-72288654D01*
X132365819Y-72269195D01*
X132344347Y-72217080D01*
X132311273Y-72136964D01*
X132268356Y-72033107D01*
X132217356Y-71909767D01*
X132160033Y-71771201D01*
X132098146Y-71621670D01*
X132042052Y-71485636D01*
X131984977Y-71346050D01*
X131934479Y-71221315D01*
X131892254Y-71115672D01*
X131859995Y-71033365D01*
X131839397Y-70978635D01*
X131832154Y-70955726D01*
X131845986Y-70934718D01*
X131884412Y-70899642D01*
X131938807Y-70858887D01*
X132069395Y-70752267D01*
X132186260Y-70616025D01*
X132271780Y-70466118D01*
X132325431Y-70306971D01*
X132346684Y-70143012D01*
X132335014Y-69978667D01*
X132289894Y-69818361D01*
X132210797Y-69666520D01*
X132097197Y-69527572D01*
X132037965Y-69473460D01*
X131896054Y-69377782D01*
X131744206Y-69315405D01*
X131586861Y-69284844D01*
X131428456Y-69284615D01*
X131273429Y-69313232D01*
X131126220Y-69369210D01*
X130991266Y-69451064D01*
X130873005Y-69557309D01*
X130775877Y-69686459D01*
X130704318Y-69837031D01*
X130662769Y-70007539D01*
X130655143Y-70089722D01*
X130665634Y-70267775D01*
X130712882Y-70436704D01*
X130795489Y-70593522D01*
X130912059Y-70735245D01*
X131061193Y-70858887D01*
X131113561Y-70897982D01*
X131152832Y-70933443D01*
X131167846Y-70955692D01*
X131161859Y-70975088D01*
X131142432Y-71027059D01*
X131111194Y-71107002D01*
X131069839Y-71210673D01*
X131020061Y-71333832D01*
X130963553Y-71472234D01*
X130902009Y-71621637D01*
X130846008Y-71757020D01*
X130788184Y-71896852D01*
X130736500Y-72021872D01*
X130692718Y-72127822D01*
X130658597Y-72210441D01*
X130635898Y-72265472D01*
X130626380Y-72288654D01*
X130626269Y-72288928D01*
X130607228Y-72308503D01*
X130570694Y-72308279D01*
X130511954Y-72287210D01*
X130426292Y-72244249D01*
X130419549Y-72240631D01*
X130355938Y-72208087D01*
X130305707Y-72185050D01*
X130279218Y-72176308D01*
X130257506Y-72186639D01*
X130208984Y-72215788D01*
X130139163Y-72260287D01*
X130053484Y-72316668D01*
X129957388Y-72381462D01*
X129862706Y-72444984D01*
X129775132Y-72501705D01*
X129702642Y-72546547D01*
X129650889Y-72576016D01*
X129625526Y-72586616D01*
X129621206Y-72585270D01*
X129591092Y-72564056D01*
X129539640Y-72520237D01*
X129471375Y-72457909D01*
X129390820Y-72381170D01*
X129302500Y-72294116D01*
X129010488Y-72001617D01*
X129465360Y-71332525D01*
X129396208Y-71182916D01*
X129396003Y-71182473D01*
X129354477Y-71087101D01*
X129312044Y-70980896D01*
X129277858Y-70886769D01*
X129272684Y-70871588D01*
X129246601Y-70801109D01*
X129223081Y-70746342D01*
X129206677Y-70718079D01*
X129199996Y-70714088D01*
X129159892Y-70700697D01*
X129091795Y-70683373D01*
X129003145Y-70663917D01*
X128901385Y-70644132D01*
X128870904Y-70638551D01*
X128760628Y-70618233D01*
X128657731Y-70599095D01*
X128572569Y-70583070D01*
X128515500Y-70572091D01*
X128412923Y-70551845D01*
X128412923Y-70124701D01*
X128412946Y-70072180D01*
X128413379Y-69944047D01*
X128414659Y-69848420D01*
X128417168Y-69780411D01*
X128421286Y-69735133D01*
X128427395Y-69707697D01*
X128435878Y-69693218D01*
X128447115Y-69686807D01*
X128457994Y-69684209D01*
X128502347Y-69675022D01*
X128573106Y-69660991D01*
X128663074Y-69643486D01*
X128765056Y-69623874D01*
X128871857Y-69603525D01*
X128976281Y-69583807D01*
X129071132Y-69566089D01*
X129149214Y-69551738D01*
X129203332Y-69542124D01*
X129226291Y-69538616D01*
X129227842Y-69536497D01*
X129240325Y-69509006D01*
X129261927Y-69456406D01*
X129289123Y-69387192D01*
X129326866Y-69293937D01*
X129373328Y-69186159D01*
X129416878Y-69091172D01*
X129426858Y-69069851D01*
X129454862Y-69003086D01*
X129471641Y-68951590D01*
X129473854Y-68925095D01*
X129472713Y-68923218D01*
X129454584Y-68895565D01*
X129418644Y-68841849D01*
X129368418Y-68767303D01*
X129307430Y-68677162D01*
X129239205Y-68576657D01*
X129162330Y-68462470D01*
X129104663Y-68373770D01*
X129065426Y-68308721D01*
X129042350Y-68263295D01*
X129033166Y-68233463D01*
X129035604Y-68215195D01*
X129036424Y-68213825D01*
X129058477Y-68187205D01*
X129103436Y-68138697D01*
X129166673Y-68073108D01*
X129243559Y-67995247D01*
X129329465Y-67909922D01*
X129418579Y-67823334D01*
X129505872Y-67741947D01*
X129570018Y-67687035D01*
X129612679Y-67657190D01*
X129635521Y-67651004D01*
X129638505Y-67652394D01*
X129669936Y-67671127D01*
X129726997Y-67707733D01*
X129804343Y-67758697D01*
X129896626Y-67820504D01*
X129998502Y-67889639D01*
X130330593Y-68116420D01*
X130480566Y-68048353D01*
X130484923Y-68046381D01*
X130577000Y-68006491D01*
X130674683Y-67966818D01*
X130757539Y-67935674D01*
X130757905Y-67935545D01*
X130823685Y-67911456D01*
X130874323Y-67891110D01*
X130898884Y-67878901D01*
X130899282Y-67878458D01*
X130907619Y-67853456D01*
X130921341Y-67796598D01*
X130939123Y-67714014D01*
X130959641Y-67611831D01*
X130981571Y-67496178D01*
X130982336Y-67492033D01*
X131004229Y-67374019D01*
X131024281Y-67267151D01*
X131041192Y-67178252D01*
X131053667Y-67114145D01*
X131060406Y-67081654D01*
X131060837Y-67079853D01*
X131065273Y-67065944D01*
X131074263Y-67055489D01*
X131092737Y-67047996D01*
X131125628Y-67042972D01*
X131177868Y-67039922D01*
X131254388Y-67038355D01*
X131360122Y-67037776D01*
X131500000Y-67037692D01*
X131517575Y-67037693D01*
M02*
